<svg width="120" height="121" viewBox="0 0 120 121" fill="none" xmlns="http://www.w3.org/2000/svg">
<g clip-path="url(#clip0_114_415)">
<path d="M60 0.466675C76.5723 0.466675 91.5723 7.18542 102.422 18.0448C113.281 28.9042 119.99 43.9042 119.99 60.4667C119.99 77.0389 113.271 92.0389 102.422 102.889C91.5625 113.748 76.5625 120.467 60 120.467C43.4277 120.467 28.4277 113.748 17.5781 102.889C6.71875 92.0389 0 77.0389 0 60.4667C0 43.8944 6.71875 28.8944 17.5781 18.0448C28.4277 7.18542 43.4277 0.466675 60 0.466675ZM60 7.46863C74.6387 7.46863 87.8906 13.3964 97.4805 22.996C107.07 32.5858 113.008 45.8378 113.008 60.4764C113.008 75.1151 107.07 88.3573 97.4805 97.9471C87.8906 107.537 74.6387 113.474 60 113.474C45.3613 113.474 32.1094 107.547 22.5195 97.9471C12.9297 88.3573 7.00195 75.1053 7.00195 60.4667C7.00195 45.828 12.9297 32.576 22.5293 22.9862C32.1094 13.3964 45.3613 7.46863 60 7.46863ZM60 9.64636C88.0664 9.64636 110.82 32.4003 110.82 60.4667C110.82 88.5331 88.0664 111.287 60 111.287C31.9336 111.287 9.17969 88.5331 9.17969 60.4667C9.17969 32.4003 31.9336 9.64636 60 9.64636ZM98.9355 21.5311C88.9648 11.5702 75.2051 5.40808 60 5.40808C44.7949 5.40808 31.0352 11.5702 21.0645 21.5311C11.0938 31.4921 4.94141 45.2616 4.94141 60.4667C4.94141 75.6718 11.1035 89.4315 21.0645 99.4022C31.0254 109.373 44.7949 115.525 60 115.525C75.2051 115.525 88.9648 109.363 98.9355 99.4022C108.896 89.4413 115.059 75.6718 115.059 60.4667C115.059 45.2616 108.896 31.5018 98.9355 21.5311Z" fill="#51A148"/>
<path fill-rule="evenodd" clip-rule="evenodd" d="M60 9.64636C88.0664 9.64636 110.82 32.4003 110.82 60.4667C110.82 88.5331 88.0664 111.287 60 111.287C31.9336 111.287 9.17969 88.5331 9.17969 60.4667C9.17969 32.4003 31.9336 9.64636 60 9.64636Z" fill="white"/>
<path d="M37.5488 39.7147V31.2284C36.9629 31.6581 36.4453 31.9999 35.9961 32.2538C35.3418 32.6249 34.834 32.8104 34.4629 32.8104C34.2578 32.8104 34.0723 32.7714 33.8867 32.6835C33.7109 32.6053 33.5449 32.4882 33.3984 32.3319C33.252 32.1854 33.1445 32.0096 33.0664 31.8339C32.9883 31.6483 32.9492 31.4432 32.9492 31.2479C32.9492 31.0136 32.9883 30.8085 33.0664 30.6229C33.1543 30.4276 33.2812 30.2616 33.4473 30.1346L33.4766 30.1151C33.6035 30.0272 33.7598 29.9296 33.9453 29.8221L34.6777 29.4511C35.4687 29.08 36.1035 28.6893 36.5625 28.2889C36.7969 28.0839 37.0215 27.869 37.2266 27.6346C37.4316 27.4003 37.6367 27.1659 37.8125 26.912C38.0859 26.5604 38.3105 26.2284 38.5937 25.8866C38.7012 25.7694 38.8574 25.6815 39.043 25.6327C39.1895 25.5936 39.3652 25.5741 39.5605 25.5741C40.0586 25.5741 40.459 25.7694 40.7617 26.16C40.9082 26.3358 41.0156 26.5507 41.084 26.8046C41.1523 27.0389 41.1816 27.2928 41.1816 27.5761V39.3241C41.1816 40.0956 41.0352 40.6913 40.752 41.1112C40.4297 41.58 39.9707 41.8143 39.3457 41.8143C39.082 41.8143 38.8379 41.7655 38.623 41.6776C38.3984 41.58 38.1934 41.4432 38.0273 41.2577L38.0078 41.2382C37.8516 41.0526 37.7246 40.8378 37.6562 40.5839C37.5879 40.3104 37.5488 40.0272 37.5488 39.7147ZM55.918 33.7382C55.918 34.2948 55.8984 34.8319 55.8691 35.33C55.8398 35.8182 55.7812 36.2772 55.7129 36.6971C55.6445 37.1171 55.5371 37.5272 55.4004 37.9178C55.2637 38.3085 55.0977 38.6796 54.9023 39.0311C54.6484 39.4706 54.3652 39.8514 54.0332 40.1932C53.7012 40.5253 53.3398 40.8182 52.9395 41.0526C52.5391 41.287 52.1094 41.4725 51.6602 41.5897C51.2109 41.7069 50.7422 41.7655 50.2637 41.7655C49.6973 41.7655 49.1602 41.6874 48.6621 41.5214C48.1543 41.3651 47.6758 41.121 47.2266 40.7987C46.7773 40.4764 46.3867 40.0956 46.0547 39.6561C45.7227 39.2167 45.4395 38.7284 45.2246 38.1718L45.2148 38.1522C45.1074 37.8593 45.0098 37.537 44.9219 37.2147C44.8437 36.8827 44.7754 36.5409 44.7266 36.1893C44.6777 35.8378 44.6387 35.4667 44.6094 35.0858C44.5801 34.6952 44.5703 34.2948 44.5703 33.8944C44.5703 33.3866 44.5898 32.8788 44.6094 32.4003V32.3905C44.6387 31.9218 44.6777 31.4725 44.7363 31.0526C44.7949 30.6327 44.8633 30.2323 44.9512 29.8514C45.0391 29.4706 45.1465 29.119 45.2734 28.8163L45.293 28.787C45.5078 28.2792 45.7715 27.8202 46.0742 27.4198C46.3965 27.0096 46.7676 26.6581 47.1875 26.3846C47.6074 26.1014 48.0762 25.8866 48.5742 25.7499C49.0723 25.6132 49.6094 25.535 50.1758 25.535C50.5469 25.535 50.9082 25.5643 51.2598 25.6327C51.6016 25.6913 51.9434 25.7889 52.2559 25.9159L52.2852 25.9257C52.5879 26.0526 52.8711 26.1991 53.1445 26.3749C53.418 26.5604 53.6816 26.7753 53.916 27.0096C54.1504 27.2538 54.375 27.5175 54.5703 27.8104C54.7656 28.1034 54.9414 28.4159 55.1074 28.7675L55.127 28.8065C55.3906 29.4022 55.5957 30.1053 55.7324 30.9257V30.9452C55.8496 31.7655 55.918 32.703 55.918 33.7382ZM52.2656 33.5331C52.2656 32.9081 52.2461 32.3514 52.207 31.8632C52.168 31.3651 52.1191 30.9257 52.041 30.5448V30.535C51.9727 30.1737 51.875 29.8514 51.7676 29.578C51.6602 29.3143 51.5234 29.0995 51.377 28.9335C51.2402 28.7772 51.084 28.66 50.8984 28.5917L50.8789 28.5819C50.6934 28.5136 50.4688 28.4745 50.2246 28.4745C49.8633 28.4745 49.5605 28.5624 49.3262 28.7382L49.3066 28.7577C49.0723 28.9335 48.877 29.2069 48.7402 29.5682C48.5742 29.9882 48.457 30.535 48.3691 31.1991C48.2812 31.8729 48.2422 32.6835 48.2422 33.621C48.2422 34.2655 48.2617 34.8417 48.291 35.3495C48.3301 35.8671 48.3789 36.3163 48.457 36.7069C48.5254 37.078 48.623 37.4198 48.7402 37.703C48.8477 37.9764 48.9844 38.201 49.1309 38.3768C49.2676 38.5331 49.4238 38.66 49.6094 38.7382C49.7949 38.8163 50.0098 38.8651 50.2539 38.8651C50.5176 38.8651 50.7324 38.826 50.9277 38.7382C51.1133 38.66 51.2695 38.5331 51.4062 38.3671C51.5625 38.1815 51.6895 37.9471 51.7969 37.6737C51.9043 37.3905 52.002 37.0585 52.0703 36.6776C52.1387 36.2772 52.1973 35.8182 52.2266 35.3007C52.2461 34.7831 52.2656 34.1874 52.2656 33.5331ZM68.3008 33.7382C68.3008 34.2948 68.2812 34.8319 68.252 35.33C68.2227 35.8182 68.1641 36.2772 68.0957 36.6971C68.0273 37.1171 67.9199 37.5272 67.7832 37.9178C67.6465 38.3085 67.4805 38.6796 67.2852 39.0311C67.0313 39.4706 66.7481 39.8514 66.416 40.1932C66.084 40.5253 65.7227 40.8182 65.3223 41.0526C64.9219 41.287 64.4922 41.4725 64.043 41.5897C63.5938 41.7069 63.125 41.7655 62.6465 41.7655C62.0801 41.7655 61.543 41.6874 61.0449 41.5214C60.5371 41.3651 60.0586 41.121 59.6094 40.7987C59.1602 40.4764 58.7695 40.0956 58.4375 39.6561C58.1055 39.2167 57.8223 38.7284 57.6074 38.1718L57.5977 38.1522C57.4902 37.8593 57.3926 37.537 57.3047 37.2147C57.2266 36.8827 57.1582 36.5409 57.1094 36.1893C57.0605 35.8378 57.0215 35.4667 56.9922 35.0858C56.9629 34.6952 56.9531 34.2948 56.9531 33.8944C56.9531 33.3866 56.9727 32.8788 56.9922 32.4003V32.3905C57.0215 31.9218 57.0605 31.4725 57.1191 31.0526C57.1777 30.6327 57.2461 30.2323 57.334 29.8514C57.4219 29.4706 57.5293 29.119 57.6562 28.8163L57.6758 28.787C57.8906 28.2792 58.1543 27.8202 58.457 27.4198C58.7793 27.0096 59.1504 26.6581 59.5703 26.3846C59.9902 26.1014 60.459 25.8866 60.957 25.7499C61.4551 25.6132 61.9922 25.535 62.5586 25.535C62.9297 25.535 63.291 25.5643 63.6426 25.6327C63.9844 25.6913 64.3262 25.7889 64.6387 25.9159L64.668 25.9257C64.9707 26.0526 65.2539 26.1991 65.5273 26.3749C65.8105 26.5604 66.0645 26.7753 66.2988 27.0096C66.5332 27.2538 66.7578 27.5175 66.9531 27.8104C67.1484 28.1034 67.3242 28.4159 67.4902 28.7675L67.5 28.8065C67.7734 29.4022 67.9688 30.1053 68.1055 30.9257V30.9452C68.2324 31.7655 68.3008 32.703 68.3008 33.7382ZM64.6484 33.5331C64.6484 32.9081 64.6289 32.3514 64.5898 31.8632C64.5508 31.3651 64.502 30.9257 64.4238 30.5448V30.535C64.3555 30.1737 64.2578 29.8514 64.1504 29.578C64.043 29.3143 63.9063 29.0995 63.7695 28.9335C63.6328 28.7772 63.4766 28.66 63.291 28.5917L63.2715 28.5819C63.0859 28.5136 62.8613 28.4745 62.6172 28.4745C62.2559 28.4745 61.9531 28.5624 61.7188 28.7382L61.6992 28.7577C61.4648 28.9335 61.2695 29.2069 61.1328 29.5682C60.9668 29.9882 60.8496 30.535 60.7617 31.1991C60.6738 31.8729 60.6348 32.6835 60.6348 33.621C60.6348 34.2655 60.6543 34.8417 60.6836 35.3495C60.7227 35.8671 60.7715 36.3163 60.8496 36.7069C60.918 37.078 61.0156 37.4198 61.1328 37.703C61.2402 37.9764 61.377 38.201 61.5234 38.3768C61.6602 38.5331 61.8164 38.66 62.002 38.7382C62.1875 38.8163 62.4023 38.8651 62.6465 38.8651C62.9102 38.8651 63.125 38.826 63.3203 38.7382C63.5059 38.66 63.6621 38.5331 63.7988 38.3671C63.9551 38.1815 64.082 37.9471 64.1895 37.6737C64.2969 37.3905 64.3945 37.0585 64.4629 36.6776C64.5313 36.2772 64.5898 35.8182 64.6191 35.3007C64.6289 34.7831 64.6484 34.1874 64.6484 33.5331ZM76.5527 29.9393C76.5527 30.6327 76.4746 31.2382 76.3184 31.7655C76.1523 32.3124 75.9082 32.7714 75.5762 33.1327L75.5566 33.1522C75.2344 33.5038 74.8438 33.7772 74.3945 33.953C73.9453 34.1288 73.457 34.2264 72.9004 34.2264C72.5586 34.2264 72.2363 34.1874 71.9238 34.1093C71.6113 34.0311 71.3086 33.9139 71.0352 33.7675C70.752 33.6112 70.498 33.4061 70.2734 33.162C70.0586 32.9178 69.873 32.6346 69.7168 32.3124L69.707 32.2831C69.5605 31.9706 69.4531 31.619 69.375 31.2479C69.2969 30.8671 69.2578 30.4569 69.2578 30.0175C69.2578 29.5585 69.2871 29.1288 69.3457 28.7382C69.4043 28.3378 69.4922 27.9764 69.5996 27.6542L69.6191 27.6151C69.7363 27.2928 69.8926 26.9999 70.0879 26.7557C70.293 26.4921 70.5371 26.2675 70.8106 26.0917C71.084 25.9159 71.3965 25.7792 71.7481 25.6913H71.7676C72.1094 25.6034 72.4707 25.5643 72.8711 25.5643C73.1543 25.5643 73.4375 25.5839 73.7012 25.6327C73.9551 25.6815 74.209 25.7499 74.4336 25.8378C74.668 25.9354 74.8828 26.0526 75.0879 26.1991C75.2832 26.3456 75.4687 26.5214 75.6348 26.7167L75.6543 26.746C75.8008 26.9315 75.9375 27.1366 76.0449 27.3612C76.1621 27.5858 76.2598 27.8397 76.3379 28.1132L76.3477 28.1327C76.416 28.3964 76.4746 28.6698 76.5039 28.9725C76.5332 29.2655 76.5527 29.5975 76.5527 29.9393ZM73.7891 29.8319C73.7891 29.4022 73.7695 29.0409 73.7207 28.7382V28.7284C73.6816 28.4452 73.623 28.2206 73.5449 28.0643L73.5352 28.0546C73.4766 27.9374 73.3984 27.8495 73.3105 27.7909L73.3008 27.7811C73.2031 27.7225 73.0762 27.703 72.9102 27.703C72.793 27.703 72.6953 27.7225 72.6172 27.7518C72.5391 27.7811 72.4805 27.8202 72.4219 27.8788C72.3633 27.9374 72.3047 28.0253 72.2656 28.1229L72.2559 28.1425C72.207 28.2499 72.168 28.3768 72.1387 28.5233C72.1094 28.6991 72.0801 28.8944 72.0605 29.119L72.0313 29.8905L72.0605 30.701C72.0801 30.9257 72.0996 31.1307 72.1289 31.2968C72.1582 31.453 72.1973 31.5897 72.2559 31.7069C72.2949 31.8046 72.3535 31.8827 72.4121 31.9413L72.4316 31.9608C72.4805 32.0096 72.5391 32.0487 72.6074 32.0682C72.6855 32.0975 72.793 32.1171 72.9102 32.1171C73.0859 32.1171 73.2227 32.0878 73.3203 32.0194C73.418 31.9608 73.4961 31.8632 73.5547 31.7264L73.5645 31.7167C73.6328 31.5409 73.6914 31.2968 73.7305 31.0038C73.7695 30.662 73.7891 30.2811 73.7891 29.8319ZM87.0508 37.3514C87.0508 38.0448 86.9727 38.6503 86.8164 39.1776C86.6504 39.7245 86.4062 40.1835 86.0742 40.5448L86.0547 40.5643C85.7324 40.9159 85.3418 41.1893 84.8926 41.3651C84.4434 41.5409 83.9551 41.6385 83.3984 41.6385C83.0566 41.6385 82.7246 41.5995 82.4121 41.5214L82.3926 41.5116C82.0898 41.4335 81.7969 41.3163 81.5234 41.1698C81.2402 41.0136 80.9863 40.8085 80.7617 40.5643C80.5469 40.33 80.3516 40.0468 80.1953 39.7245L80.1855 39.6952C80.0391 39.3827 79.9219 39.0409 79.8535 38.6698C79.7754 38.2889 79.7461 37.8788 79.7461 37.4393C79.7461 36.746 79.8145 36.121 79.9512 35.5839C80.0879 35.0272 80.3125 34.5585 80.5957 34.1776C80.8887 33.7772 81.2793 33.4843 81.7578 33.2792C82.2168 33.0936 82.7539 32.996 83.3594 32.996C83.6426 32.996 83.916 33.0155 84.1797 33.0643H84.1992C84.4531 33.1034 84.6973 33.1815 84.9219 33.2694C85.1465 33.3671 85.3613 33.4843 85.5664 33.621C85.7617 33.7675 85.9473 33.9335 86.1133 34.119C86.2793 34.3143 86.416 34.5194 86.543 34.7538L86.5527 34.7733C86.6699 34.9979 86.7578 35.2421 86.8359 35.5057L86.8457 35.5253C86.9141 35.7889 86.9727 36.0721 87.0019 36.3651C87.041 36.6874 87.0508 37.0096 87.0508 37.3514ZM84.2871 37.2538C84.2871 36.8339 84.2676 36.4725 84.2188 36.1698C84.1797 35.8866 84.1211 35.662 84.043 35.496C83.9844 35.369 83.9062 35.2811 83.8086 35.2225L83.7988 35.2128C83.7012 35.1542 83.5742 35.1346 83.4082 35.1346C83.2813 35.1346 83.1738 35.1542 83.0957 35.1835C83.0176 35.2128 82.959 35.2518 82.9102 35.3007C82.8516 35.3593 82.793 35.4471 82.7539 35.535C82.7051 35.6425 82.6563 35.7792 82.627 35.9354V35.955C82.5977 36.1112 82.5684 36.3065 82.5488 36.5214C82.5293 36.746 82.5195 37.0096 82.5195 37.2928C82.5195 37.7323 82.5391 38.1132 82.5879 38.4159V38.4257C82.627 38.7186 82.6953 38.953 82.7734 39.119C82.832 39.2557 82.9199 39.3534 83.0176 39.412C83.125 39.4706 83.2617 39.5096 83.4277 39.5096C83.7402 39.5096 83.9551 39.3827 84.0625 39.119C84.1406 38.9335 84.1992 38.6893 84.2383 38.3964C84.2676 38.0839 84.2871 37.6932 84.2871 37.2538ZM83.3301 27.5565L74.7852 41.3358C74.6484 41.5702 74.4922 41.746 74.3359 41.8729C74.1309 42.0292 73.916 42.1073 73.6914 42.1073C73.5645 42.1073 73.4375 42.078 73.3105 42.0292C73.1934 41.9901 73.0762 41.9218 72.9688 41.8339C72.8418 41.7362 72.7344 41.619 72.6758 41.4823L72.666 41.4628C72.6074 41.326 72.5684 41.1796 72.5684 41.0331C72.5684 40.9159 72.5977 40.7792 72.6465 40.6425C72.6855 40.535 72.7539 40.4081 72.8418 40.2811L81.6406 26.0526L81.8555 25.7694C81.9531 25.6522 82.0801 25.5741 82.2168 25.5155L82.2559 25.5057C82.3828 25.4667 82.5098 25.4374 82.6562 25.4374C82.8027 25.4374 82.9395 25.4569 83.0762 25.5057L83.0957 25.5155C83.2227 25.5643 83.3398 25.6425 83.4375 25.7303L83.457 25.7499C83.5547 25.8475 83.6328 25.9647 83.6816 26.0917C83.7305 26.2284 83.7598 26.3651 83.7598 26.5214C83.7598 26.6483 83.7109 26.8143 83.623 27.0096C83.5742 27.1561 83.4668 27.3417 83.3301 27.5565Z" fill="#51A148"/>
<path fill-rule="evenodd" clip-rule="evenodd" d="M61.582 74.0702C62.1679 74.2264 62.8613 74.3241 63.4668 74.4218C78.7793 76.8827 89.7168 69.3925 87.7246 46.7362C77.1679 50.3983 62.871 49.6659 60 62.9764C57.1289 49.6659 42.832 50.3885 32.2753 46.7362C30.2734 69.4706 41.2988 76.9413 56.6992 74.3925C57.2461 74.3046 57.8808 74.2069 58.4179 74.0702C58.8378 74.8124 60.4687 75.1835 61.582 74.0702ZM56.2793 69.871C52.0703 60.8085 41.2695 57.7128 35.9082 51.5214C41.7187 62.83 46.4648 63.3866 56.2793 69.871ZM63.7207 69.871C67.9296 60.8085 78.7304 57.7128 84.0918 51.5214C78.2812 62.83 73.5351 63.3866 63.7207 69.871Z" fill="#51A148"/>
<path fill-rule="evenodd" clip-rule="evenodd" d="M63.7207 69.871C67.9297 60.8085 78.7305 57.7128 84.0918 51.5214C78.2813 62.83 73.5352 63.3866 63.7207 69.871Z" fill="white"/>
<path fill-rule="evenodd" clip-rule="evenodd" d="M56.2793 69.871C52.0703 60.8085 41.2695 57.7128 35.9082 51.5214C41.7188 62.83 46.4648 63.3866 56.2793 69.871Z" fill="white"/>
<path d="M35.5859 78.5331C36.2012 78.5331 36.7676 78.5917 37.3047 78.7186C37.832 78.8456 38.3203 79.0311 38.7695 79.285L38.7793 79.2948C39.2188 79.5487 39.6094 79.8514 39.9414 80.203C40.2832 80.5643 40.5664 80.9745 40.791 81.4432C41.0156 81.9022 41.1914 82.41 41.2988 82.9471C41.416 83.4842 41.4648 84.0604 41.4648 84.6854C41.4648 85.5936 41.3379 86.4335 41.0938 87.1854C40.9668 87.5663 40.8105 87.9178 40.625 88.2401C40.4395 88.5624 40.2148 88.8749 39.9609 89.1483C39.707 89.4315 39.4238 89.6757 39.1211 89.8905C38.8086 90.1053 38.4766 90.2811 38.1152 90.4276H38.1055C37.7441 90.5741 37.3535 90.6815 36.9434 90.7499C36.5332 90.8182 36.084 90.8573 35.625 90.8573C35.166 90.8573 34.7266 90.8182 34.3066 90.7401C33.8867 90.662 33.4961 90.5546 33.125 90.3983C32.7539 90.2518 32.4121 90.0663 32.1094 89.8514C31.7969 89.6366 31.5137 89.3925 31.2695 89.119L31.2598 89.1092C31.0156 88.8358 30.8008 88.5331 30.6152 88.2108C30.4297 87.8788 30.2734 87.5175 30.1465 87.1366C30.0195 86.7557 29.9316 86.3553 29.8633 85.9452C29.8047 85.535 29.7656 85.1053 29.7656 84.6561C29.7656 84.2069 29.7949 83.7675 29.8633 83.3475C29.9316 82.9276 30.0293 82.5272 30.1562 82.1464L30.166 82.1366C30.293 81.7557 30.459 81.4139 30.6445 81.0917C30.8398 80.7694 31.0547 80.4667 31.3086 80.1932C31.5625 79.9198 31.8359 79.6854 32.1484 79.4803C32.4512 79.2753 32.7832 79.0995 33.1445 78.953H33.1543C33.5059 78.8163 33.8867 78.7089 34.2871 78.6405C34.707 78.5624 35.1367 78.5331 35.5859 78.5331ZM38.7109 84.6659C38.7109 84.2557 38.6816 83.8749 38.6133 83.5233C38.5449 83.1718 38.4473 82.8495 38.3203 82.5468V82.537C38.1934 82.2538 38.0371 81.9999 37.8516 81.7753C37.666 81.5604 37.4609 81.3749 37.2266 81.2284C36.9922 81.0819 36.7383 80.9647 36.4648 80.8964C36.1914 80.8182 35.8984 80.7889 35.5859 80.7889C35.3613 80.7889 35.1563 80.8085 34.9512 80.8475C34.7461 80.8866 34.5508 80.955 34.3652 81.0331H34.3555C34.1699 81.1112 34.0039 81.2186 33.8477 81.3261C33.6914 81.4432 33.5449 81.58 33.4082 81.7362C33.2715 81.8925 33.1543 82.0682 33.0469 82.2733C32.9395 82.4784 32.8418 82.703 32.7637 82.9569C32.6855 83.2108 32.627 83.4745 32.5879 83.7577C32.5488 84.0409 32.5293 84.3436 32.5293 84.6561C32.5293 84.9784 32.5488 85.2811 32.5879 85.5643C32.627 85.8475 32.6855 86.121 32.7637 86.3749C32.8418 86.6288 32.9395 86.8632 33.0469 87.0682C33.1543 87.2733 33.2813 87.4589 33.418 87.6249C33.5547 87.7909 33.7109 87.9276 33.877 88.0546C34.0332 88.1718 34.209 88.2792 34.3945 88.3573L34.4043 88.3671C34.5801 88.4452 34.7754 88.5038 34.9707 88.5428C35.166 88.5819 35.3809 88.6014 35.6055 88.6014C35.8887 88.6014 36.1621 88.5624 36.416 88.494C36.6699 88.4257 36.9238 88.3182 37.1582 88.1815H37.168C37.3926 88.0448 37.5977 87.869 37.7832 87.6542C37.9688 87.4393 38.1348 87.1757 38.2813 86.8827V86.8729C38.418 86.58 38.5254 86.2479 38.5938 85.8866C38.6816 85.5253 38.7109 85.1151 38.7109 84.6659ZM45.8691 87.5663V89.3632C45.8691 89.8514 45.752 90.2225 45.5078 90.4764C45.3906 90.6034 45.2441 90.701 45.0977 90.7694C44.9414 90.8378 44.7754 90.8671 44.5898 90.8671C44.4141 90.8671 44.2383 90.8378 44.0918 90.7694C43.9355 90.701 43.7988 90.6034 43.6816 90.4764C43.5645 90.3495 43.4766 90.1835 43.418 89.9882C43.3594 89.8026 43.3301 89.5975 43.3301 89.3632V83.3768C43.3301 82.8495 43.4277 82.4491 43.6328 82.1757C43.8477 81.8827 44.1602 81.7264 44.5801 81.7264C44.7852 81.7264 44.9609 81.7655 45.1172 81.8241H45.127C45.2832 81.8925 45.4102 81.9999 45.5078 82.1464V82.1561C45.5957 82.2831 45.6641 82.4491 45.7129 82.6346L45.7324 82.703L45.8398 82.5663C45.9766 82.3905 46.123 82.2343 46.2695 82.1171C46.4258 81.9901 46.6016 81.8925 46.8066 81.8241C47.002 81.7655 47.2266 81.7264 47.4707 81.7264C47.7148 81.7264 47.9492 81.7557 48.1836 81.8143C48.418 81.8729 48.6523 81.9608 48.877 82.0878L48.8867 82.0975C49.1211 82.2245 49.2969 82.371 49.4238 82.5468L49.4336 82.5565C49.5605 82.7421 49.6191 82.9374 49.6191 83.162C49.6191 83.3182 49.5898 83.4647 49.541 83.6014C49.4824 83.7382 49.4043 83.8553 49.2871 83.9628L49.2773 83.9725C49.1699 84.0702 49.0625 84.1483 48.9453 84.1971C48.8184 84.2557 48.6914 84.2753 48.5645 84.2753C48.5059 84.2753 48.4277 84.2655 48.3105 84.2362C48.2227 84.2167 48.0859 84.1776 47.9297 84.119H47.9199C47.7832 84.08 47.6465 84.0409 47.5293 84.0214C47.4121 84.0018 47.2949 83.9921 47.1875 83.9921C47.0508 83.9921 46.9238 84.0116 46.8164 84.0409C46.709 84.0702 46.6211 84.1288 46.5332 84.1874H46.5234C46.4453 84.2557 46.3672 84.3436 46.3086 84.4413C46.2402 84.5487 46.1816 84.6757 46.1328 84.8221V84.8319C46.084 84.9784 46.0352 85.1444 46.0059 85.33C45.9668 85.5253 45.9375 85.7206 45.918 85.9354C45.8984 86.16 45.8789 86.4042 45.8691 86.6776C45.8691 86.9413 45.8691 87.2343 45.8691 87.5663ZM58.7109 83.5038V89.7538C58.7109 90.1151 58.6914 90.4569 58.6523 90.7792C58.6133 91.0917 58.5547 91.3846 58.4766 91.6581V91.6678C58.3984 91.9413 58.291 92.1854 58.1641 92.41L58.1543 92.4198C58.0273 92.6444 57.8711 92.8495 57.6953 93.0253L57.6855 93.035C57.5098 93.2108 57.3047 93.3671 57.0703 93.494C56.8359 93.621 56.582 93.7382 56.2891 93.8163C56.0059 93.9042 55.6934 93.9628 55.3418 94.0116C54.9902 94.0507 54.6094 94.0702 54.1992 94.0702C53.8184 94.0702 53.457 94.0409 53.1152 93.9921C52.7734 93.9335 52.4414 93.8553 52.1484 93.7479C51.8457 93.6405 51.582 93.5135 51.3379 93.3768C51.0938 93.2303 50.8887 93.0741 50.7227 92.8983C50.5469 92.7128 50.4199 92.537 50.332 92.3417C50.2441 92.1464 50.1953 91.951 50.1953 91.746C50.1953 91.5897 50.2246 91.4432 50.2734 91.3163C50.3223 91.1893 50.4102 91.0624 50.5176 90.9647C50.625 90.8671 50.7422 90.7889 50.8789 90.7401C51.0059 90.6913 51.1523 90.662 51.2988 90.662C51.4844 90.662 51.6699 90.701 51.8359 90.7889C52.002 90.8671 52.1484 90.994 52.2852 91.1503L52.6465 91.58C52.7051 91.6386 52.7539 91.6971 52.8223 91.7557C52.8809 91.8143 52.9492 91.8632 53.0176 91.912H53.0273C53.0859 91.951 53.1641 91.9901 53.2422 92.0292H53.252C53.3301 92.0585 53.4082 92.0878 53.5059 92.1073H53.5156C53.6133 92.1268 53.7109 92.1464 53.8184 92.1561C53.9258 92.1659 54.0527 92.1757 54.1895 92.1757C54.4531 92.1757 54.6973 92.1561 54.8926 92.1171C55.0879 92.078 55.2539 92.0292 55.3906 91.9608H55.4004C55.5273 91.8925 55.6445 91.8143 55.7324 91.7264C55.8203 91.6385 55.8984 91.5311 55.9473 91.4139C56.0059 91.287 56.0547 91.1503 56.084 91.0135C56.1133 90.8768 56.1426 90.7303 56.1523 90.5839C56.1621 90.4178 56.1719 90.2128 56.1816 89.9589L56.1914 89.6268C56.1231 89.6952 56.0645 89.7635 55.9961 89.8221C55.791 90.0077 55.5762 90.1639 55.3516 90.2909H55.3418C55.1074 90.4178 54.8633 90.5155 54.5898 90.5741C54.3164 90.6425 54.0234 90.6718 53.7109 90.6718C53.3301 90.6718 52.9785 90.6229 52.6465 90.5253C52.3145 90.4276 52.002 90.2811 51.7188 90.0858C51.4355 89.8905 51.1816 89.6561 50.9668 89.3827C50.752 89.1093 50.5664 88.8065 50.4102 88.455C50.2637 88.1132 50.1465 87.7421 50.0684 87.3417C49.9902 86.951 49.9609 86.5311 49.9609 86.0819C49.9609 85.7499 49.9805 85.4276 50.0293 85.1346C50.0781 84.8319 50.1465 84.5487 50.2344 84.2753C50.332 84.0018 50.4395 83.7479 50.5762 83.5135C50.7031 83.2889 50.8594 83.0741 51.0352 82.8885C51.2012 82.703 51.3867 82.537 51.5918 82.3905C51.7871 82.244 52.002 82.1268 52.2266 82.0292H52.2363C52.4609 81.9315 52.6953 81.8632 52.9395 81.8143C53.1836 81.7655 53.4375 81.746 53.7109 81.746C54.0234 81.746 54.3262 81.7753 54.6094 81.8436C54.8926 81.9022 55.1563 81.9999 55.3906 82.1268C55.625 82.2538 55.8594 82.41 56.0742 82.6053L56.084 82.6151C56.1719 82.6932 56.2695 82.7811 56.3574 82.8788C56.3672 82.7616 56.3965 82.6542 56.4258 82.5565C56.4844 82.3807 56.5625 82.2343 56.6699 82.1171C56.7773 81.9901 56.9141 81.9022 57.0508 81.8339C57.1973 81.7753 57.3535 81.7362 57.5195 81.7362C57.7539 81.7362 57.959 81.7753 58.125 81.8632C58.3008 81.951 58.4375 82.078 58.5254 82.2538C58.6035 82.41 58.6621 82.5956 58.7012 82.8104C58.7012 83.0057 58.7109 83.2401 58.7109 83.5038ZM52.4902 86.2284C52.4902 86.6483 52.5391 87.0096 52.627 87.3221C52.7148 87.6249 52.8418 87.8788 53.0176 88.0839C53.1934 88.2889 53.3887 88.4354 53.6035 88.5331C53.8281 88.6307 54.0723 88.6796 54.3457 88.6796C54.502 88.6796 54.6582 88.66 54.8145 88.6112C54.9707 88.5721 55.1172 88.5038 55.2637 88.4159C55.4102 88.328 55.5371 88.2206 55.6543 88.0936C55.7715 87.9667 55.8789 87.8104 55.9668 87.6249L55.9766 87.6151C56.0645 87.4393 56.1328 87.244 56.1816 87.0292C56.2305 86.8143 56.25 86.5702 56.25 86.3065C56.25 85.8866 56.2012 85.5155 56.1133 85.1932C56.0254 84.8807 55.8887 84.6073 55.7129 84.3827L55.7031 84.3729C55.5273 84.1581 55.332 84.0018 55.1172 83.8944C54.8926 83.787 54.6387 83.7284 54.3457 83.7284C54.0723 83.7284 53.8184 83.7772 53.6035 83.8846C53.3887 83.9921 53.1934 84.1483 53.0273 84.3534C52.8613 84.5682 52.7344 84.8319 52.6465 85.1346C52.5293 85.4569 52.4902 85.8182 52.4902 86.2284ZM66.084 89.744C65.8789 89.9003 65.6738 90.037 65.4688 90.1542C65.2051 90.3104 64.9512 90.4374 64.6973 90.5448H64.6875C64.4336 90.6522 64.1699 90.7303 63.8867 90.7792C63.6035 90.828 63.3008 90.8573 62.9883 90.8573C62.7051 90.8573 62.4219 90.828 62.168 90.7694C61.9043 90.7108 61.6699 90.6229 61.4453 90.5057C61.2207 90.3885 61.0254 90.2518 60.8496 90.0956L60.8398 90.0858C60.6641 89.9296 60.5273 89.7538 60.4004 89.5487C60.2734 89.3436 60.1855 89.1385 60.127 88.9139C60.0684 88.6893 60.0391 88.4647 60.0391 88.2303C60.0391 87.9178 60.0879 87.6151 60.1953 87.3417C60.293 87.0682 60.4492 86.8143 60.6543 86.5897L60.6641 86.58C60.8691 86.3553 61.1035 86.1698 61.3672 86.0233C61.6406 85.8768 61.9434 85.7694 62.2949 85.6913C62.8809 85.5643 63.4766 85.4471 64.0625 85.3202C64.2969 85.2714 64.5117 85.2225 64.6973 85.1737C64.9023 85.1249 65.1074 85.076 65.3125 85.0175L65.791 84.8807C65.7715 84.6757 65.7422 84.4901 65.7031 84.3436C65.6543 84.1581 65.5859 84.0116 65.4981 83.9042L65.4883 83.8944C65.4102 83.7968 65.293 83.7284 65.127 83.6698C64.9414 83.6112 64.6973 83.5819 64.3945 83.5819C64.1309 83.5819 63.9062 83.6014 63.7109 83.6307C63.5254 83.6698 63.3789 83.7186 63.2617 83.7772H63.252C63.1348 83.8456 63.0176 83.9237 62.9102 84.0311C62.8027 84.1385 62.7051 84.2557 62.6172 84.4022L62.373 84.7733C62.2949 84.8807 62.2363 84.9686 62.1875 85.0272C62.1191 85.1053 62.0215 85.1639 61.8945 85.1932C61.7871 85.2225 61.6602 85.2323 61.5137 85.2323C61.2207 85.2323 60.9668 85.1346 60.752 84.9491L60.7422 84.9393C60.6348 84.8417 60.5566 84.7342 60.5078 84.6171L60.4981 84.6073C60.4492 84.4803 60.4199 84.3534 60.4199 84.2069C60.4199 83.9921 60.459 83.787 60.5371 83.5819C60.6055 83.3768 60.7227 83.1815 60.8594 82.9862C61.0059 82.7909 61.1914 82.6151 61.416 82.4589C61.6406 82.3026 61.8945 82.1659 62.1973 82.0487C62.4902 81.9315 62.8223 81.8339 63.1934 81.7753C63.5645 81.7167 63.9648 81.6874 64.3945 81.6874C64.8731 81.6874 65.3125 81.7167 65.6934 81.7753C66.0742 81.8339 66.416 81.9217 66.6992 82.0389C66.9922 82.1561 67.2461 82.3124 67.4512 82.5077L67.4609 82.5175C67.666 82.7128 67.832 82.9374 67.9492 83.1913C68.0664 83.4452 68.1543 83.7479 68.2129 84.08C68.2715 84.412 68.3008 84.7831 68.3008 85.1932C68.3008 86.0135 68.291 86.8339 68.2812 87.6542C68.2812 88.035 68.3496 88.4452 68.4766 88.8651C68.5449 89.0897 68.5938 89.2655 68.6328 89.412C68.6719 89.5682 68.6914 89.6952 68.6914 89.7733C68.6914 89.91 68.6523 90.0468 68.5938 90.1835L68.584 90.1932C68.5254 90.3104 68.4277 90.4276 68.3105 90.5253C68.1934 90.6327 68.0566 90.7108 67.9199 90.7596C67.7832 90.8182 67.627 90.8378 67.4707 90.8378C67.334 90.8378 67.1875 90.8085 67.0605 90.7401C66.9336 90.6815 66.8066 90.5936 66.6895 90.4764C66.5723 90.369 66.4551 90.2323 66.3379 90.076C66.25 89.9979 66.1719 89.871 66.084 89.744ZM65.8008 86.619L65.459 86.7167C65.2246 86.7753 64.9609 86.8436 64.668 86.9022C64.2481 86.9901 63.8379 87.0878 63.418 87.1854C63.3203 87.2147 63.2227 87.2538 63.1348 87.3026C63.0371 87.3514 62.9395 87.4198 62.8516 87.4979C62.7734 87.5663 62.7051 87.6444 62.666 87.7421C62.627 87.8397 62.6074 87.9569 62.6074 88.0839C62.6074 88.2206 62.6367 88.3475 62.6856 88.455C62.7344 88.5721 62.8125 88.6796 62.9199 88.7675C63.0273 88.8651 63.1445 88.9335 63.2813 88.9823C63.418 89.0311 63.5742 89.0604 63.7598 89.0604C63.9551 89.0604 64.1504 89.0409 64.3262 88.9921C64.5117 88.953 64.6777 88.8846 64.8438 88.7967C65.0098 88.7089 65.1562 88.6112 65.2734 88.5038C65.3906 88.3964 65.4883 88.2792 65.5566 88.1522L65.5664 88.1425C65.6445 87.996 65.7129 87.8104 65.752 87.5663C65.8008 87.3124 65.8203 86.9999 65.8203 86.6385V86.619H65.8008ZM72.8223 82.8495C72.9199 82.7518 73.0078 82.6542 73.1055 82.576C73.3203 82.3807 73.5547 82.2245 73.7891 82.0975C74.0234 81.9706 74.2871 81.8827 74.5605 81.8143C74.834 81.7557 75.127 81.7264 75.4297 81.7264C75.7227 81.7264 76.0156 81.7557 76.2793 81.8241C76.5527 81.8925 76.8066 81.9901 77.041 82.1171L77.0508 82.1268C77.2852 82.2538 77.5 82.4198 77.666 82.6053L77.6758 82.6151C77.8516 82.8007 78.0078 83.0155 78.125 83.2596C78.2031 83.3964 78.2617 83.5428 78.3106 83.6893C78.3594 83.8456 78.3984 84.0018 78.418 84.1678V84.1776C78.4375 84.3339 78.457 84.5096 78.4668 84.7147C78.4766 84.9198 78.4863 85.1346 78.4863 85.3593V89.3632C78.4863 89.5975 78.457 89.8026 78.4082 89.9882C78.3496 90.1737 78.2617 90.3397 78.1445 90.4764C78.0273 90.6132 77.8906 90.7108 77.7344 90.7792C77.5781 90.8475 77.4121 90.8768 77.2266 90.8768C77.041 90.8768 76.8652 90.8475 76.709 90.7792C76.5527 90.7108 76.416 90.6132 76.2891 90.4764L76.2793 90.4667C76.1621 90.3397 76.084 90.1737 76.0254 89.9979C75.9668 89.8221 75.9375 89.6073 75.9375 89.3827V85.7987C75.9375 85.4569 75.9082 85.1542 75.8691 84.9003C75.8203 84.6464 75.752 84.4413 75.6641 84.2655L75.6543 84.2557C75.5762 84.119 75.459 84.0116 75.3125 83.9335L75.293 83.9237C75.127 83.8456 74.9121 83.8065 74.6582 83.8065C74.4824 83.8065 74.3262 83.8358 74.1699 83.8846C74.0137 83.9335 73.8672 84.0116 73.7207 84.1093C73.584 84.2069 73.457 84.3339 73.3496 84.4706C73.2422 84.6073 73.1641 84.7733 73.0957 84.9491C73.0469 85.0956 73.0078 85.3104 72.9883 85.5936C72.959 85.8866 72.9492 86.2479 72.9492 86.6776V89.3729C72.9492 89.6073 72.9199 89.8221 72.8613 89.9979C72.8027 90.1932 72.7148 90.3495 72.5879 90.4862C72.4609 90.6132 72.3242 90.7206 72.168 90.7792L72.1484 90.7889C72.002 90.8475 71.8359 90.8768 71.6602 90.8768C71.4746 90.8768 71.3086 90.8378 71.1621 90.7792L71.1523 90.7694C71.0059 90.701 70.8691 90.6034 70.7617 90.4764C70.6445 90.3397 70.5566 90.1835 70.4981 89.9882C70.4395 89.8124 70.4102 89.5975 70.4102 89.3729V83.1522C70.4102 82.9276 70.4395 82.7323 70.4883 82.5663C70.5371 82.3807 70.6152 82.2342 70.7324 82.1073L70.7422 82.0975C70.8496 81.9803 70.9766 81.8925 71.1133 81.8339C71.2598 81.7753 71.4258 81.746 71.6016 81.746C71.709 81.746 71.8164 81.7557 71.9238 81.785C72.0313 81.8143 72.1289 81.8534 72.2168 81.9022C72.3145 81.9608 72.3926 82.0292 72.4707 82.1073C72.5391 82.1854 72.6074 82.2831 72.6563 82.3807C72.7051 82.4882 72.7539 82.6053 72.7734 82.7323L72.8223 82.8495ZM83.1836 83.1425V89.3632C83.1836 89.8417 83.0664 90.2128 82.8223 90.4764C82.7051 90.6034 82.5586 90.7108 82.4121 90.7694H82.4023C82.2461 90.828 82.0801 90.8671 81.9043 90.8671C81.7188 90.8671 81.5527 90.8378 81.3965 90.7694C81.2402 90.701 81.1035 90.6034 80.9863 90.4667C80.8691 90.33 80.7813 90.1737 80.7227 89.9784C80.6641 89.7928 80.6445 89.5878 80.6445 89.3632V83.2108C80.6445 82.9764 80.6738 82.7714 80.7227 82.5956C80.7813 82.41 80.8691 82.244 80.9863 82.1171C81.1035 81.9901 81.2402 81.8925 81.3965 81.8241C81.5527 81.7557 81.7188 81.7264 81.9043 81.7264C82.0899 81.7264 82.2559 81.7557 82.4121 81.8241C82.5684 81.8925 82.7051 81.9803 82.8223 82.1073C82.9492 82.2342 83.0371 82.3905 83.0957 82.5663C83.1543 82.7421 83.1836 82.9374 83.1836 83.1425ZM81.9238 81.121C81.7578 81.121 81.5918 81.0917 81.4453 81.0428C81.2988 80.994 81.1621 80.9061 81.0352 80.7987C80.9082 80.6913 80.8106 80.5546 80.752 80.3983C80.6934 80.2421 80.6543 80.0663 80.6543 79.8807C80.6543 79.705 80.6836 79.5389 80.752 79.3925C80.8203 79.246 80.918 79.1093 81.0449 78.9921C81.1719 78.8749 81.3086 78.787 81.4551 78.7382C81.6016 78.6796 81.7676 78.6503 81.9336 78.6503C82.0898 78.6503 82.2461 78.6796 82.3926 78.7284C82.5391 78.7772 82.6758 78.8553 82.793 78.9628C82.9297 79.0702 83.0273 79.2069 83.0957 79.3729C83.1543 79.5292 83.1934 79.705 83.1934 79.9003C83.1934 80.0858 83.1641 80.2616 83.0957 80.4178C83.0371 80.5741 82.9395 80.7108 82.8125 80.828C82.6856 80.9354 82.5586 81.0233 82.4121 81.0721C82.2461 81.0917 82.0898 81.121 81.9238 81.121ZM93.5254 88.0057C93.5254 88.1522 93.5059 88.3085 93.457 88.4745C93.418 88.6307 93.3496 88.7968 93.2617 88.953V88.9628C93.1738 89.1288 93.0664 89.285 92.9395 89.4315L92.9297 89.4413C92.8027 89.5975 92.6465 89.7342 92.4805 89.8807C92.3047 90.0272 92.1094 90.1639 91.8848 90.2811C91.6699 90.3983 91.4356 90.496 91.1719 90.5839C90.9082 90.6717 90.6348 90.7401 90.3418 90.7792C90.0488 90.8182 89.7461 90.8475 89.4238 90.8475C88.0371 90.8475 86.9531 90.4374 86.1719 89.6268C85.7812 89.2167 85.4785 88.7479 85.2832 88.201C85.0879 87.6639 84.9902 87.0487 84.9902 86.3749C84.9902 85.9257 85.0293 85.496 85.1172 85.0858C85.2051 84.6757 85.3418 84.2948 85.5176 83.9432C85.6934 83.5917 85.918 83.2694 86.1816 82.996C86.4453 82.7225 86.7383 82.4882 87.0801 82.2928C87.4219 82.0975 87.793 81.951 88.1934 81.8534C88.5938 81.7557 89.0332 81.7069 89.4922 81.7069C89.7754 81.7069 90.0586 81.7264 90.3223 81.7753C90.5859 81.8143 90.8496 81.8827 91.0938 81.9706C91.3281 82.0585 91.5527 82.1561 91.7676 82.2635C91.9727 82.371 92.1582 82.4979 92.334 82.6346C92.5098 82.7714 92.6563 82.9081 92.7832 83.0546C92.9102 83.201 93.0273 83.3573 93.1152 83.5135L93.125 83.5233C93.2129 83.6796 93.2812 83.826 93.3301 83.9725C93.3789 84.1288 93.4082 84.2753 93.4082 84.4218C93.4082 84.578 93.3789 84.7245 93.3203 84.8612C93.2617 84.9979 93.1738 85.1151 93.0566 85.2225C92.9395 85.33 92.8125 85.4081 92.6758 85.4667C92.5391 85.5155 92.3828 85.5448 92.2266 85.5448C92.1191 85.5448 92.0215 85.535 91.9238 85.5057C91.8262 85.4764 91.7383 85.4276 91.6602 85.369C91.5918 85.3202 91.5234 85.2518 91.4453 85.1639C91.377 85.0858 91.2988 84.9882 91.2207 84.8807V84.871C91.0938 84.6757 90.9668 84.5096 90.8398 84.3729C90.7129 84.2362 90.5859 84.119 90.459 84.0311C90.332 83.9432 90.1856 83.8749 90.0293 83.8358C89.8633 83.7968 89.6777 83.7675 89.4824 83.7675C89.1992 83.7675 88.9355 83.826 88.7109 83.9335C88.4863 84.0409 88.2813 84.2167 88.1055 84.4315C87.9297 84.6561 87.793 84.9296 87.7051 85.2421C87.6172 85.5643 87.5684 85.9257 87.5684 86.3456C87.5684 86.5409 87.5781 86.7264 87.6074 86.9022C87.627 87.078 87.666 87.244 87.7148 87.41C87.7637 87.5663 87.8223 87.7128 87.8809 87.8495L87.8906 87.8592C87.959 87.9862 88.0274 88.1034 88.1152 88.2108C88.2031 88.3182 88.291 88.4159 88.3984 88.494C88.4961 88.5721 88.6133 88.6405 88.7305 88.6991C88.8477 88.7577 88.9746 88.7968 89.1113 88.8261C89.2383 88.8553 89.3848 88.8651 89.5313 88.8651C89.7266 88.8651 89.9121 88.8456 90.0781 88.7967C90.2441 88.7479 90.3906 88.6893 90.5273 88.6014C90.6641 88.5135 90.8008 88.3964 90.9277 88.2596C91.0547 88.1132 91.1719 87.9471 91.2891 87.7518V87.7421C91.3574 87.6151 91.4258 87.5077 91.5039 87.41L91.5137 87.4003C91.5918 87.2928 91.6699 87.2147 91.7578 87.1366H91.7676C91.8555 87.0585 91.9629 86.9901 92.0801 86.951H92.0899C92.1973 86.912 92.3242 86.8925 92.4512 86.8925C92.6074 86.8925 92.7539 86.9217 92.8906 86.9901C93.0273 87.0585 93.1445 87.1464 93.252 87.2635C93.3496 87.3807 93.4277 87.4979 93.4766 87.6249L93.4863 87.6346C93.5059 87.7518 93.5254 87.8788 93.5254 88.0057Z" fill="#51A148"/>
</g>
<defs>
<clipPath id="clip0_114_415">
<rect width="120" height="120" fill="white" transform="translate(0 0.466675)"/>
</clipPath>
</defs>
</svg>
