<svg width="153" height="50" viewBox="0 0 153 50" fill="none" xmlns="http://www.w3.org/2000/svg">
<path d="M140.649 0H12.1939C11.7249 0 11.2559 0 10.7869 0C10.392 0 9.99701 9.16939e-08 9.60207 0.0241314C8.73813 0.0241314 7.89887 0.0965251 7.03493 0.241313C6.19568 0.3861 5.38111 0.651545 4.6159 1.01351C3.8507 1.39961 3.15955 1.88224 2.54245 2.48552C1.92535 3.06467 1.43167 3.76448 1.03673 4.51255C0.641784 5.26062 0.37026 6.05695 0.24684 6.87741C0.0987359 7.69788 0.0246841 8.54247 0.0246841 9.38707C0.0246841 9.77317 0 10.1593 0 10.5454V39.4064C0 39.7925 9.37941e-08 40.1786 0.0246841 40.5647C0.0246841 41.4093 0.12342 42.2297 0.24684 43.0743C0.394944 43.8948 0.666468 44.7152 1.03673 45.4633C1.43167 46.2114 1.92535 46.8871 2.54245 47.4903C3.13487 48.0936 3.8507 48.5763 4.6159 48.9624C5.38111 49.3485 6.19568 49.6139 7.03493 49.7587C7.87419 49.9035 8.73813 49.9759 9.60207 49.9759C9.99701 49.9759 10.392 50 10.7869 50C11.2559 50 11.7249 50 12.1939 50H140.649C141.118 50 141.563 50 142.032 50C142.427 50 142.821 50 143.216 49.9759C144.08 49.9759 144.92 49.9035 145.759 49.7587C146.598 49.6139 147.437 49.3485 148.203 48.9624C148.968 48.5763 149.659 48.0936 150.276 47.4903C150.893 46.9112 151.387 46.2114 151.782 45.4633C152.177 44.7152 152.424 43.9189 152.572 43.0743C152.72 42.2539 152.794 41.4093 152.819 40.5647C152.819 40.1786 152.819 39.7925 152.819 39.4064C152.819 38.9479 152.819 38.5135 152.819 38.0309V11.9208C152.819 11.4624 152.819 11.0039 152.819 10.5695C152.819 10.1834 152.819 9.7973 152.819 9.4112C152.794 8.5666 152.72 7.74614 152.572 6.90154C152.424 6.08108 152.177 5.28475 151.782 4.53668C150.992 3.01641 149.733 1.80985 148.203 1.03764C147.437 0.651544 146.623 0.3861 145.759 0.265444C144.92 0.120656 144.056 0.0482627 143.216 0.0482627C142.821 0.0482627 142.427 0.0241314 142.032 0.0241314C141.587 9.16939e-08 141.118 0 140.649 0Z" fill="black"/>
<path d="M10.8116 48.842C10.4167 48.842 10.0464 48.842 9.6515 48.8179C8.86161 48.8179 8.04704 48.7455 7.25715 48.6248C6.51663 48.5042 5.8008 48.2629 5.13433 47.9492C4.46786 47.6113 3.87545 47.2011 3.35708 46.6702C2.83872 46.1634 2.39441 45.5843 2.04883 44.9327C1.70326 44.2812 1.4811 43.5814 1.35768 42.8575C1.23426 42.0853 1.16021 41.313 1.13552 40.5167C1.13552 40.2513 1.11084 39.3825 1.11084 39.3825V10.5457C1.11084 10.5457 1.11084 9.67695 1.13552 9.43564C1.13552 8.66344 1.20958 7.86711 1.35768 7.09491C1.4811 6.37097 1.70326 5.67116 2.04883 5.01962C2.36972 4.36807 2.81403 3.78892 3.35708 3.28217C3.87545 2.77541 4.49255 2.34105 5.15901 2.00321C5.82548 1.66537 6.54132 1.44819 7.28184 1.32753C8.07172 1.20688 8.88629 1.13448 9.67618 1.13448L10.8363 1.11035H142.056L143.217 1.13448C144.006 1.13448 144.796 1.20688 145.586 1.32753C146.327 1.44819 147.043 1.6895 147.709 2.00321C149.042 2.67888 150.103 3.71653 150.794 5.01962C151.115 5.67116 151.362 6.37097 151.486 7.07078C151.609 7.84298 151.683 8.63931 151.708 9.43564C151.708 9.79761 151.708 10.1596 151.708 10.5457C151.708 11.0042 151.708 11.4627 151.708 11.897V38.0312C151.708 38.4897 151.708 38.9241 151.708 39.3825C151.708 39.7928 151.708 40.1548 151.708 40.5409C151.683 41.313 151.609 42.0853 151.486 42.8575C151.362 43.5814 151.14 44.2812 150.794 44.9327C150.449 45.5843 150.029 46.1634 149.486 46.6702C148.968 47.1769 148.351 47.6113 147.709 47.9492C147.043 48.287 146.327 48.5042 145.586 48.6248C144.796 48.7455 144.006 48.8179 143.192 48.8179C142.822 48.8179 142.427 48.842 142.056 48.842H140.674H10.8116Z" fill="white"/>
<path d="M31.9411 24.8316C31.9658 22.6357 33.1506 20.5845 35.0759 19.4503C33.8664 17.7612 31.8917 16.7235 29.7689 16.6511C27.5473 16.4339 25.3751 17.9542 24.2397 17.9542C23.0795 17.9542 21.327 16.6752 19.451 16.6994C16.9826 16.7718 14.7117 18.1231 13.5022 20.2467C10.935 24.5903 12.8604 30.9851 15.3041 34.4841C16.5383 36.1974 17.97 38.128 19.8459 38.0556C21.6972 37.9832 22.3637 36.8973 24.6099 36.8973C26.8068 36.8973 27.4486 38.0556 29.3739 38.0073C31.3487 37.9832 32.6076 36.2698 33.7924 34.5324C34.681 33.3017 35.3475 31.9503 35.8165 30.5266C33.4715 29.5855 31.9411 27.3413 31.9411 24.8316Z" fill="black"/>
<path d="M28.3125 14.334C29.3986 13.0792 29.9169 11.4383 29.7935 9.79736C28.1397 9.96628 26.6339 10.7385 25.5232 11.945C24.4371 13.1516 23.894 14.7201 23.9928 16.3128C25.696 16.3369 27.2757 15.613 28.3125 14.334Z" fill="black"/>
<path d="M54.0332 33.8803H47.9856L46.5293 38.0792H43.9622L49.6888 22.5869H52.3547L58.0814 38.0792H55.4896L54.0332 33.8803ZM48.6274 31.9498H53.4161L51.0465 25.1448H50.9724L48.6274 31.9498Z" fill="black"/>
<path d="M70.4481 32.4326C70.4481 35.9558 68.5228 38.2 65.6347 38.2C64.129 38.2724 62.722 37.5002 62.0062 36.2212H61.9568V41.8197H59.5872V26.7859H61.8828V28.6681H61.9321C62.6973 27.3892 64.1043 26.617 65.6101 26.6652C68.5228 26.6652 70.4481 28.9336 70.4481 32.4326ZM68.0044 32.4326C68.0044 30.1401 66.7949 28.644 64.9436 28.644C63.1417 28.644 61.9075 30.1884 61.9075 32.4326C61.9075 34.7009 63.117 36.2453 64.9436 36.2453C66.7949 36.2212 68.0044 34.7251 68.0044 32.4326Z" fill="black"/>
<path d="M83.1849 32.4326C83.1849 35.9558 81.2596 38.2 78.3716 38.2C76.8658 38.2724 75.4588 37.5002 74.743 36.2212H74.6936V41.8197H72.324V26.7859H74.6196V28.6681H74.669C75.4342 27.3892 76.8411 26.617 78.3469 26.6652C81.2349 26.6652 83.1849 28.9336 83.1849 32.4326ZM80.7412 32.4326C80.7412 30.1401 79.5317 28.644 77.6804 28.644C75.8785 28.644 74.6443 30.1884 74.6443 32.4326C74.6443 34.7009 75.8538 36.2453 77.6804 36.2453C79.5317 36.2212 80.7412 34.7251 80.7412 32.4326Z" fill="black"/>
<path d="M91.5774 33.7598C91.7502 35.3042 93.2806 36.3177 95.3788 36.3177C97.3782 36.3177 98.8098 35.3042 98.8098 33.9287C98.8098 32.7222 97.9459 31.9982 95.8971 31.5156L93.8484 31.033C90.9356 30.3573 89.578 29.0059 89.578 26.8583C89.578 24.1797 91.9724 22.3457 95.3541 22.3457C98.7111 22.3457 101.007 24.1797 101.081 26.8583H98.6864C98.5383 25.3139 97.2301 24.3727 95.3294 24.3727C93.4287 24.3727 92.1205 25.3139 92.1205 26.6893C92.1205 27.7752 92.9597 28.4268 95.0085 28.9335L96.7611 29.3438C100.019 30.0918 101.377 31.3708 101.377 33.6391C101.377 36.5349 99.0073 38.3447 95.2553 38.3447C91.7502 38.3447 89.3559 36.559 89.2078 33.7598H91.5774Z" fill="black"/>
<path d="M106.437 24.1074V26.786H108.634V28.62H106.437V34.8458C106.437 35.8111 106.882 36.2696 107.844 36.2696C108.116 36.2696 108.363 36.2455 108.634 36.2213V38.0553C108.19 38.1277 107.77 38.176 107.326 38.1518C104.981 38.1518 104.068 37.2831 104.068 35.1113V28.6441H102.389V26.8101H104.068V24.1316H106.437V24.1074Z" fill="black"/>
<path d="M109.918 32.4326C109.918 28.8853 112.065 26.6411 115.398 26.6411C118.755 26.6411 120.878 28.8853 120.878 32.4326C120.878 36.004 118.755 38.2241 115.398 38.2241C112.041 38.2241 109.918 36.004 109.918 32.4326ZM118.458 32.4326C118.458 29.9954 117.323 28.5475 115.398 28.5475C113.472 28.5475 112.337 29.9954 112.337 32.4326C112.337 34.8699 113.472 36.3178 115.398 36.3178C117.323 36.3178 118.458 34.8699 118.458 32.4326Z" fill="black"/>
<path d="M122.827 26.7857H125.098V28.7162H125.148C125.469 27.4855 126.629 26.6167 127.937 26.665C128.209 26.665 128.48 26.6891 128.752 26.7615V28.9333C128.406 28.8368 128.036 28.7886 127.69 28.7886C126.382 28.7403 125.246 29.7297 125.197 31.0328C125.197 31.1534 125.197 31.2741 125.222 31.3947V38.1032H122.827V26.7857Z" fill="black"/>
<path d="M139.687 34.7494C139.366 36.8006 137.317 38.2002 134.701 38.2002C131.343 38.2002 129.245 36.0043 129.245 32.457C129.245 28.9097 131.344 26.6172 134.602 26.6172C137.811 26.6172 139.81 28.7649 139.81 32.1915V32.9878H131.64V33.1326C131.492 34.7494 132.726 36.1732 134.38 36.318C134.503 36.318 134.626 36.3421 134.75 36.318C135.91 36.4145 136.996 35.7871 137.416 34.7253L139.687 34.7494ZM131.664 31.3952H137.44C137.514 29.899 136.354 28.6201 134.824 28.5236C134.75 28.5236 134.676 28.5236 134.602 28.5236C132.997 28.5236 131.664 29.7784 131.664 31.371C131.664 31.371 131.664 31.371 131.664 31.3952Z" fill="black"/>
<path d="M47.2997 10.9074C49.1115 10.7867 50.7059 12.1381 50.8267 13.9479C50.8508 14.1651 50.8267 14.3823 50.8025 14.5995C50.8025 16.9885 49.5222 18.3398 47.2997 18.3398H44.5941V10.9074H47.2997ZM45.7537 17.3022H47.1548C48.4351 17.3746 49.5463 16.3852 49.643 15.1062C49.643 14.9373 49.643 14.7925 49.6188 14.6236C49.7879 13.3447 48.8941 12.1622 47.6138 11.9692C47.4688 11.945 47.3239 11.945 47.1548 11.945H45.7537V17.3022Z" fill="black"/>
<path d="M52.1069 15.5405C51.962 14.0685 53.0491 12.7655 54.4985 12.6448C55.9721 12.5 57.2766 13.5859 57.3973 15.0338C57.4215 15.2027 57.4215 15.3716 57.3973 15.5405C57.5423 17.0126 56.4794 18.3156 55.0058 18.4604C53.5322 18.6052 52.2277 17.5434 52.0828 16.0714C52.0828 15.8784 52.0828 15.7095 52.1069 15.5405ZM56.262 15.5405C56.262 14.334 55.7063 13.61 54.7642 13.61C53.7979 13.61 53.2665 14.334 53.2665 15.5405C53.2665 16.7712 53.7979 17.471 54.7642 17.471C55.7305 17.471 56.262 16.7712 56.262 15.5405Z" fill="black"/>
<path d="M64.4756 18.3638H63.316L62.1565 14.2132H62.0599L60.9003 18.3638H59.7649L58.2189 12.7412H59.3543L60.3689 17.0366H60.4413L61.6009 12.7412H62.6638L63.8233 17.0366H63.92L64.9346 12.7412H66.0458L64.4756 18.3638Z" fill="black"/>
<path d="M67.3262 12.7415H68.3891V13.6343H68.4615C68.7514 12.9828 69.4278 12.5726 70.1525 12.645C71.1672 12.5726 72.0368 13.3206 72.1093 14.3342C72.1093 14.4789 72.1093 14.5996 72.0851 14.7444V18.3882H70.9739V14.9857C70.9739 14.0928 70.5874 13.6343 69.766 13.6343C69.0655 13.6102 68.4615 14.1411 68.4132 14.865C68.4132 14.9374 68.4132 14.9857 68.4132 15.0581V18.3399H67.302L67.3262 12.7415Z" fill="black"/>
<path d="M73.8726 10.5454H74.9838V18.3639H73.8726V10.5454Z" fill="black"/>
<path d="M76.5298 15.5405C76.3848 14.0685 77.4719 12.7655 78.9213 12.6448C80.3949 12.5 81.6994 13.5859 81.8202 15.0338C81.8444 15.2027 81.8444 15.3716 81.8202 15.5405C81.9651 17.0126 80.8781 18.3156 79.4286 18.4604C77.955 18.6052 76.6506 17.5193 76.5056 16.0714C76.5056 15.8784 76.5056 15.7095 76.5298 15.5405ZM80.6848 15.5405C80.6848 14.334 80.1292 13.61 79.1871 13.61C78.2208 13.61 77.6893 14.334 77.6893 15.5405C77.6893 16.7712 78.2208 17.471 79.1871 17.471C80.1292 17.471 80.6848 16.7712 80.6848 15.5405Z" fill="black"/>
<path d="M83.0041 16.7712C83.0041 15.7577 83.753 15.1785 85.1058 15.082L86.6277 14.9855V14.5028C86.6277 13.8996 86.2412 13.5859 85.4682 13.5859C84.8401 13.5859 84.4294 13.803 84.2845 14.2133H83.1974C83.3182 13.248 84.212 12.6206 85.4923 12.6206C86.8934 12.6206 87.6906 13.3204 87.6906 14.5028V18.3397H86.6277V17.5434H86.5311C86.1687 18.1225 85.5165 18.4604 84.8401 18.4362C83.898 18.5328 83.0766 17.8571 82.98 16.916C83.0041 16.8918 83.0041 16.8194 83.0041 16.7712ZM86.6277 16.2886V15.8059L85.2508 15.9025C84.4777 15.9507 84.1154 16.2162 84.1154 16.7229C84.1154 17.2297 84.5502 17.5193 85.1541 17.5193C85.8788 17.5916 86.5311 17.0608 86.6036 16.3368C86.6036 16.3127 86.6036 16.3127 86.6277 16.2886Z" fill="black"/>
<path d="M89.1882 15.5406C89.1882 13.7549 90.1062 12.6448 91.5315 12.6448C92.2562 12.6207 92.9326 13.0068 93.2466 13.6342H93.3191V10.5454H94.4303V18.3639H93.3674V17.4711H93.2708C92.9084 18.0985 92.232 18.4846 91.5073 18.4605C90.0821 18.4605 89.1882 17.3263 89.1882 15.5406ZM90.3236 15.5406C90.3236 16.723 90.8792 17.447 91.8214 17.447C92.7635 17.447 93.3433 16.723 93.3433 15.5406C93.3433 14.3582 92.7635 13.6342 91.8214 13.6342C90.9034 13.6342 90.3236 14.3582 90.3236 15.5406Z" fill="black"/>
<path d="M99.0202 15.5405C98.8753 14.0685 99.9624 12.7655 101.412 12.6448C102.885 12.5 104.19 13.5859 104.311 15.0338C104.335 15.2027 104.335 15.3716 104.311 15.5405C104.456 17.0126 103.393 18.3156 101.919 18.4604C100.446 18.6052 99.141 17.5434 98.9961 16.0714C99.0203 15.8784 99.0202 15.7095 99.0202 15.5405ZM103.199 15.5405C103.199 14.334 102.644 13.61 101.702 13.61C100.735 13.61 100.204 14.334 100.204 15.5405C100.204 16.7712 100.735 17.471 101.702 17.471C102.644 17.471 103.199 16.7712 103.199 15.5405Z" fill="black"/>
<path d="M105.833 12.7415H106.896V13.6343H106.968C107.258 12.9828 107.934 12.5726 108.659 12.645C109.674 12.5726 110.543 13.3206 110.616 14.3342C110.616 14.4789 110.616 14.5996 110.592 14.7444V18.3882H109.48V14.9857C109.48 14.0928 109.094 13.6343 108.273 13.6343C107.572 13.6102 106.968 14.1411 106.92 14.865C106.92 14.9374 106.92 14.9857 106.92 15.0581V18.3399H105.808V12.7415H105.833Z" fill="black"/>
<path d="M116.872 11.3418V12.7655H118.08V13.7067H116.872V16.6024C116.872 17.1816 117.114 17.447 117.67 17.447C117.815 17.447 117.959 17.447 118.104 17.4229V18.3399C117.911 18.364 117.694 18.3881 117.5 18.3881C116.268 18.3881 115.785 17.9538 115.785 16.8679V13.7067H114.891V12.7655H115.785V11.3418H116.872Z" fill="black"/>
<path d="M119.626 10.5454H120.738V13.6342H120.834C121.148 12.9827 121.825 12.5724 122.549 12.6207C123.564 12.5724 124.434 13.3446 124.506 14.3582C124.506 14.4788 124.506 14.5995 124.482 14.696V18.3157H123.347V15.0097C123.347 14.1168 122.936 13.6583 122.139 13.6583C121.414 13.6101 120.786 14.141 120.713 14.8649C120.713 14.9373 120.713 15.0097 120.713 15.0821V18.3639H119.602L119.626 10.5454Z" fill="black"/>
<path d="M130.932 16.8436C130.618 17.9054 129.603 18.581 128.492 18.4604C127.091 18.5086 125.907 17.3745 125.859 15.9749C125.859 15.8301 125.859 15.6853 125.883 15.5646C125.69 14.1409 126.68 12.8378 128.106 12.6447C128.226 12.6206 128.347 12.6206 128.468 12.6206C130.038 12.6206 130.98 13.6824 130.98 15.444V15.8301H127.019V15.9025C126.946 16.7229 127.55 17.4469 128.371 17.5193C128.42 17.5193 128.468 17.5193 128.516 17.5193C129.048 17.5916 129.579 17.3262 129.845 16.8436H130.932ZM127.019 15.0337H129.869C129.917 14.2857 129.362 13.6341 128.613 13.5859C128.565 13.5859 128.516 13.5859 128.492 13.5859C127.695 13.5859 127.043 14.2133 127.043 15.0096C127.019 15.0096 127.019 15.0096 127.019 15.0337Z" fill="black"/>
</svg>
