<svg width="170" height="51" viewBox="0 0 170 51" fill="none" xmlns="http://www.w3.org/2000/svg">
<g clip-path="url(#clip0_124_81)">
<path d="M163.316 50.5938H7.07166C3.6342 50.5938 0.821777 47.7814 0.821777 44.3439V6.84461C0.821777 3.40715 3.6342 0.594727 7.07166 0.594727H163.316C166.754 0.594727 169.566 3.40715 169.566 6.84461V44.3439C169.566 47.7814 166.754 50.5938 163.316 50.5938Z" fill="white"/>
<path d="M163.316 0.594727H7.07166C3.6342 0.594727 0.821777 3.40715 0.821777 6.84461V44.3439C0.821777 47.7814 3.6342 50.5938 7.07166 50.5938H163.316C166.754 50.5938 169.566 47.7814 169.566 44.3439V6.84461C169.566 3.40715 166.754 0.594727 163.316 0.594727ZM163.316 1.5942C166.211 1.5942 168.566 3.94969 168.566 6.84461V44.3439C168.566 47.2388 166.211 49.5943 163.316 49.5943H7.07166C4.17674 49.5943 1.82228 47.2388 1.82228 44.3439V6.84461C1.82228 3.94969 4.17674 1.5942 7.07166 1.5942H163.316Z" fill="black"/>
<path d="M134.488 38.0938H136.821V22.4666H134.488V38.0938ZM155.497 28.0963L152.823 34.8711H152.743L149.968 28.0963H147.456L151.618 37.5651L149.244 42.8325H151.677L158.091 28.0967L155.497 28.0963ZM142.268 36.3188C141.506 36.3188 140.44 35.9364 140.44 34.9916C140.44 33.7855 141.767 33.3232 142.912 33.3232C143.937 33.3232 144.421 33.5439 145.044 33.8456C144.862 35.2933 143.616 36.3188 142.268 36.3188ZM142.551 27.7545C140.862 27.7545 139.114 28.4986 138.39 30.1471L140.46 31.0113C140.902 30.1471 141.726 29.8659 142.591 29.8659C143.797 29.8659 145.023 30.589 145.043 31.8761V32.0367C144.621 31.7954 143.716 31.4337 142.611 31.4337C140.378 31.4337 138.107 32.6597 138.107 34.9516C138.107 37.0424 139.937 38.3895 141.987 38.3895C143.555 38.3895 144.421 37.6859 144.962 36.8613H145.043V38.0682H147.296V32.0766C147.296 29.3023 145.223 27.7545 142.551 27.7545ZM128.136 29.9986H124.818V24.6423H128.136C129.88 24.6423 130.87 26.0857 130.87 27.3204C130.87 28.5314 129.88 29.9986 128.136 29.9986ZM128.076 22.4669H122.487V38.0942H124.819V32.174H128.076C130.661 32.174 133.202 30.3029 133.202 27.321C133.202 24.3396 130.661 22.4669 128.076 22.4669ZM97.6004 36.3214C95.989 36.3214 94.6404 34.9718 94.6404 33.1198C94.6404 31.2463 95.989 29.8776 97.6004 29.8776C99.1912 29.8776 100.44 31.2464 100.44 33.1198C100.44 34.9718 99.1912 36.3214 97.6004 36.3214ZM100.279 28.9711H100.198C99.6746 28.3469 98.6672 27.7831 97.3992 27.7831C94.7405 27.7831 92.304 30.1194 92.304 33.1198C92.304 36.0998 94.7405 38.4156 97.3992 38.4156C98.6672 38.4156 99.6745 37.8516 100.198 37.2076H100.279V37.9722C100.279 40.0069 99.1912 41.0937 97.4392 41.0937C96.01 41.0937 95.1239 40.0669 94.7611 39.2011L92.7275 40.0468C93.311 41.4559 94.8612 43.1884 97.4393 43.1884C100.179 43.1884 102.494 41.577 102.494 37.6499V28.1051H100.279L100.279 28.9711ZM104.106 38.0934H106.441V22.4661H104.106V38.0934ZM109.884 32.9382C109.824 30.884 111.476 29.8371 112.664 29.8371C113.59 29.8371 114.375 30.3005 114.638 30.9646L109.884 32.9382ZM117.134 31.1658C116.691 29.9783 115.342 27.7831 112.583 27.7831C109.844 27.7831 107.569 29.9377 107.569 33.0994C107.569 36.0798 109.824 38.4157 112.844 38.4157C115.281 38.4157 116.691 36.926 117.275 36.0597L115.463 34.8513C114.859 35.7375 114.033 36.3215 112.844 36.3215C111.657 36.3215 110.811 35.7776 110.268 34.7103L117.375 31.7704L117.134 31.1658ZM60.5 29.4143V31.6697H65.8967C65.7356 32.9383 65.3128 33.8645 64.6682 34.509C63.8826 35.2941 62.6542 36.1603 60.4999 36.1603C57.1771 36.1603 54.5796 33.4822 54.5796 30.1594C54.5796 26.8367 57.1771 24.1582 60.4999 24.1582C62.2922 24.1582 63.6009 24.8632 64.5676 25.7694L66.1589 24.1782C64.8092 22.8896 63.0173 21.9028 60.4999 21.9028C55.9481 21.9028 52.1221 25.6082 52.1221 30.1594C52.1221 34.7102 55.9481 38.4157 60.4999 38.4157C62.9564 38.4157 64.8093 37.6101 66.259 36.0999C67.7493 34.6096 68.2126 32.5154 68.2126 30.8236C68.2126 30.3006 68.172 29.8173 68.0915 29.4143H60.5ZM74.3488 36.3214C72.7375 36.3214 71.3479 34.9923 71.3479 33.0994C71.3479 31.1863 72.7375 29.8777 74.3488 29.8777C75.9596 29.8777 77.3491 31.1863 77.3491 33.0994C77.3491 34.9923 75.9596 36.3214 74.3488 36.3214ZM74.3488 27.7831C71.4079 27.7831 69.0119 30.0183 69.0119 33.0994C69.0119 36.1603 71.4079 38.4157 74.3488 38.4157C77.2887 38.4157 79.6851 36.1603 79.6851 33.0994C79.6851 30.0183 77.2887 27.7831 74.3488 27.7831ZM85.9898 36.3214C84.3796 36.3214 82.9895 34.9923 82.9895 33.0994C82.9895 31.1863 84.3797 29.8777 85.9898 29.8777C87.6012 29.8777 88.9903 31.1863 88.9903 33.0994C88.9903 34.9923 87.6012 36.3214 85.9898 36.3214ZM85.9898 27.7831C83.05 27.7831 80.654 30.0183 80.654 33.0994C80.654 36.1603 83.05 38.4157 85.9898 38.4157C88.9308 38.4157 91.3268 36.1603 91.3268 33.0994C91.3268 30.0183 88.9308 27.7831 85.9898 27.7831Z" fill="black"/>
<path d="M26.7143 24.8742L13.4073 38.9987C13.4078 39.0016 13.4088 39.004 13.4093 39.007C13.8174 40.5408 15.2183 41.6701 16.8809 41.6701C17.5455 41.6701 18.1695 41.4904 18.7046 41.175L18.7471 41.1501L33.7266 32.5063L26.7143 24.8742Z" fill="#EB3131"/>
<path d="M40.1777 22.4697L40.165 22.461L33.6979 18.7119L26.4119 25.1953L33.7232 32.5057L40.1562 28.7939C41.284 28.1851 42.0496 26.9961 42.0496 25.625C42.0496 24.2637 41.2944 23.0806 40.1777 22.4697Z" fill="#F6B60B"/>
<path d="M13.4055 12.1909C13.3255 12.4859 13.2834 12.7949 13.2834 13.1158V38.075C13.2834 38.3953 13.325 38.7053 13.406 38.9993L27.1723 25.2357L13.4055 12.1909Z" fill="#5778C5"/>
<path d="M26.8127 25.595L33.7009 18.7089L18.7383 10.0338C18.1944 9.70802 17.5596 9.52002 16.8804 9.52002C15.2179 9.52002 13.8151 10.6514 13.4069 12.1869C13.4064 12.1884 13.4064 12.1895 13.4064 12.1908L26.8127 25.595Z" fill="#3BAD49"/>
<path d="M60.0623 12.8206H56.4159V13.723H59.1483C59.0741 14.4593 58.7811 15.0374 58.287 15.4573C57.7928 15.8773 57.1619 16.0882 56.4159 16.0882C55.5975 16.0882 54.9042 15.8031 54.3359 15.2367C53.7792 14.6586 53.4961 13.9437 53.4961 13.0824C53.4961 12.2212 53.7792 11.5063 54.3359 10.9282C54.9042 10.3619 55.5975 10.0786 56.4159 10.0786C56.8359 10.0786 57.2362 10.1509 57.6033 10.3091C57.9706 10.4672 58.2654 10.688 58.4959 10.9712L59.1893 10.2779C58.8748 9.92039 58.4764 9.64701 57.9822 9.44777C57.488 9.24852 56.9725 9.1529 56.4158 9.1529C55.324 9.1529 54.3984 9.53176 53.6424 10.2877C52.8866 11.0454 52.5077 11.979 52.5077 13.0825C52.5077 14.1859 52.8866 15.1215 53.6424 15.8774C54.3983 16.6332 55.324 17.0122 56.4158 17.0122C57.5623 17.0122 58.4763 16.645 59.1794 15.8988C59.7986 15.2778 60.1149 14.438 60.1149 13.3872C60.1149 13.2095 60.0935 13.0198 60.0623 12.8206ZM61.4749 9.3207V16.8441H65.8673V15.9202H62.4417V13.5336H65.5315V12.6313H62.4417V10.2465H65.8673V9.32067L61.4749 9.3207ZM72.0266 10.2466V9.3207H66.8567V10.2466H68.9583V16.8441H69.925V10.2466H72.0266ZM76.7071 9.3207H75.7403V16.8441H76.7071V9.3207ZM83.0883 10.2466V9.3207H77.9185V10.2466H80.0199V16.8441H80.9867V10.2466H83.0883ZM92.844 10.2993C92.0978 9.53171 91.1838 9.15283 90.092 9.15283C88.9983 9.15283 88.0843 9.5317 87.3382 10.2876C86.5921 11.0337 86.225 11.9692 86.225 13.0824C86.225 14.1956 86.5921 15.1312 87.3382 15.8774C88.0843 16.6331 88.9983 17.0121 90.092 17.0121C91.174 17.0121 92.0978 16.6331 92.844 15.8774C93.5901 15.1313 93.9572 14.1957 93.9572 13.0824C93.9572 11.9789 93.59 11.0453 92.844 10.2993ZM88.0316 10.9282C88.5882 10.3618 89.2718 10.0786 90.092 10.0786C90.9104 10.0786 91.594 10.3618 92.1408 10.9282C92.6974 11.4848 92.9708 12.2112 92.9708 13.0824C92.9708 13.9555 92.6974 14.68 92.1408 15.2367C91.594 15.803 90.9104 16.0881 90.092 16.0881C89.2718 16.0881 88.5882 15.803 88.0316 15.2367C87.4866 14.6683 87.2132 13.9555 87.2132 13.0824C87.2132 12.2113 87.4866 11.4965 88.0316 10.9282ZM96.254 12.1586L96.2131 10.7074H96.254L100.078 16.844H101.088V9.32063H100.121V13.7229L100.162 15.1741H100.121L96.465 9.32063H95.2873V16.844H96.254V12.1586Z" fill="black" stroke="white" stroke-width="0.26666" stroke-miterlimit="10"/>
</g>
<defs>
<clipPath id="clip0_124_81">
<rect width="168.751" height="50" fill="white" transform="translate(0.818481 0.59375)"/>
</clipPath>
</defs>
</svg>
