<!-- Generated by IcoMoon.io -->
<svg version="1.1" xmlns="http://www.w3.org/2000/svg" width="12288" height="1024" viewBox="0 0 12288 1024">
<title></title>
<g id="icomoon-ignore">
</g>
<path fill="#fff" opacity="0.92" d="M0 597.333v231.362c16.004 10.78 32.008 24.048 54.414 30.68 0.64-7.461 1.921-14.095-3.201-15.753 5.121-13.268 9.603 11.606 12.163 16.581 4.481-4.975 16.644 0 14.084-13.264 5.121 6.634 7.042 15.756 21.125 12.436-5.762-23.217 8.963 2.492 14.724-24.046 7.682 15.756 21.765 6.634 30.088 14.097 1.92-10.78-2.561-16.585-12.163-16.585 7.682-15.756 10.243 11.61 21.766 7.463-2.561-5.805-9.603-6.635-7.683-15.756 25.607 23.219 83.222 42.293 108.188 38.146-1.28-5.803-7.042-14.098-8.322-5.803 0-24.88 45.452 26.53 60.815 17.408-5.761-53.897 81.301 6.639 106.268 7.467 6.402 0 12.803 11.614 12.803 11.614 0.64 0 48.653-29.030 62.736-2.492-2.561-16.589 59.535 1.655 52.494 11.614 13.443 4.139 10.883-14.106 26.887-6.639-3.201-8.294-13.443-9.122-21.125-12.442 40.97-15.753 69.138 11.614 95.385 31.514 5.762-1.655 9.603-5.803 10.243-14.097 9.603 0 0.64 18.244 2.561 25.711 13.443-13.269 23.686-4.975 32.649-16.589 29.448 32.341 76.82 13.269 91.544 25.711-3.201-7.467 16.644-9.122 10.243-14.097 21.125-9.958 17.284 14.925 43.531 14.925 9.603-2.492-7.042-17.417-11.523-21.564-0.64-12.433 24.327 24.883 42.889 25.711 10.889-3.319-8.96-15.761-1.92-30.686 23.049 19.072 7.689 20.736 23.689 38.144 5.76-0.828 4.48-12.433 5.76-19.9 19.209 21.564 39.049 33.997 56.977 11.614 2.56 29.85 19.849-6.639 16 22.383 14.089-14.925 22.409 0.836 32.009-16.58 12.809 4.975-5.12 9.95-1.28 19.9 18.569-17.417 46.737-3.319 51.857-39.799-2.56 19.9 6.4 44.774 23.689 43.119 11.52 0-5.12-9.122 1.28-19.908 9.6 4.983 8.32 20.736 20.48 22.391 22.409-14.925 46.097-28.194 67.857-17.408 11.529-2.492-7.040-14.097-2.56-25.711 1.92 9.95 21.129 21.564 17.929-3.319 10.24 0 3.84 14.933 12.16 16.589 7.68 0 23.689-30.686 26.889-1.655 8.32 0 3.84-16.589 10.24-19.081 14.729 4.147-8.96 26.539 2.56 25.711 17.929 3.319 3.209-9.95 5.769-19.9 3.2 19.9 37.769-2.492 25.6 18.244 14.089-4.975 24.969-17.417 40.337-4.975-10.249-11.614-3.84-8.294-7.049-26.539 15.369 7.458 21.769-8.294 39.057 9.95 8.32-9.122 0-6.63 1.28-19.9 19.84-8.294 80.017 32.341 83.857 4.975 20.489-4.975 48.657 20.727 66.577 2.483 14.089 22.391 38.409 0 60.817 17.417 1.28-8.294-6.4-14.097 1.28-14.925 15.369 2.483 0.64 7.458 7.68 21.555 32.649-4.139 6.409 7.467 39.057 9.958 0-5.811-7.689-4.975-12.809-6.639 36.489-5.803 38.409 4.975 61.457 12.442 9.6 1.655 3.2-17.417 6.4-24.875 9.609-5.811 60.177 14.097 44.817-4.983 10.24-14.925 44.169 32.341 49.289-4.139 8.96 19.072 30.729 7.458 20.489-7.467-2.56-2.492-5.12-4.147-5.76-5.803 2.56 2.483 4.48 4.147 5.76 5.803 14.080 10.778 51.209 23.219 81.297 14.097-2.56-5.803-9.6-6.63-7.68-15.753 10.24-9.958 24.969 0 30.729 8.286 6.4-15.753-14.080-5.803-7.68-20.727 16.64 0.828 39.689 9.95 40.969-10.778 12.16 10.778 5.12 22.383 20.489 22.383 10.88-1.655-14.089-11.605 1.28-19.9 8.96 33.997 69.777 11.614 97.946-3.319-19.209-27.358 30.729-22.383 55.049-24.047-1.28-4.975-3.2-9.12-8.32-10.778 10.88 2.488 28.169-0.829 34.569 14.098 15.369 0.828-6.4-23.219 5.76-19.902 10.249 17.411 37.769 0.829 32.649 6.634 13.449 3.317 10.889 16.588 15.369 9.121 26.889 28.194 79.377-19.072 88.337 4.975 7.049-3.319 7.689-15.754 10.889-24.047 18.56 0 24.32 11.61 39.049 14.925 24.329-31.51 69.777 0 90.266-19.901-8.969-11.61-21.129-19.073-20.489-27.366 8.32-13.268 16.009 13.268 25.609 13.268-1.28-6.634-5.12-10.78-12.809-11.61 10.249-6.634 25.609-5.804 40.337-4.976-0.64 13.268 19.84 9.952 7.040 20.732 7.68-1.659 41.609 2.487 23.049-7.463 4.48-10.78 20.48 4.975 21.12 12.439 6.4-2.488 8.969-9.952 10.249-19.073 13.44 13.268 28.16-6.635 39.689 4.975 5.12 2.488 16-12.438 5.76-14.927 7.040-10.78 14.080 17.415 20.489 22.39 14.080 0.829 13.44-18.243 32.009-11.61 0-4.975-5.129-4.146-8.329-5.804 14.729 2.487 33.929-19.902 43.537 9.951 14.080-5.804-4.489-19.901 16-33.999-15.36 0.829-14.72 4.146-26.249-3.317 40.337-10.78 67.857 37.316 94.746 41.463 7.040 0 1.92-9.951-5.12-14.927 25.609 8.293 73.617 36.487 68.497 1.659 32.649 19.073 55.697-2.488 96.026 26.536-1.92-14.927 24.329 0.829 35.849-5.805-17.92-11.61-5.12-13.268 1.92-29.853-0.64 17.414 28.809 2.487 44.177 4.976 36.489 5.804 75.537 28.194 104.986 22.39 6.4-4.146-1.28-8.293 10.24-14.097 39.049 31.511 67.217-5.805 94.106-9.122-2.56 0 7.040 18.243 26.249 8.293 34.569-18.243 97.946-1.659 150.434 12.438 15.369 1.659 35.209-18.243 48.657 0.829-4.48-16.585 20.48 1.659 14.080-8.293 12.809-3.317 39.689 25.708 44.177 0 8.96 31.512 33.289 13.268 51.849 21.561-18.56-7.463 12.809-17.415-7.040-20.732-1.92 0-3.2-0.829-4.48-0.829 1.92 0 3.2 0.829 4.48 0.829 30.729 4.976 76.817 23.219 108.186 38.146 13.449-12.439 32.009-15.756 33.289-31.512 8.969 2.488-0.64 22.391 7.049 26.536 10.88 7.468 19.84-13.268 17.28 7.468 5.12-6.638 24.329-14.931 1.28-14.931 14.080-13.268 37.769 9.122 48.657 0.829 1.92-6.634-0.64-9.121-4.489-9.951-1.28 0-2.56-0.829-3.84-0.829 1.28 0.829 2.56 0.829 3.84 0.829 38.417 10.78 63.377-21.56 129.954-5.805 7.049 1.659-4.48 9.122 3.849 10.781 17.28 8.292 10.24-15.756 26.88-6.635-2.56-14.927-6.4-6.634-17.28-7.463 15.36-29.853 53.129 9.952 78.737 14.098 19.849-7.463 14.089-14.927 24.329-32.341 36.489-0.829 80.657 14.927 131.234 30.682 5.12 1.659 15.36-4.146 17.929-2.487 12.16 4.975 26.88 21.559 8.96 0.829 19.84 13.268 56.977 26.533 85.137 50.588 15.369-2.492 24.969-13.269 41.617-14.933-4.48-3.311 16-29.85 15.36-29.020 3.2-2.488 13.449 1.658 13.449 1.658 2.56-1.658 3.84-3.317 5.12-4.146 6.4-6.634-2.56-6.634 0 0 0.64 1.659 1.92 3.317 3.84 4.976 7.040 7.463 44.169-6.634 28.169-16.585 55.689 18.244 90.257 9.952 147.874 43.118 3.2-6.63-16-14.097-3.2-15.753 29.449 44.783 78.097-14.097 109.466 23.219 5.129 0 4.489-9.122 5.769-14.925 7.68 21.555 19.2 10.778 38.409 19.9 9.6-0.828-5.12-16.58-7.040-20.727 15.36-1.664 24.96 19.9 42.889 25.702 31.369-15.753 64.017-6.63 102.426-3.319 1.92-7.458 6.4-8.286 14.72-18.236 21.769 16.58 21.129-4.147 31.369-6.639 57.617 14.097 193.331 43.955 253.508 4.147 5.76 1.655 20.489 17.417 21.769 7.467 6.4 3.311-0.64 4.139-0.64 9.95 60.817-5.811 126.114 50.586 174.763 40.627-3.84-6.63-27.529-11.605-30.729-8.286-1.28-4.975-3.2-9.122-8.32-10.786 8.32-9.95 23.689 4.147 14.72-18.244 37.129 26.539 63.377-9.95 96.666 16.589 9.609 3.319 25.609-12.442 14.729-18.244 19.84-4.975 44.169 27.366 64.017 38.144 8.32-3.311 7.040-19.9 23.040-12.433-2.56-4.975-7.68-8.294-12.8-11.614 3.2-2.483 44.169 18.244 33.289 29.022 6.4-6.63 25.609-4.147 30.729 3.319 7.68-18.244-19.849-3.319-11.52-21.564 4.48 6.639 32.649 17.417 26.88-6.63 19.209 19.072 71.066 23.219 87.066 30.686 31.369 16.58 58.897 4.139 94.746-19.081 0-4.975-5.12-4.139-8.32-5.803 40.969-9.95 46.089 23.219 92.186 20.736-2.569-7.467-8.969-10.786-16.649-12.442-7.040-12.442 26.889 5.803 30.089 14.097 8.32-9.95 16-6.63 10.88-24.047 8.969 2.483 7.689 14.925 16.649 17.417 6.4-1.664-1.28-6.639 1.28-14.933 37.129 3.319 130.594 41.463 125.474-10.778 44.169 6.639 69.137-12.442 103.066-13.269-1.28 5.803-4.48 8.294-8.96 8.294 24.32 4.975 45.449 38.144 80.657 45.611 37.129 7.458 95.386-32.341 113.954 23.219 4.48-3.319 10.24-4.147 17.92-2.492 2.56 9.95 12.8 4.975 3.2 15.761 16.009 3.311 42.249-10.786 62.097 2.483 15.36-34.825 76.177 4.147 86.426-24.875 7.040 10.778 41.609 42.291 48.009 10.778 3.84 23.219 72.337 14.097 32.009-11.605 7.68-1.664 28.809 22.383 37.769 34.825 15.369-2.483 1.28-11.605 10.249-19.072 5.76 22.391 10.24-9.122 34.569 14.097-1.28-11.605 21.76-11.605 24.96-32.341 19.849 22.391 23.049 9.122 51.857 21.564 7.040-16.589 59.537-43.119 80.657-10.786 54.417-33.997 124.834-27.358 182.451-4.139 26.249 2.483 57.617-25.711 93.466-4.147 5.76-0.836 5.12-9.122 0.64-9.95 32.009 0 94.746 7.458 113.306-27.366 27.529 32.341 131.234 2.483 167.083 29.85 74.266-10.778 127.394-47.266 219.58-19.9 12.809-11.614 5.76-16.589 1.92-29.858 51.857 33.178 124.194 24.055 156.843-16.58-2.56 4.147-5.12 7.458-5.76 14.925 42.889-9.122 99.226-19.072 141.474-43.95 16.649 39.803 69.777 20.731 94.106 46.442 23.049-34.005 118.434-29.858 169.643-10.786 3.2-24.875 55.057 1.664 76.177-11.605-3.2 9.122 67.866 22.391 88.346 10.778 1.28 8.294-3.84 9.122-9.6 9.122 46.729 22.391 76.177 22.391 122.274 29.85-3.2-4.975-3.849-11.605-3.2-20.727 3.84 18.244 42.889 30.686 39.049 9.95 8.96 0.828 4.48 14.097 16.64 12.442 8.329-14.097 26.249-15.761 33.289-31.514 10.889 4.147 14.729 5.803 30.089 14.097 11.52 0-5.12-9.122 1.28-19.9 40.977 4.975 87.066 36.489 97.306 11.605 8.96 1.664 14.729 6.639 26.889-6.63-0.64 4.975-0.64 9.95-1.28 14.925 25.003-37.316 64.683-15.753 107.52-12.442 5.12 0 4.523-8.286 5.803-14.925 56.32 14.097 72.363-9.122 114.603 13.269 5.717 1.655 3.84-9.95-1.28-14.925-1.963-0.828-4.523-0.828-6.4-1.664 2.56-0.828 4.437 0 6.4 1.664 39.68 10.778 76.117-4.147 113.92-2.492 1.963-14.925-8.96-16.58-6.4-31.509 8.363-8.293 12.8 3.317 21.76 7.463-1.877-4.975-3.157-9.121-8.277-10.78 2.56-19.073 34.56 13.268 36.437-15.756 33.28 16.585 72.363-57.219 112.725-30.682 32.597-18.243 79.957-3.317 114.517 13.268 20.48-20.732 53.845-26.536 64.085-23.219 8.96-29.024 30.72 48.096 44.117 14.097 5.12 34.829 37.12 5.805 42.923 25.707 5.12 0 4.437-9.121 5.717-14.927 44.203 26.536 84.565-53.901 125.525-24.048 22.357-29.024 42.24 56.389 72.96 53.072 1.28-10.78-2.56-16.585-12.203-16.585 12.203-14.097 57.685 10.78 13.483 1.659 3.157 6.634 4.437 14.097 2.56 25.707 8.277 0 3.84-16.585 10.24-19.073 12.203 29.854 44.8-38.146 71.083-40.633 0.597-0.829 1.28-0.829 1.877 0-0.597 0-1.28 0-1.877 0-5.12 5.804-8.363 48.926-17.92 47.267 47.957 4.146 101.12 19.073 151.723-2.487 5.12 4.146 10.24-34.829 10.837-43.121 0.683-2.487 0.683-2.487 0 0 5.803-9.121 15.36 26.536 25.6 43.121-1.28-4.976 7.68-8.293-0.597-11.61 26.197 12.439 36.437-21.56 76.117-6.634 7.083-1.659 0.683-4.976-3.84-5.805 60.245-47.267 165.803 71.32 247.808 19.073 32.597 16.585 69.12 0.829 101.12 16.585-14.763-28.195 49.92 21.565 71.68-11.61-4.437 15.756 8.363 8.293 8.96 0.829 6.4 2.487 0 9.121-5.12 9.121 3.243 4.976 7.68 8.293 12.8 11.61 1.963-5.804 7.083-17.414 27.563-11.61-4.523-6.634-3.84-18.243-1.963-30.682 7.083-14.927 3.243 18.244 2.56 25.708 57.003 27.362 82.005-26.536 117.163-16.585 3.84-13.268-8.277-10.78-12.117-16.585 3.84-10.78 21.76-14.097 27.477-6.634-1.877 7.463-7.68-4.976-8.96 4.146 0.683 5.804 8.363 4.146 8.363 10.78 23.040-12.439 31.317-11.61 58.197-3.317 7.68-5.804 12.8-15.756 15.36-28.195 19.883 1.659-5.12 12.439-1.877 24.878 21.163-29.024 37.12-3.317 52.48-44.78 5.12 7.463 7.68 16.585 13.483 1.658 6.4 3.317-1.963 5.805-1.28 14.927 14.677 3.317 6.4-24.048 27.477-11.61 0-9.121-14.677-4.975-16.64-12.438-8.277-16.585 25.003 19.901 30.72 3.317 5.803 2.487 2.56 13.268 3.243 20.731 4.437-2.487 7.68-13.268 8.96-4.146 6.4-1.658-1.28-6.634 1.28-14.927 8.277 3.318 1.877 19.902 16.64 17.415 10.837 0-3.84-14.097-7.68-15.756 7.68-0.829 30.037 24.877 32.597 44.78 5.803-9.951 21.845-7.463 23.723-22.39 6.4 8.293-5.717 24.877 16.043 27.366 3.157-14.097 4.437 2.487 10.24-14.097 3.84 15.755 17.237 0.829 7.68 15.755 8.96 2.488 14.080 0.829 14.080-8.292 7.68 6.634 14.080 14.927 20.48 22.39 17.92-4.146 23.637-17.415 44.8-4.976 5.12-21.56-8.96 3.317-8.363-10.78 18.603-23.219 47.445-3.317 55.723-33.999 49.323 25.707 128.683 14.927 146.603 63.023 5.803-0.829 4.523-12.439 5.803-19.902 10.24 11.61 19.797 24.878 37.717 29.853-23.637-19.901 32.683-3.317 35.243 9.123 6.4-0.828 4.437-12.44 5.717-19.903 10.24 4.146 21.76 24.050 48.043 10.78 5.12 1.659 3.157 9.951 3.157 15.753 8.363-14.095 57.685 19.072 76.203-5.803 10.923 9.95 11.52 14.097 24.32 28.194 4.523-3.319 7.68-8.294 9.643-14.097-33.28-3.319 8.96-24.048-10.24-41.462 8.277-6.634 21.76 23.217 23.637 38.142 8.96-11.605 19.2-21.557 25.003-37.313 30.72-0.829 68.523 19.902 85.163 50.582 19.797 4.147 31.317-14.097 53.077 1.664 7.083-20.736 7.68-38.979-0.597-55.563-2.56-13.268 13.397 29.024 19.797 38.147 6.4-13.269 24.32-7.467 27.563-11.614 5.12 1.664 3.157 9.958 3.157 15.761 10.24 2.483 16.64 0.828 18.603-8.294 5.803 2.492 2.56 13.269 3.243 20.727 6.4-1.655 11.52-6.63 14.080-13.261 5.717 10.778 28.16 26.53 22.357-2.492 16.043-1.655 3.84 24.875 16.043 27.366 14.677-6.639-14.080-20.736 1.877-29.85 4.523 4.139-0.597 14.925 7.083 26.53 5.717-0.828 7.68-8.294 14.080-8.294 2.56-11.605-20.48 0.836-12.203-16.58 8.363 12.442 14.763-2.492 21.76 7.458-10.837-19.9-1.28-14.097 2.56-34.825 1.28 29.022 51.2 23.219 39.083 9.951 6.997-8.293 13.397 23.218 21.077 17.416 7.083-1.655-1.28-6.639 1.28-14.927 9.643-1.659 18.005 33.172 21.845 7.461 5.12 1.664 3.157 9.95 3.157 15.761 5.12 0 4.523-8.294 5.803-14.933 5.717 8.294 12.117 16.589 20.48 22.391 6.4-0.828 4.437-12.433 5.717-19.9 5.12 1.655 3.243 9.95 3.243 15.753 12.8-2.483 5.717-6.63 5.717-19.9 15.36 2.492 8.96 25.711 29.44 24.047-11.52-27.366 0-2.483 18.603-13.269-12.203 18.244 6.997-4.975 3.157 15.761 10.24-14.097 25.003 2.483 48.64 0.828 58.965 38.972 121.685 57.216 153.003 98.679 61.525 8.294 93.525 12.442 153.685 28.194-1.28-11.605-21.76-4.975-30.72-8.294 73.643 3.319 140.203 24.883 229.803 18.244v-425.404h-12288z"></path>
<path fill="#fff" opacity="0.92" d="M4222.541 861.628c-1.28 0-2.56 0-3.84 0 0.64 0 1.92 0.828 3.84 0z"></path>
<path fill="#fff" opacity="0.92" d="M9746.517 823.478c-1.28-0.829-1.877-2.487-3.157-4.145 0.597 1.658 1.28 2.487 3.157 4.145z"></path>
<path fill="#fff" opacity="0.92" d="M9573.717 774.553c0.597 0 1.28 0 1.877 0-0.597-0.829-1.28-0.829-1.877 0z"></path>
<path fill="#fff" opacity="0.92" d="M9717.76 776.211c0.597 0 0.597 0 0 0 0.597-2.487 0.597-2.487 0 0z"></path>
<path fill="#fff" opacity="0.92" d="M3686.076 823.479c-1.28 0-2.56-0.829-3.84-0.829 1.92 0.829 2.56 0.829 3.84 0.829z"></path>
<path fill="#fff" opacity="0.92" d="M3753.293 830.939c0-3.316 0-5.804-3.84-5.804-1.28 27.358 17.28 7.462 22.4-2.487-13.44-6.632-11.52 7.462-18.56 8.291z"></path>
<path fill="#fff" opacity="0.92" d="M2669.491 804.406c-20.489-7.463-9.6-1.659-21.129-17.415 2.569 19.073-19.84-1.658-26.24-3.317-5.12 15.756 5.76 16.585 7.040 26.536 13.44 4.146 22.409-9.121 12.8 6.634 10.889 0.829 12.809 9.952 21.129 12.439 1.28-19.073-5.12-16.585 6.4-24.877z"></path>
<path fill="#fff" opacity="0.92" d="M0 0h12288v597.333h-12288v-597.333z"></path>
</svg>
