<svg width="186" height="50" viewBox="0 0 186 50" fill="none" preserveAspectRatio="none" xmlns="http://www.w3.org/2000/svg">
<path d="M48.5222 49.7361C48.5222 49.5908 48.4774 49.4998 48.4226 49.5338C48.3679 49.5678 48.2547 49.4312 48.1712 49.2303C48.083 49.0183 47.9471 48.8649 47.8474 48.8649C47.7116 48.8649 47.7006 48.8345 47.7951 48.7201C47.887 48.6089 47.8839 48.5649 47.782 48.5305C47.6777 48.4952 47.6823 48.4454 47.8034 48.2973C47.9208 48.1537 47.9269 48.0985 47.8291 48.0655C47.7585 48.0416 47.7007 47.9767 47.7007 47.9213C47.7007 47.866 47.7464 47.849 47.8022 47.8837C47.8604 47.9199 47.8777 47.8784 47.8426 47.7866C47.809 47.6985 47.8342 47.6264 47.8987 47.6264C47.9842 47.6264 47.9862 47.5704 47.9061 47.42C47.8178 47.2542 47.828 47.2136 47.9579 47.2136C48.0885 47.2136 48.0949 47.187 47.991 47.0752C47.858 46.9322 47.5998 47.0601 47.6335 47.2523C47.6422 47.302 47.5953 47.3627 47.5291 47.3872C47.45 47.4165 47.4292 47.3536 47.4683 47.2033C47.501 47.0777 47.4858 46.9996 47.4345 47.0297C47.3833 47.0599 47.2489 47.0504 47.1359 47.0086C46.9731 46.9484 47.0209 46.9172 47.367 46.8577C47.6391 46.8109 47.8034 46.7278 47.8034 46.6369C47.8034 46.5567 47.8932 46.4911 48.003 46.4911C48.1127 46.4911 48.2657 46.4004 48.343 46.2896C48.4815 46.0908 49.0045 45.8196 49.1741 45.8586C49.222 45.8696 49.5223 45.8124 49.8416 45.7314C50.1608 45.6505 50.7108 45.5515 51.0639 45.5115C51.417 45.4715 51.7316 45.3969 51.7631 45.3457C51.7946 45.2945 51.9216 45.2516 52.0453 45.2503C52.1691 45.249 52.5476 45.1108 52.8864 44.943C53.2253 44.7753 53.5807 44.637 53.6762 44.6357C53.7717 44.6344 53.8784 44.587 53.9133 44.5302C53.9482 44.4734 53.9246 44.427 53.8609 44.427C53.7186 44.427 53.7699 43.9654 53.9133 43.9554C53.9698 43.9514 54.2186 43.8899 54.4662 43.8187C54.7138 43.7474 55.0292 43.7176 55.167 43.7523C55.3048 43.7871 55.5643 43.7701 55.7437 43.7145C55.923 43.6589 56.3276 43.5627 56.6427 43.5007C57.5076 43.3306 57.9694 43.1885 57.9694 43.0925C57.9694 42.993 52.7017 43.0624 51.3975 43.1791C50.7103 43.2405 50.4482 43.2237 50.1652 43.1001C49.9675 43.0137 49.7827 42.9363 49.7545 42.9281C49.7262 42.9199 49.5681 42.8571 49.403 42.7886C49.238 42.7201 49.03 42.6926 48.9409 42.7274C48.8518 42.7623 47.4851 42.8075 45.9037 42.8279C44.3223 42.8483 42.8205 42.9112 42.5664 42.9677C42.3122 43.0242 41.5506 43.1244 40.8738 43.1903C40.1971 43.2562 39.555 43.3577 39.4469 43.4158C39.3388 43.4739 39.0247 43.4997 38.7489 43.4731C38.473 43.4464 38.2224 43.4651 38.192 43.5147C38.1615 43.5642 38.0936 43.578 38.041 43.5453C37.9885 43.5127 37.9454 43.5351 37.9454 43.5952C37.9454 43.6554 37.9108 43.6953 37.8684 43.6841C37.6976 43.6386 36.8159 43.8264 36.8159 43.9082C36.8159 44.0089 36.0402 44.1764 35.7469 44.139C35.639 44.1252 35.4639 44.2076 35.3578 44.3221C35.2517 44.4365 35.0858 44.5357 34.9892 44.5424C34.8925 44.5491 34.5362 44.5646 34.1973 44.5768C33.8585 44.5891 33.3964 44.6527 33.1705 44.7183C32.9446 44.7838 32.5852 44.8635 32.3718 44.8954C32.1584 44.9273 32.0089 44.9942 32.0396 45.044C32.1351 45.1995 31.9069 45.2402 30.1229 45.386C30.0281 45.3937 29.9587 45.4441 29.9688 45.4978C29.9789 45.5516 29.8948 45.6229 29.7818 45.6563C29.6688 45.6897 29.4598 45.7968 29.3172 45.8943C29.1306 46.0219 28.7417 46.0902 27.9309 46.138C27.311 46.1745 26.6971 46.1995 26.5665 46.1936C26.436 46.1876 26.1872 46.2565 26.0138 46.3467C25.8346 46.4398 25.671 46.4697 25.635 46.4159C25.5466 46.2839 25.1851 46.1571 25.2643 46.2859C25.3478 46.4216 25.2478 46.4147 24.9744 46.2657C24.4226 45.9651 21.8101 46.1936 21.5376 46.5664C21.4532 46.6818 21.444 46.7596 21.5119 46.7824C21.5704 46.8019 21.6182 46.8591 21.6182 46.9093C21.6182 46.9596 21.5535 46.9758 21.4745 46.9453C21.3955 46.9148 21.3004 46.9395 21.2631 47.0001C21.1635 47.1621 21.7789 47.1386 22.111 46.9678C22.2635 46.8893 22.5963 46.791 22.8504 46.7492C23.1046 46.7074 23.3934 46.6581 23.4922 46.6397C23.591 46.6213 23.6719 46.667 23.6719 46.7414C23.6719 46.837 23.7996 46.8665 24.1083 46.8422C24.4457 46.8157 24.5035 46.8319 24.3629 46.9139C24.2629 46.9722 24.2041 47.0575 24.2324 47.1034C24.2934 47.2025 23.7192 47.3022 22.6077 47.3855C21.9837 47.4323 21.78 47.4137 21.7108 47.304C21.6459 47.201 21.6209 47.1974 21.6197 47.291C21.6174 47.481 21.0002 47.4503 20.7791 47.2492C20.6758 47.1553 20.5913 47.1223 20.5913 47.176C20.5913 47.2353 20.258 47.2458 19.7441 47.2027C19.2782 47.1637 18.5504 47.1062 18.1268 47.0749C17.7032 47.0436 17.2049 46.964 17.0193 46.8981C16.8338 46.8321 16.567 46.8002 16.4264 46.8272C16.2859 46.8542 16.1417 46.8289 16.1061 46.771C16.0663 46.7062 16.0931 46.6978 16.1757 46.7492C16.2594 46.8011 16.2852 46.7921 16.2442 46.7254C16.1669 46.5997 15.6771 46.4857 15.0975 46.4587C14.7556 46.4428 14.6849 46.4024 14.6756 46.2178C14.6657 46.0196 14.7365 45.9876 15.3431 45.917C15.7163 45.8735 16.1372 45.848 16.2784 45.8602L16.5351 45.8826L16.2627 45.7337C15.7902 45.4756 15.3295 45.3667 14.4301 45.3005C13.95 45.2651 13.2569 45.1604 12.8897 45.0677C12.0454 44.8544 9.11564 44.8381 8.98786 45.0459C8.94389 45.1174 8.85355 45.1421 8.78712 45.1009C8.61555 44.9943 6.72585 44.9584 6.79013 45.0629C6.85025 45.1607 6.83495 45.1624 5.49164 45.2034C4.54353 45.2323 4.14334 45.2675 2.72371 45.4472C2.07639 45.5292 1.69793 45.4822 1.32796 45.2742C1.17302 45.187 1.20641 45.1374 1.57955 44.9007C1.88051 44.7097 2.24819 44.5974 2.80317 44.5269C3.75028 44.4066 4.65394 44.255 5.305 44.1072C5.69443 44.0189 5.77211 43.9642 5.7313 43.8074C5.70201 43.6948 5.62197 43.6385 5.53749 43.6711C5.45834 43.7017 5.39358 43.6752 5.39358 43.6124C5.39358 43.5495 5.47444 43.4974 5.57328 43.4966C5.72686 43.4953 5.73059 43.4804 5.59895 43.3949C5.50154 43.3317 5.49092 43.2943 5.57006 43.2933C5.63908 43.2924 5.66859 43.222 5.63587 43.1364C5.59459 43.0282 5.69705 42.9272 5.97283 42.804L6.36911 42.627L5.36579 42.5648C4.81397 42.5305 4.08617 42.5072 3.74847 42.513C3.41076 42.5187 3.13446 42.5176 3.13446 42.5105C3.13446 42.5035 3.22688 42.3905 3.33983 42.2596C3.45279 42.1287 3.54521 42.053 3.54521 42.0914C3.54521 42.1298 3.64927 42.0927 3.77645 42.0089C3.90363 41.9252 4.35025 41.8032 4.76895 41.7379C5.18763 41.6726 5.71321 41.5543 5.93689 41.475C6.16057 41.3957 6.51106 41.3291 6.71575 41.3271C7.28762 41.3215 8.72815 40.945 8.31161 40.9101C8.25984 40.9057 8.12506 40.8808 8.0121 40.8547C7.89915 40.8285 7.75031 40.7947 7.68134 40.7795C7.4464 40.7278 7.43139 40.6273 7.64827 40.5581C7.7673 40.5202 7.98547 40.3766 8.1331 40.2391C8.28072 40.1016 8.50462 39.9891 8.63065 39.9891C8.75668 39.9891 8.91252 39.9252 8.97695 39.8472C9.07323 39.7306 8.98856 39.6933 8.50176 39.6375C8.17597 39.6002 7.77079 39.5472 7.60135 39.5197C7.19826 39.4543 5.59426 39.4638 5.48409 39.5322C5.33546 39.6245 4.16133 39.6681 4.16133 39.5813C4.16133 39.5357 4.23065 39.4405 4.31536 39.3698C4.40008 39.2992 4.46939 39.1929 4.46939 39.1336C4.46939 39.0743 4.43899 39.0564 4.40183 39.0937C4.36466 39.1311 4.27225 39.1099 4.19645 39.0467C4.12015 38.983 4.05865 38.9758 4.05865 39.0304C4.05865 39.0846 3.98933 39.129 3.90461 39.129C3.658 39.129 3.72565 39.0185 4.06454 38.8677C4.44566 38.6982 4.39108 38.6271 3.77667 38.4926C3.21619 38.3699 3.10934 38.1777 3.51119 38.0149C3.92707 37.8464 5.88094 37.6277 6.99787 37.6247C7.52141 37.6232 8.07234 37.5911 8.22217 37.5533L8.49458 37.4846L8.202 37.2441C8.04108 37.1118 7.83128 37.0018 7.73578 36.9998C7.49237 36.9946 7.41839 36.8304 7.54895 36.5853C7.68681 36.3264 8.58005 35.8608 8.93893 35.8608C9.09025 35.8608 9.17774 35.8163 9.14167 35.7576C9.10676 35.7008 8.99345 35.6544 8.88987 35.6544C8.7159 35.6544 8.52247 35.3967 8.56058 35.2158C8.59933 35.0318 6.97007 35.2375 6.83373 35.4338C6.72959 35.5837 4.10741 35.9755 3.84964 35.8797L3.60416 35.7884L3.84295 35.66C3.97428 35.5893 4.82744 35.4066 5.73886 35.2539C7.40664 34.9744 7.81255 34.7771 6.71969 34.7771C6.38389 34.7771 6.07497 34.7182 5.97455 34.6349C5.8319 34.5167 5.6344 34.5134 4.80246 34.6155C3.2727 34.8033 2.38366 34.9323 2.17517 34.9967C2.03703 35.0393 1.99549 35.0088 2.02113 34.8833C2.0585 34.7004 2.3762 34.4857 2.87426 34.307C3.30297 34.1531 3.03648 34.0174 2.48834 34.1105C2.25069 34.1508 1.8483 34.2166 1.59415 34.2566L1.13206 34.3293L1.51714 33.9584C1.72893 33.7544 1.90221 33.5709 1.90221 33.5506C1.90221 33.5303 1.61567 33.4811 1.26545 33.4413C0.437389 33.3472 -0.00568124 33.1138 5.50032e-05 32.775C0.0030682 32.5963 0.667381 32.3566 1.28551 32.3111C1.53998 32.2924 2.11786 32.2033 2.56968 32.1131C3.0215 32.0229 3.7147 31.9282 4.11012 31.9027C4.50553 31.8771 5.10625 31.8073 5.44505 31.7475C7.54917 31.3762 8.02275 31.2848 8.11344 31.2325C8.16917 31.2004 8.00744 31.1234 7.75403 31.0614C7.49902 30.999 7.29329 30.8881 7.29329 30.8131C7.29329 30.6394 8.32827 30.2621 9.26759 30.0934C9.72452 30.0114 10.0626 29.8893 10.1733 29.7663C10.2724 29.6563 10.6161 29.5175 10.9562 29.4503C11.7278 29.2977 11.707 29.153 10.8686 28.8416C10.6888 28.7749 10.5626 28.6665 10.588 28.6009C10.646 28.4515 11.1219 28.2235 11.376 28.2235C11.481 28.2235 11.5384 28.1771 11.5035 28.1203C11.4686 28.0635 11.0962 28.0171 10.6759 28.0171C9.9835 28.0171 9.70545 27.9116 10.0402 27.7758C10.3393 27.6545 8.84066 27.7202 8.10046 27.8608C7.1787 28.0359 6.67717 27.9626 6.67717 27.6528C6.67717 27.51 6.9454 27.3224 7.68511 26.948C8.38193 26.5954 8.65134 26.4109 8.55795 26.3502C8.38054 26.2351 8.55564 26.1174 9.24435 25.8888C10.2165 25.5661 10.9877 25.0251 10.8864 24.737C10.8173 24.5402 11.1962 24.4328 12.7615 24.2057C13.5396 24.0928 14.3189 23.929 14.4932 23.8416C14.6675 23.7542 15.0365 23.6554 15.3132 23.6221C16.0762 23.5302 17.5362 23.1589 17.7646 22.9988C17.876 22.9207 18.107 22.8535 18.278 22.8495C18.449 22.8455 18.6813 22.8023 18.7943 22.7535C18.9578 22.6829 18.916 22.6617 18.5889 22.6496C17.7136 22.6172 17.2492 22.5305 17.1331 22.3778C17.0539 22.2735 16.9302 22.2415 16.7737 22.2847C16.5684 22.3414 16.5605 22.3346 16.7167 22.2363C16.8166 22.1734 16.9783 22.1352 17.0761 22.1513C17.1739 22.1675 17.3161 22.1416 17.3921 22.0937C17.4738 22.0423 17.6337 22.0624 17.7835 22.143C17.9809 22.2491 18.0797 22.2523 18.2311 22.1573C18.354 22.0801 18.4482 22.0725 18.4875 22.1364C18.5217 22.192 18.8126 22.2392 19.1341 22.2412C19.4555 22.2432 19.834 22.3112 19.9752 22.3923C20.2828 22.5691 20.3859 22.582 20.3859 22.4439C20.3859 22.3872 20.3139 22.3407 20.2258 22.3407C20.1378 22.3407 20.091 22.2996 20.122 22.2492C20.1529 22.1989 20.0815 22.1323 19.9632 22.1013C19.8449 22.0702 19.7682 21.9836 19.7928 21.9089C19.8381 21.7711 20.298 21.6903 21.7208 21.5703C23.0063 21.462 23.3638 21.4036 23.3638 21.3023C23.3638 21.249 23.2945 21.2054 23.2098 21.2054C23.1242 21.2054 23.0558 21.1137 23.0558 20.999C23.0558 20.8477 23.1242 20.7926 23.3125 20.7926C23.6079 20.7926 23.6583 20.6337 23.3856 20.562C23.2846 20.5355 22.7647 20.5385 22.2304 20.5688C20.674 20.6571 20.0514 20.6278 19.7258 20.4507C19.5604 20.3607 19.3955 20.3055 19.3593 20.328C19.3231 20.3505 19.3126 20.2381 19.3359 20.0783C19.3869 19.7297 19.2424 19.6753 18.1881 19.6461C17.5571 19.6287 17.5081 19.613 17.7274 19.4988C18.0882 19.3109 19.4116 19.0412 20.2008 18.9947C20.6041 18.971 20.9851 18.8862 21.1221 18.7898C21.4138 18.5844 21.5896 18.5818 21.7869 18.7801C21.8756 18.8692 22.1228 18.9339 22.37 18.9326C23.1311 18.9287 25.9707 18.6384 26.3562 18.5252C26.7163 18.4194 26.7272 18.4023 26.6512 18.0638C26.6034 17.8505 26.6141 17.6703 26.6786 17.6055C26.7519 17.5319 26.7487 17.4549 26.6685 17.3577C26.4232 17.0606 26.7352 16.9991 28.2338 17.0492C29.3982 17.0881 29.7614 17.0668 29.9977 16.9457C30.2477 16.8176 31.3747 16.6408 32.1436 16.6092C32.2566 16.6046 32.58 16.5592 32.8624 16.5085L33.3759 16.4162L32.9138 16.3412C32.6596 16.2999 31.8972 16.2898 31.2194 16.3187C30.5417 16.3477 29.5713 16.3652 29.063 16.3576C28.5547 16.3501 27.5612 16.4195 26.8552 16.512C25.4583 16.6949 24.0178 16.8229 23.3976 16.8191C23.1814 16.8178 22.9754 16.8573 22.9399 16.9069C22.9045 16.9565 22.7312 17.0029 22.5549 17.0102C22.3786 17.0174 22.2343 17.0618 22.2343 17.1088C22.2343 17.1558 22.1303 17.1649 22.0032 17.1289C21.8224 17.0778 21.8056 17.0872 21.9262 17.172C22.059 17.2654 22.0555 17.2806 21.9006 17.282C21.8017 17.2829 21.7209 17.3353 21.7209 17.3986C21.7209 17.4693 21.6232 17.4494 21.4677 17.347C21.1866 17.1619 21.0634 17.1329 21.1489 17.2718C21.1798 17.3221 21.1132 17.3875 21.0009 17.417C20.884 17.4477 20.7967 17.4196 20.7966 17.3513C20.7966 17.2822 20.6345 17.232 20.4116 17.232C20.1668 17.232 20.0353 17.2772 20.0506 17.356C20.0671 17.4414 19.9564 17.4649 19.6956 17.4313C19.2681 17.3763 18.8464 17.1359 18.844 16.9458C18.8429 16.8645 18.8068 16.8746 18.7429 16.9739C18.6657 17.0941 18.643 17.0637 18.6418 16.8381C18.6398 16.4659 18.809 16.1483 19.0093 16.1483C19.0954 16.1483 19.1372 16.1018 19.1023 16.0451C19.0674 15.9883 19.1225 15.9383 19.2246 15.934C19.563 15.9196 19.7779 15.8571 20.0067 15.7064C20.2119 15.5713 20.694 15.6233 20.694 15.7805C20.694 15.8089 20.6321 15.8083 20.5564 15.779C20.4807 15.7498 20.3537 15.8066 20.274 15.9053C20.1492 16.0598 20.1494 16.0724 20.2751 15.9962C20.3873 15.9283 20.4042 15.9516 20.3487 16.0972C20.3054 16.2104 20.3294 16.3203 20.4082 16.3706C20.6047 16.4958 20.7701 16.4723 20.5914 16.3445C20.4755 16.2616 20.535 16.2479 20.8318 16.2895C21.0499 16.32 21.3101 16.292 21.4139 16.2268C21.556 16.1376 21.6381 16.1395 21.752 16.2344C21.8732 16.3356 21.9178 16.3244 21.982 16.1766C22.0258 16.0758 22.0543 15.9585 22.0453 15.916C22.0364 15.8734 22.0945 15.8386 22.1745 15.8386C22.2545 15.8386 22.3376 15.7854 22.3591 15.7205C22.3807 15.6556 22.5338 15.588 22.6995 15.5702C22.8652 15.5524 23.0524 15.4669 23.1155 15.3802C23.1786 15.2935 23.2677 15.2566 23.3135 15.2983C23.3592 15.34 23.3677 15.2928 23.3322 15.1935C23.2528 14.9712 23.4492 14.9504 23.5339 15.1722C23.5877 15.3131 23.6169 15.3113 23.7874 15.1562C23.9694 14.9906 23.9802 14.9918 23.9817 15.1775C23.983 15.3422 23.9994 15.349 24.0828 15.2193C24.2312 14.9885 24.21 14.9382 23.9351 14.8689C23.7608 14.825 23.6898 14.7398 23.7011 14.5885C23.7192 14.3474 24.0769 14.1672 24.489 14.1916C24.8732 14.2143 25.2123 14.0814 25.2123 13.9083C25.2123 13.7968 25.3144 13.7641 25.5974 13.7849C26.0113 13.8153 26.7075 13.6991 26.958 13.5579C27.0824 13.4878 27.0725 13.4695 26.9067 13.463C26.7937 13.4587 26.4703 13.4332 26.1879 13.4066C25.3147 13.3244 24.1532 13.3269 23.7342 13.4121C23.4465 13.4706 23.3544 13.4607 23.4058 13.3771C23.45 13.3052 23.4222 13.282 23.3331 13.3164C23.2487 13.3489 23.1124 13.2545 23.004 13.0882C22.8717 12.8853 22.8543 12.7927 22.9429 12.763C23.0261 12.7351 23.006 12.6736 22.8816 12.5755C22.7129 12.4425 22.7238 12.4343 23.0046 12.4834C23.174 12.513 23.2549 12.5098 23.1843 12.4763C22.9242 12.3531 23.0674 12.2263 23.4666 12.2263C23.7259 12.2263 23.878 12.2739 23.8789 12.3553C23.8801 12.4502 23.9038 12.4473 23.9688 12.3443C24.0243 12.2563 24.0811 12.2433 24.1217 12.3093C24.1906 12.4214 24.3213 12.4127 24.6423 12.2746C24.7523 12.2272 24.9943 12.1854 25.1799 12.1816C25.6055 12.1729 25.7437 11.9167 25.3228 11.9167C25.1563 11.9167 25.0033 11.8496 24.9698 11.7619C24.9299 11.6574 24.9748 11.6071 25.1077 11.6071C25.2161 11.6071 25.3417 11.549 25.3869 11.4781C25.5047 11.293 25.9231 11.0739 26.0309 11.1408C26.0812 11.1721 26.1513 11.1504 26.1868 11.0927C26.2223 11.035 26.3788 10.9878 26.5347 10.9878C26.6905 10.9878 27.069 10.9124 27.3758 10.8202C27.86 10.6747 27.9035 10.6413 27.7057 10.5667C27.5804 10.5195 26.7229 10.4871 25.8003 10.4948C24.8776 10.5026 24.0624 10.4713 23.9886 10.4255C23.9122 10.378 23.8242 10.3913 23.7841 10.4564C23.7016 10.5906 20.5095 10.6923 20.4301 10.5633C20.4022 10.5179 20.3077 10.5085 20.2201 10.5423C20.1121 10.5839 20.0979 10.6269 20.1761 10.6754C20.2395 10.7148 20.1509 10.747 19.9793 10.747C19.8076 10.747 19.6672 10.7026 19.6672 10.6484C19.6672 10.5941 19.5968 10.6085 19.5107 10.6803C19.4246 10.7521 19.3213 10.7778 19.2812 10.7375C19.241 10.6971 19.323 10.5762 19.4634 10.4689L19.7185 10.2736L19.4618 10.3232C19.2369 10.3667 19.2305 10.3607 19.4105 10.2747C19.7066 10.1333 20.1933 10.148 20.4786 10.3069C20.7567 10.4618 21.1048 10.4107 21.1048 10.2151C21.1048 10.125 21.3076 10.0845 21.7723 10.0818C22.1911 10.0795 22.4397 10.1203 22.4397 10.1914C22.4397 10.2538 22.4975 10.2287 22.5681 10.1357C22.6608 10.0136 22.9388 9.9482 23.5693 9.90036C24.0494 9.86393 24.7338 9.76861 25.0903 9.68853C25.4468 9.60846 25.8858 9.53847 26.0658 9.53302C26.2459 9.52755 26.6243 9.4597 26.9066 9.38219C27.3881 9.25006 27.3337 9.24478 26.0338 9.29758C25.2713 9.32854 24.5782 9.35464 24.4935 9.35557C24.4088 9.3565 23.346 9.46613 22.1317 9.59918C20.9174 9.73224 19.5936 9.8553 19.1898 9.87263C18.7861 9.88998 18.4769 9.93898 18.5028 9.98156C18.5286 10.0241 18.3506 10.0592 18.1073 10.0594C17.8639 10.0594 17.2489 10.1271 16.7406 10.2093C15.869 10.3503 13.8186 10.4957 14.0971 10.3968C14.168 10.3716 14.1999 10.3085 14.168 10.2566C14.1361 10.2047 14.2398 10.1599 14.3984 10.1572C14.5571 10.1546 14.8486 10.0641 15.0463 9.95642C15.2439 9.84871 15.4981 9.71727 15.611 9.66434C15.9823 9.49033 22.0387 8.48333 23.4666 8.35818C23.8902 8.32106 25.1148 8.19868 26.1878 8.08625C27.2609 7.97381 28.6773 7.83675 29.3352 7.78167C29.9932 7.72658 30.7539 7.61426 31.0257 7.53207C31.3827 7.42409 31.5394 7.41457 31.5906 7.49776C31.6554 7.60324 32.7358 7.57436 34.0434 7.4322C34.2411 7.4107 34.8649 7.3641 35.4297 7.32864C36.4431 7.26501 37.9871 7.05092 38.8513 6.85421C39.0954 6.79867 39.3383 6.78009 39.3912 6.81292C39.444 6.84576 40.1595 6.77028 40.981 6.6452C42.1966 6.46012 42.5185 6.4413 42.7098 6.54417C42.902 6.64759 43.1483 6.63024 44.0649 6.4487C45.5906 6.1465 47.5815 5.75363 48.5737 5.55898C49.0255 5.47033 49.6819 5.33192 50.0324 5.25142C50.3829 5.17091 50.8218 5.10527 51.0079 5.10555C51.194 5.10555 51.5541 5.03918 51.8083 4.95743C52.2366 4.81966 53.1136 4.66672 55.4537 4.32168C56.6559 4.14442 56.8981 4.10351 58.1236 3.87068C58.6883 3.76338 59.6125 3.59894 60.1773 3.50525C60.7421 3.41156 61.3428 3.31187 61.5122 3.28372C62.7112 3.08457 62.9396 3.08827 63.178 3.31075C63.3067 3.43079 63.412 3.58173 63.412 3.64617C63.412 3.71062 63.4466 3.75784 63.489 3.75112C63.5313 3.74447 63.6716 3.74447 63.8007 3.75112C63.9969 3.76133 64.0185 3.79492 63.9326 3.95618C63.8069 4.19227 63.9075 4.31961 64.0956 4.16264C64.3074 3.98603 64.2592 4.14489 64.0156 4.42646C63.8878 4.57416 63.6312 4.70659 63.395 4.74669C63.0502 4.80525 63.0108 4.83752 63.1212 4.97123C63.287 5.17191 63.147 5.18436 69.7272 4.38413C70.179 4.32918 70.9877 4.26196 71.5243 4.23473C72.0608 4.20752 73.0312 4.13636 73.6807 4.0766C74.3302 4.01686 75.1851 3.94958 75.5804 3.92709C75.9757 3.90461 76.4819 3.83809 76.7053 3.77928C76.9286 3.72047 77.8147 3.6695 78.6742 3.66601C79.5338 3.66253 80.2984 3.63897 80.3732 3.61367C80.558 3.55124 82.9643 3.42454 83.5369 3.4471C83.7901 3.4571 84.0679 3.5295 84.1543 3.60805C84.3478 3.78408 84.8407 3.80172 87.1327 3.7147C88.1863 3.67468 89.1539 3.58371 89.4716 3.49479C89.8862 3.37875 90.5738 3.34699 92.3982 3.3596C93.7098 3.36873 95.8919 3.34104 97.2474 3.29822C99.9943 3.21142 99.8474 3.21044 102.69 3.33445C104.53 3.41474 105.592 3.41807 107.208 3.34864C107.49 3.33651 107.641 3.30534 107.542 3.27938C107.443 3.25343 107.362 3.18363 107.362 3.1243C107.362 3.05313 107.65 3.03687 108.209 3.07653C108.675 3.1096 110.073 3.18372 111.316 3.24125C112.558 3.29878 114.152 3.3935 114.858 3.45172C117.695 3.68567 118.776 3.76813 120.249 3.86264C123.933 4.09903 125.875 4.19323 127.9 4.23369C128.831 4.25233 129.987 4.29922 130.467 4.33789C130.947 4.37656 131.663 4.40404 132.058 4.39894C132.454 4.39393 133.239 4.43536 133.804 4.49119C134.369 4.54703 136.198 4.61316 137.869 4.63816C139.54 4.66316 141.111 4.72888 141.36 4.78421C141.61 4.83953 142.177 4.90996 142.62 4.9407C143.064 4.97144 143.572 5.02049 143.75 5.04969C144.357 5.14954 145.305 5.21743 146.691 5.26034C147.912 5.29812 149.098 5.38881 150.85 5.57834C151.133 5.60887 151.525 5.64682 151.723 5.66266C151.921 5.67851 152.429 5.72127 152.853 5.75771C153.276 5.79415 153.992 5.85236 154.444 5.8871C154.896 5.92181 155.289 5.96453 155.317 5.98202C155.345 5.99952 155.631 6.04187 155.952 6.0762C156.274 6.11051 156.604 6.1647 156.687 6.19661C156.769 6.22851 157.246 6.26845 157.746 6.28536C159.118 6.3318 159.116 6.33151 159.116 6.49833C159.116 6.58348 159.165 6.65313 159.225 6.65313C159.285 6.65313 159.301 6.59881 159.26 6.5324C159.209 6.45007 159.243 6.43365 159.365 6.48079C159.463 6.51883 159.646 6.54994 159.77 6.54994C159.923 6.54994 160.002 6.61703 160.012 6.75635C160.031 7.00307 159.975 7.01491 159.769 6.80795C159.554 6.59193 159.314 6.60812 159.386 6.83375C159.422 6.94489 159.411 6.97 159.357 6.89903C159.298 6.82042 159.009 6.80566 158.449 6.8527C157.485 6.93366 156.758 6.91138 155.42 6.75992C154.883 6.69919 154.19 6.62453 153.879 6.594C153.569 6.56348 153.261 6.5208 153.195 6.49913C153.129 6.47748 153.048 6.53019 153.015 6.61627C152.971 6.7322 152.873 6.75469 152.639 6.70298C152.271 6.62178 152.035 6.59091 151.056 6.49616C150.66 6.45792 150.309 6.40954 150.275 6.38866C150.203 6.34418 148.83 6.33687 146.948 6.37096C145.754 6.39257 144.912 6.3335 144.284 6.18402C143.93 6.09979 141.454 6.06335 141.454 6.14238C141.454 6.18302 141.766 6.24982 142.147 6.29083C142.529 6.33185 142.933 6.38372 143.046 6.40611C143.838 6.56319 145.96 6.73923 147.667 6.78947C148.062 6.80111 148.435 6.84207 148.494 6.8805C148.594 6.94441 151.738 7.19084 151.907 7.14795C151.947 7.13773 152.326 7.16186 152.75 7.20158C153.405 7.26296 155.077 7.3865 155.497 7.40449C155.648 7.41098 155.666 7.54421 155.527 7.6307C155.427 7.69277 154.653 7.7071 153.953 7.65984C153.739 7.64541 153.526 7.57248 153.48 7.49777C153.418 7.3967 153.242 7.37983 152.791 7.43186C152.458 7.47032 152.154 7.52026 152.116 7.54284C152.079 7.56543 151.978 7.51346 151.892 7.42735C151.806 7.34126 151.712 7.31057 151.682 7.35919C151.624 7.4535 149.551 7.41333 148.95 7.30625C148.753 7.27101 148.404 7.2326 148.176 7.2209C147.948 7.20919 147.659 7.14469 147.534 7.07756C147.353 6.97997 147.307 6.98313 147.307 7.09332C147.307 7.17443 147.17 7.24225 146.974 7.25819C146.162 7.32404 145.025 7.31779 144.124 7.24254C143.476 7.18842 143.199 7.19519 143.3 7.26274C143.704 7.53514 142.945 7.66949 141.762 7.53469C140.714 7.41519 140.526 7.4089 140.073 7.47801C139.839 7.51368 139.512 7.50607 139.345 7.4611C138.905 7.34267 136.619 7.13294 135.601 7.11764C135.121 7.11042 134.428 7.07275 134.061 7.03394C133.694 6.99514 132.954 6.93955 132.418 6.91041C131.881 6.88128 130.61 6.78916 129.594 6.7057C128.577 6.62224 127.065 6.52275 126.234 6.48461C124.879 6.42246 124.715 6.43309 124.656 6.58714C124.6 6.73365 124.422 6.75836 123.447 6.75462C122.818 6.75225 122.095 6.7879 121.841 6.83394L121.379 6.91767L122.149 7.03275C122.573 7.09604 123.081 7.14656 123.279 7.145C123.476 7.14331 124.285 7.21409 125.076 7.30199C125.866 7.38988 127.368 7.51366 128.413 7.57703C129.458 7.6404 130.415 7.71447 130.541 7.74165C130.667 7.76882 131.706 7.83627 132.852 7.89152C134.91 7.99084 136.352 8.07189 137.449 8.14995C137.76 8.17204 138.826 8.23714 139.817 8.29464C140.809 8.35213 141.687 8.41985 141.769 8.44512C141.85 8.4704 142.009 8.52621 142.122 8.56914C142.235 8.61206 142.505 8.66007 142.722 8.67584C142.939 8.69162 143.17 8.77814 143.236 8.86814C143.33 8.99809 143.598 9.03727 144.535 9.05846C145.185 9.07313 145.762 9.11371 145.818 9.1486C145.875 9.18349 146.268 9.2393 146.691 9.27261C148.716 9.43185 150.74 9.56119 151.672 9.59083C152.236 9.60881 153.438 9.70461 154.342 9.80374C155.245 9.90286 156.4 9.99938 156.909 10.0182C160.427 10.1486 163.237 10.3128 164.713 10.4743C165.221 10.53 166.112 10.6053 166.693 10.6418C167.273 10.6783 167.773 10.7479 167.803 10.7964C167.833 10.845 167.704 10.8884 167.517 10.893C167.33 10.8977 167.047 10.9109 166.888 10.9226C166.728 10.9342 166.578 10.9111 166.553 10.8711C166.528 10.8312 166.338 10.8459 166.129 10.9038C165.917 10.9626 165.452 10.979 165.077 10.941C164.707 10.9035 162.741 10.8547 160.708 10.8324C158.675 10.8102 156.249 10.7621 155.317 10.7254C153.656 10.6601 153.185 10.7 154.275 10.8139C154.577 10.8454 154.847 10.8938 154.874 10.9212C154.947 10.9948 154.572 11.1769 154.26 11.2189C153.898 11.2677 153.783 11.3984 154.093 11.4096C154.23 11.4146 154.942 11.4619 155.676 11.5148C156.411 11.5677 157.855 11.6384 158.885 11.672C160.58 11.7271 160.759 11.7503 160.759 11.9138C160.759 12.1408 161.173 12.1945 163.664 12.291C164.669 12.3299 165.515 12.401 165.544 12.4489C165.574 12.4968 165.8 12.536 166.048 12.536C166.891 12.536 166.655 12.8209 165.619 13.0531C165.326 13.1187 164.933 13.1637 164.746 13.1533C163.495 13.0836 163.823 13.2868 165.226 13.4509C165.791 13.5169 166.577 13.5935 166.972 13.621C167.367 13.6485 168.084 13.7173 168.564 13.7738C169.044 13.8304 170.014 13.9073 170.72 13.9448C171.589 13.9909 172.037 14.0565 172.106 14.1481C172.163 14.223 172.53 14.3133 172.928 14.3505C173.323 14.3875 173.693 14.4744 173.749 14.5437C173.806 14.613 174.19 14.7011 174.602 14.7393C175.015 14.7777 175.456 14.8772 175.582 14.9606C175.727 15.0561 176.171 15.1289 176.783 15.1576C178.103 15.2193 179.136 15.3356 179.194 15.4287C179.254 15.5267 178.355 15.6666 178.217 15.5808C178.16 15.5456 178.114 15.5608 178.114 15.6146C178.114 15.6684 178.275 15.7429 178.473 15.7802C178.863 15.8538 178.937 15.9821 178.653 16.0929C178.317 16.2237 178.787 16.4307 179.842 16.6176C180.729 16.7745 181.289 16.9684 180.881 16.977C180.497 16.9851 181.09 17.167 181.707 17.2305C182.073 17.2681 182.426 17.3437 182.492 17.3985C182.558 17.4532 182.904 17.5453 183.261 17.6032C184.253 17.7638 184.243 17.8929 183.23 17.9729C182.852 18.0027 182.506 18.0913 182.402 18.1848C182.256 18.3161 182.078 18.3318 181.426 18.2707C180.102 18.1464 179.84 18.1706 179.641 18.4354C179.544 18.565 179.485 18.7035 179.509 18.7432C179.533 18.7829 179.865 18.8479 180.245 18.8876C180.626 18.9274 180.984 18.9963 181.04 19.0409C181.097 19.0854 181.362 19.1547 181.631 19.1949C182.367 19.305 182.216 19.4508 181.365 19.4508C180.951 19.4508 180.577 19.4857 180.535 19.5282C180.492 19.5708 180.061 19.6056 179.577 19.6056C178.966 19.6056 178.685 19.6449 178.654 19.7346C178.624 19.8231 178.734 19.8638 179.004 19.8642C179.22 19.8644 179.559 19.9074 179.757 19.9595C179.954 20.0116 180.507 20.0835 180.985 20.1194C181.463 20.1554 181.907 20.2282 181.97 20.2813C182.034 20.3344 182.113 20.3508 182.146 20.3178C182.179 20.2847 182.313 20.2962 182.444 20.3434C182.629 20.4096 182.519 20.4441 181.964 20.4949C181.309 20.5548 180.562 20.7054 180.167 20.8572C179.917 20.9536 180.307 21.0595 181.477 21.2128C182.056 21.2886 182.529 21.3783 182.529 21.4119C182.529 21.4456 182.83 21.4539 183.197 21.4304C183.733 21.3961 183.864 21.4173 183.864 21.5386C183.864 21.7256 183.539 22.0316 183.343 22.0294C183.222 22.0281 183.223 22.0106 183.351 21.9278C183.482 21.8427 183.477 21.8275 183.322 21.8262C183.221 21.8252 183.111 21.8967 183.078 21.9848C183.026 22.1212 182.84 22.1369 181.823 22.091C180.549 22.0333 180.235 22.1016 180.47 22.3859C180.863 22.8621 182.467 23.3727 183.569 23.3727C184.235 23.3727 184.583 23.4979 184.583 23.7376C184.583 23.8575 184.419 23.8882 183.787 23.8863C183.349 23.885 182.806 23.8349 182.58 23.7751C182.355 23.7153 181.29 23.6454 180.215 23.6197C178.314 23.5742 178.26 23.5786 178.245 23.7804C178.23 23.9789 178.355 24.1218 178.576 24.1576C178.632 24.1668 179.075 24.2495 179.56 24.3413C181.147 24.6419 182.556 24.825 183.999 24.918C185.335 25.0042 185.791 25.1224 185.653 25.347C185.621 25.3983 185.551 25.4128 185.497 25.3792C185.443 25.3457 185.412 25.3798 185.427 25.455C185.443 25.5306 185.376 25.5853 185.277 25.5775C185.179 25.5697 185.121 25.5995 185.148 25.6436C185.175 25.6877 185.04 25.7534 184.849 25.7895C184.434 25.8677 184.336 26.0537 184.548 26.3583C184.661 26.5206 184.673 26.6173 184.593 26.715C184.46 26.8753 184.547 26.9849 184.805 26.9849C184.909 26.9849 184.994 27.0044 184.994 27.0281C184.994 27.0518 185.024 27.1516 185.062 27.2498C185.124 27.4138 185.055 27.4228 184.215 27.3599C183.711 27.3222 183.126 27.2638 182.914 27.2301C182.608 27.1813 182.529 27.2016 182.529 27.3297C182.529 27.4183 182.455 27.5326 182.364 27.5838C182.128 27.716 182.27 28.3107 182.564 28.4302C182.775 28.5157 182.776 28.5206 182.58 28.5338C182.375 28.5476 182.375 28.5476 182.58 28.6363C182.781 28.7228 182.501 28.7598 181.451 28.7855C181.013 28.7963 180.681 28.9352 180.681 29.1076C180.681 29.1998 180.574 29.256 180.398 29.2569C180.243 29.2578 180.011 29.2866 179.882 29.3212C179.664 29.3801 179.66 29.3926 179.831 29.5229C179.931 29.5993 180.14 29.6632 180.294 29.665C180.449 29.6669 180.88 29.8309 181.253 30.0295C181.628 30.2299 182.08 30.3908 182.266 30.3908C182.888 30.3908 183.859 30.5222 183.811 30.5999C183.785 30.6424 183.842 30.6707 183.938 30.6629C184.034 30.6552 184.129 30.7288 184.149 30.8266C184.196 31.0537 183.59 31.4452 183.277 31.3899C183.152 31.3677 183.033 31.4003 183.012 31.4622C182.964 31.6082 181.765 31.6495 181.286 31.5217C181.083 31.4674 180.031 31.4104 178.95 31.395C177.122 31.369 176.583 31.4217 177.266 31.5596C177.422 31.5909 177.757 31.6638 178.011 31.7216C178.265 31.7794 178.669 31.8287 178.909 31.8312C179.149 31.8337 179.346 31.8821 179.346 31.9389C179.346 31.9956 179.418 32.0421 179.507 32.0421C179.595 32.0421 179.762 32.0931 179.878 32.1555C180.087 32.2676 180.086 32.2702 179.846 32.3907C179.424 32.6018 179.555 32.801 180.263 33.0272C180.626 33.1433 180.945 33.3058 180.971 33.3884C180.998 33.471 181.06 33.5655 181.11 33.5984C181.267 33.702 181.079 34.0204 180.902 33.9519C180.812 33.9172 180.767 33.9174 180.801 33.9523C180.836 33.9871 180.748 34.1326 180.605 34.2757C180.418 34.4639 180.225 34.5406 179.907 34.553C179.665 34.5624 179.486 34.6004 179.509 34.6376C179.532 34.6747 179.108 34.6823 178.568 34.6545C177.782 34.614 177.551 34.6353 177.413 34.7604C177.222 34.9341 176.213 35.0057 175.687 34.8829C175.486 34.836 175.34 34.8505 175.296 34.9215C175.258 34.984 175.117 35.0351 174.984 35.0351C174.675 35.0351 174.417 35.1341 174.417 35.2526C174.417 35.3033 174.484 35.3448 174.566 35.3448C174.648 35.3448 174.754 35.4152 174.802 35.5012C174.856 35.5983 175.257 35.7298 175.859 35.8475C177.046 36.0795 177.919 36.4342 177.837 36.6505C177.805 36.7336 177.713 36.7762 177.633 36.7452C177.552 36.7142 177.513 36.7308 177.544 36.7821C177.576 36.8334 177.48 37.0201 177.332 37.1969C177.134 37.4336 177.009 37.5011 176.857 37.4526C176.742 37.4161 176.676 37.4287 176.708 37.4808C176.74 37.5325 176.605 37.5793 176.409 37.5849C176.212 37.5905 175.727 37.675 175.331 37.7726L174.61 37.9502L174.839 38.1956C174.965 38.3305 175.111 38.441 175.164 38.441C175.216 38.441 175.417 38.5166 175.611 38.609C175.949 38.7702 175.957 38.7869 175.807 39.0165C175.709 39.1673 175.689 39.2796 175.755 39.32C175.811 39.3552 175.828 39.4323 175.792 39.4912C175.749 39.5603 175.694 39.5486 175.636 39.4582C175.578 39.3674 175.519 39.3552 175.469 39.4235C175.427 39.4815 175.254 39.596 175.084 39.6782L174.776 39.8275L175.101 39.8626C175.453 39.9005 175.641 40.1654 175.386 40.2637C175.3 40.297 175.204 40.2985 175.173 40.2671C175.141 40.2358 174.962 40.2969 174.774 40.4031C174.586 40.5092 174.257 40.6291 174.042 40.6696C173.827 40.7101 173.59 40.8057 173.514 40.8822C173.333 41.0632 173.263 41.0592 172.309 40.814C171.452 40.5938 171.211 40.6144 170.86 40.9371C170.662 41.1192 170.582 41.1281 170.045 41.0285C169.341 40.8977 168.015 40.881 168.091 41.0038C168.12 41.051 168.481 41.1474 168.893 41.218C169.942 41.3979 170.061 41.4365 169.888 41.5436C169.589 41.7292 170.927 42.1673 172.235 42.3121C172.588 42.3512 172.899 42.4196 172.927 42.4641C172.954 42.5086 172.879 42.6688 172.761 42.8202C172.562 43.0743 172.558 43.1093 172.711 43.279C172.802 43.3801 172.876 43.4881 172.876 43.5192C172.876 43.6467 171.138 43.4632 170.566 43.2753C169.744 43.0052 168.08 42.808 167.926 42.9625C167.845 43.0443 167.844 43.1145 167.923 43.2108C168.031 43.3408 168.195 43.3965 169.565 43.7653C169.992 43.8803 170.207 43.9901 170.207 44.0936C170.207 44.2243 170.085 44.238 169.445 44.1796C168.957 44.1352 168.659 44.1486 168.617 44.217C168.581 44.2757 168.608 44.3238 168.677 44.3238C168.747 44.3238 168.779 44.3478 168.75 44.3772C168.681 44.4464 167.227 44.1396 167.082 44.0254C166.969 43.9356 165.469 43.7035 165.149 43.7262C165.05 43.7332 164.97 43.797 164.97 43.8681C164.97 43.9391 164.946 44.0599 164.916 44.1364C164.866 44.2685 166.12 44.5358 168.281 44.8533C168.606 44.901 169.039 45.0104 169.243 45.0963C169.448 45.1823 169.76 45.2529 169.937 45.2532C170.402 45.2541 171.07 45.4584 170.962 45.5669C170.912 45.6171 170.287 45.6715 169.572 45.6876C168.858 45.7038 168.281 45.7249 168.29 45.7346C168.3 45.7442 168.536 45.8422 168.815 45.9524C169.301 46.1443 169.313 46.158 169.09 46.2775C168.917 46.371 168.731 46.3746 168.347 46.2918C167.722 46.1571 167.639 46.1553 167.639 46.2765C167.639 46.3287 167.777 46.402 167.946 46.4392C168.508 46.5631 168.386 46.6975 167.713 46.6975C167.321 46.6975 166.924 46.763 166.732 46.8595C166.537 46.9572 166.318 46.9927 166.181 46.949C165.888 46.8556 161.067 46.8199 161.123 46.9116C161.243 47.1059 159.896 47.1049 158.746 46.9098C156.419 46.5148 154.438 46.2903 153.16 46.2766C152.455 46.269 151.392 46.199 150.799 46.121C150.206 46.043 149.149 45.9313 148.451 45.8727C147.753 45.8142 147.152 45.7485 147.116 45.7266C147.08 45.7048 146.704 45.6573 146.28 45.6211C145.857 45.5848 145.349 45.5355 145.151 45.5115C144.739 45.4615 142.866 45.3565 141.505 45.3072C140.521 45.2716 139.026 45.1766 138.014 45.0856C137.675 45.0551 136.358 45.0103 135.088 44.9861C133.817 44.9619 132.315 44.904 131.75 44.8575C131.185 44.811 129.623 44.7775 128.279 44.7832C126.246 44.7917 125.818 44.8191 125.738 44.9456C125.655 45.0746 125.626 45.0759 125.548 44.9537C125.487 44.8578 125.354 44.83 125.152 44.8707C124.985 44.9043 124.798 44.881 124.736 44.8187C124.675 44.7566 124.471 44.696 124.285 44.684C124.099 44.672 123.854 44.6347 123.741 44.6011C123.125 44.418 122.484 44.3647 122.226 44.4753C122.018 44.564 121.501 44.4592 121.572 44.3429C121.599 44.3 121.104 44.2525 120.473 44.2373C118.773 44.1962 118.597 44.1774 118.404 44.017C118.248 43.8865 118.232 43.8925 118.263 44.0712C118.287 44.2073 118.249 44.2602 118.144 44.2354C118.059 44.2152 117.886 44.1978 117.759 44.1967C117.632 44.1955 117.528 44.159 117.528 44.1154C117.528 44.0718 117.454 44.0074 117.363 43.9723C117.242 43.9259 117.214 43.9526 117.259 44.0698C117.301 44.181 117.281 44.2059 117.193 44.1499C117.123 44.1052 116.627 44.0541 116.09 44.0363C114.962 43.9988 115.13 43.9993 109.826 44.0181C107.596 44.026 105.485 43.9989 105.135 43.9579C104.786 43.9169 104.423 43.9134 104.328 43.95C104.153 44.0174 100.799 44.1505 99.7679 44.1309C98.9619 44.1156 98.0478 44.5918 98.5563 44.7621C98.6321 44.7875 98.5796 44.8606 98.4279 44.941C98.2869 45.0158 98.1458 45.1162 98.1145 45.1641C98.0011 45.3372 97.1292 45.4339 96.8816 45.3007C96.7256 45.2168 96.3121 45.1866 95.6619 45.2118C95.1209 45.2327 93.3439 45.2743 91.7131 45.3043C90.0822 45.3342 88.6357 45.387 88.4985 45.4216C88.3614 45.4562 87.7784 45.4916 87.2031 45.5003C86.6278 45.509 86.0646 45.5683 85.9517 45.6321C85.7496 45.7463 84.7973 45.9337 84.6378 45.8907C84.4414 45.8376 84.0766 45.851 83.7439 45.9233C83.5462 45.9663 83.2921 45.9937 83.1791 45.9842C83.0662 45.9747 82.8813 45.9587 82.7684 45.9487C82.6554 45.9387 82.124 45.985 81.5875 46.0517C81.0509 46.1183 80.4122 46.1719 80.168 46.1707C79.9238 46.1696 79.6697 46.2125 79.6032 46.2663C79.5368 46.32 79.3322 46.3962 79.1487 46.4356C78.8755 46.4943 78.8149 46.4756 78.8149 46.3327C78.8149 46.178 78.73 46.1664 78.0704 46.2311C77.661 46.2713 76.5866 46.3148 75.683 46.3279C74.7793 46.341 73.7911 46.4063 73.4868 46.4729C73.1826 46.5396 72.9113 46.5942 72.8838 46.5942C72.8564 46.5942 72.8914 46.6638 72.9617 46.749C73.0321 46.8341 73.2457 46.9038 73.4364 46.9038C73.6272 46.9038 73.7832 46.9232 73.7832 46.9469C73.7832 46.9707 73.8113 47.0636 73.8456 47.1534C73.9311 47.3773 73.6419 47.3662 73.4138 47.1369C73.2845 47.007 73.2231 46.9929 73.1923 47.0859C73.1688 47.1567 73.1073 47.1884 73.0557 47.1563C73.004 47.1243 72.9618 47.1356 72.9618 47.1815C72.9618 47.2274 72.8578 47.2707 72.7307 47.2777C72.6036 47.2846 71.8989 47.3429 71.1647 47.4071C70.4305 47.4714 68.9518 47.5425 67.8787 47.5653C66.8057 47.588 65.8122 47.6321 65.671 47.6632C65.1926 47.7687 62.5622 48.0132 61.1527 48.0833C58.5409 48.2131 56.5608 48.5885 56.1525 49.0313C56.0248 49.1698 55.7998 49.2817 55.6382 49.2869C54.3094 49.3303 52.464 49.4694 51.6542 49.5872C51.3153 49.6365 50.7208 49.7053 50.3331 49.7401C49.9454 49.7749 49.3962 49.8476 49.1125 49.9017C48.8289 49.9558 48.5801 50 48.5595 50C48.539 50 48.5222 49.8813 48.5222 49.7361ZM48.5222 48.797C48.5222 48.6841 48.4767 48.6757 48.3207 48.7596C48.2003 48.8244 48.1431 48.9308 48.1786 49.0239C48.2245 49.144 48.2707 49.1526 48.3802 49.0613C48.4583 48.9961 48.5222 48.8772 48.5222 48.797ZM65.825 47.262C66.2268 47.1172 66.2166 47.1151 65.3629 47.1654C63.408 47.2806 62.7957 47.3389 62.7957 47.4101C62.7957 47.5448 65.3929 47.4178 65.825 47.262ZM18.1268 46.0157C18.1268 45.9933 18.0575 45.9751 17.9728 45.9751C17.8881 45.9751 17.8187 46.0201 17.8187 46.0751C17.8187 46.13 17.8881 46.1483 17.9728 46.1156C18.0575 46.083 18.1268 46.038 18.1268 46.0157ZM25.5716 45.6655C25.6075 45.6072 25.5234 45.5623 25.3784 45.5623C25.2372 45.5623 25.0931 45.6087 25.0582 45.6655C25.0223 45.7238 25.1064 45.7687 25.2514 45.7687C25.3926 45.7687 25.5367 45.7222 25.5716 45.6655ZM20.694 45.1374C20.694 45.0309 20.571 45.0209 20.343 45.1089C20.0853 45.2083 20.1545 45.3322 20.4373 45.2779C20.5785 45.2508 20.694 45.1876 20.694 45.1374ZM78.7981 45.1206C79.1485 45.0225 79.1966 44.9848 79.024 44.9437C78.75 44.8784 75.4828 45.0164 73.7319 45.1671C73.2562 45.2081 76.9306 45.3081 77.6854 45.2748C78.0525 45.2585 78.5532 45.1892 78.7981 45.1206ZM82.3577 44.803C82.4706 44.7761 82.2627 44.7579 81.8956 44.7626C81.0194 44.7736 80.6725 44.8684 81.2281 44.945C81.454 44.9762 81.7544 44.9679 81.8956 44.9267C82.0368 44.8855 82.2447 44.8298 82.3577 44.803ZM16.8259 44.8333C17.0374 44.8271 17.036 44.8217 16.7986 44.7264C16.5186 44.6139 16.2784 44.6699 16.2784 44.8476C16.2784 44.9124 16.3514 44.937 16.4409 44.9025C16.5302 44.868 16.7035 44.8369 16.8259 44.8333ZM83.9003 44.7171C83.9277 44.6895 83.745 44.6591 83.4941 44.6496C83.2432 44.6401 83.0061 44.6842 82.967 44.7476C82.9172 44.8287 83.0379 44.8488 83.3732 44.8152C83.6356 44.7888 83.8728 44.7447 83.9003 44.7171ZM164.199 43.4981C164.239 43.4342 164.075 43.3996 163.769 43.4072C163.331 43.418 163.31 43.4282 163.583 43.4981C164.033 43.6131 164.129 43.6131 164.199 43.4981ZM5.92627 41.9827C5.85215 41.9529 5.76358 41.9566 5.72946 41.9909C5.69533 42.0252 5.75598 42.0496 5.86423 42.0451C5.98386 42.0402 6.00819 42.0157 5.92627 41.9827ZM7.13927 41.8468C7.34564 41.7804 7.35571 41.7636 7.19061 41.7612C7.07765 41.7595 6.89282 41.7981 6.77986 41.8468C6.51819 41.9598 6.78816 41.9598 7.13927 41.8468ZM8.51715 41.8874C8.60648 41.8529 8.67958 41.7413 8.67958 41.6392C8.67958 41.4811 8.61499 41.4618 8.24316 41.5085C7.7713 41.5677 7.46339 41.7436 7.83148 41.7436C7.9524 41.7436 8.07989 41.7901 8.1148 41.8468C8.18785 41.9656 8.2881 41.9757 8.51715 41.8874ZM175.341 40.0923C175.341 40.0356 175.26 39.9898 175.161 39.9907C175.008 39.992 175.004 40.0068 175.136 40.0923C175.329 40.2182 175.341 40.2182 175.341 40.0923ZM11.0606 35.8935C10.9865 35.8637 10.8979 35.8674 10.8638 35.9017C10.8297 35.936 10.8903 35.9604 10.9986 35.9559C11.1182 35.9509 11.1426 35.9265 11.0606 35.8935ZM10.2199 35.5924C10.2199 35.4242 9.93429 35.4053 9.5591 35.5487C9.15066 35.7047 9.24759 35.8146 9.75779 35.7738C10.0678 35.749 10.2199 35.6893 10.2199 35.5924ZM12.1273 35.6669C12.0247 35.5001 11.6575 35.4576 11.6575 35.6125C11.6575 35.6994 11.7629 35.7576 11.9203 35.7576C12.0648 35.7576 12.158 35.7168 12.1273 35.6669ZM11.3494 35.5512C11.464 35.4768 11.4048 35.4508 11.1184 35.4496C10.9066 35.4486 10.7333 35.4945 10.7333 35.5512C10.7333 35.6827 11.1471 35.6827 11.3494 35.5512ZM182.529 23.476C182.529 23.4192 182.483 23.3728 182.426 23.3728C182.37 23.3728 182.324 23.4192 182.324 23.476C182.324 23.5328 182.37 23.5792 182.426 23.5792C182.483 23.5792 182.529 23.5328 182.529 23.476ZM183.274 21.5499C183.203 21.5213 183.087 21.5213 183.017 21.5499C182.946 21.5786 183.004 21.602 183.145 21.602C183.286 21.602 183.344 21.5786 183.274 21.5499ZM181.733 20.3069C181.606 20.2823 181.398 20.2823 181.271 20.3069C181.144 20.3315 181.248 20.3517 181.502 20.3517C181.756 20.3517 181.86 20.3315 181.733 20.3069ZM176.984 19.4738C176.984 19.4296 176.603 19.3384 176.137 19.2711C175.671 19.2037 175.178 19.1165 175.043 19.0771C174.889 19.0327 174.819 19.0443 174.858 19.1077C174.893 19.1639 175.327 19.2689 175.824 19.3411C176.321 19.4133 176.773 19.4871 176.83 19.5051C176.886 19.5231 176.944 19.5415 176.958 19.546C176.972 19.5504 176.984 19.518 176.984 19.4738ZM27.2146 18.5221C27.398 18.4429 27.3904 18.4326 27.1437 18.4261C26.9917 18.4221 26.8388 18.4653 26.8039 18.5221C26.7281 18.6453 26.9293 18.6453 27.2146 18.5221ZM176.265 17.9174C176.265 17.8686 175.801 17.7758 175.235 17.711C173.958 17.5651 173.729 17.5621 173.859 17.6933C173.914 17.7484 174.466 17.8348 175.086 17.8853C175.706 17.9358 176.225 17.9837 176.239 17.9916C176.254 17.9996 176.265 17.9661 176.265 17.9174ZM21.4536 16.6815C21.4826 16.6342 21.4392 16.5955 21.3569 16.5955C21.2747 16.5955 21.2074 16.6342 21.2074 16.6815C21.2074 16.7288 21.2509 16.7675 21.304 16.7675C21.3572 16.7675 21.4245 16.7288 21.4536 16.6815ZM35.1921 16.4906C35.118 16.4608 35.0294 16.4645 34.9953 16.4988C34.9612 16.5331 35.0218 16.5575 35.1301 16.553C35.2497 16.548 35.2741 16.5236 35.1921 16.4906ZM19.2564 16.3547C19.2564 16.2979 19.1755 16.2522 19.0767 16.2531C18.9231 16.2544 18.9193 16.2692 19.051 16.3547C19.2448 16.4806 19.2564 16.4806 19.2564 16.3547ZM19.6671 16.1938C19.6671 16.1688 19.6209 16.1483 19.5644 16.1483C19.5079 16.1483 19.4617 16.1975 19.4617 16.2576C19.4617 16.3177 19.5079 16.3382 19.5644 16.3031C19.6209 16.268 19.6671 16.2188 19.6671 16.1938ZM25.5203 15.4752C25.6615 15.4355 26.1005 15.3643 26.4958 15.317C26.8912 15.2696 27.3764 15.1817 27.574 15.1217C27.7717 15.0617 27.9334 15.0165 27.9334 15.0213C27.9334 15.0608 28.6368 14.84 28.986 14.6908C29.5157 14.4644 29.5492 14.2906 29.063 14.2906C28.812 14.2906 28.7036 14.2439 28.7036 14.1358C28.7036 13.977 29.1632 13.9143 29.9261 13.9689C30.2584 13.9926 31.2067 13.8148 31.4238 13.6879C31.5859 13.5932 31.0677 13.4864 30.3917 13.4752C29.952 13.4679 29.5772 13.5406 29.1143 13.7229C28.7541 13.8648 28.3641 13.9817 28.2477 13.9825C28.0792 13.9838 28.0665 14.0034 28.1852 14.0789C28.2673 14.1311 28.3712 14.1508 28.4163 14.1229C28.4613 14.0949 28.4982 14.1159 28.4982 14.1696C28.4982 14.262 28.2734 14.3272 27.4891 14.4625C27.3012 14.4949 27.1226 14.5868 27.0921 14.6667C27.0467 14.7854 27.0072 14.7879 26.8753 14.6802C26.7403 14.57 26.7239 14.575 26.7746 14.7112C26.8188 14.8302 26.7757 14.8692 26.6141 14.8566C26.4926 14.8471 26.2398 14.8815 26.0524 14.933C25.8161 14.9979 25.6666 14.989 25.5646 14.904C25.4819 14.835 25.4176 14.8259 25.4176 14.8832C25.4176 14.997 24.6352 15.3227 24.3616 15.3227C24.2647 15.3227 24.1853 15.3861 24.1853 15.4638C24.1853 15.5688 24.323 15.5975 24.7245 15.5761C25.021 15.5603 25.3791 15.5149 25.5203 15.4752ZM29.7445 11.7323C29.6704 11.7075 29.561 11.7362 29.5013 11.7962C29.4251 11.8728 29.4652 11.8862 29.636 11.8413C29.7749 11.8049 29.8214 11.7581 29.7445 11.7323ZM153.776 11.3234C153.776 11.2808 153.636 11.2361 153.465 11.224C153.286 11.2115 153.179 11.2446 153.214 11.3014C153.286 11.4179 153.777 11.437 153.776 11.3234ZM30.0385 10.6732L30.2952 10.6653L30.0557 10.5688C29.7851 10.4597 29.3197 10.5437 29.3197 10.7016C29.3197 10.7591 29.423 10.7778 29.5508 10.7434C29.6778 10.7092 29.8973 10.6776 30.0385 10.6732ZM152.955 10.6955C152.955 10.6482 152.886 10.6095 152.801 10.6095C152.716 10.6095 152.647 10.6482 152.647 10.6955C152.647 10.7428 152.716 10.7815 152.801 10.7815C152.886 10.7815 152.955 10.7428 152.955 10.6955ZM153.385 10.711C153.311 10.6812 153.222 10.6849 153.188 10.7192C153.154 10.7535 153.215 10.7779 153.323 10.7734C153.443 10.7684 153.467 10.744 153.385 10.711ZM31.8035 10.5046C31.7293 10.4748 31.6408 10.4785 31.6066 10.5128C31.5725 10.547 31.6332 10.5714 31.7414 10.567C31.861 10.562 31.8854 10.5376 31.8035 10.5046ZM20.2832 10.3687C20.2832 10.3119 20.237 10.2655 20.1805 10.2655C20.1241 10.2655 20.0779 10.3119 20.0779 10.3687C20.0779 10.4255 20.1241 10.4719 20.1805 10.4719C20.237 10.4719 20.2832 10.4255 20.2832 10.3687ZM22.9531 10.0981C22.9531 9.98243 22.7603 10.0838 22.705 10.2285C22.6509 10.3701 22.666 10.3765 22.7967 10.2675C22.8827 10.1957 22.9531 10.1195 22.9531 10.0981ZM23.98 10.1107C23.98 10.0255 23.9618 9.95588 23.9396 9.95588C23.9174 9.95588 23.8727 10.0255 23.8402 10.1107C23.8076 10.1958 23.8258 10.2655 23.8805 10.2655C23.9352 10.2655 23.98 10.1958 23.98 10.1107ZM158.417 6.58276C158.343 6.55294 158.254 6.55662 158.22 6.59089C158.186 6.62519 158.247 6.64959 158.355 6.6451C158.474 6.64016 158.499 6.61571 158.417 6.58276ZM63.8696 4.49303C63.9021 4.44019 63.8865 4.37079 63.8351 4.33882C63.7836 4.30683 63.715 4.35007 63.6826 4.43489C63.6187 4.6021 63.773 4.65007 63.8696 4.49303ZM15.1285 48.7875C15.0694 48.7165 15.0614 48.6571 15.1106 48.6553C15.1599 48.6537 15.1138 48.6017 15.0082 48.5401C14.7373 48.3819 14.9773 48.2463 15.5083 48.2575C15.7856 48.2634 15.8523 48.288 15.7137 48.3333C15.518 48.3973 15.3721 48.66 15.5339 48.6571C15.8355 48.6515 16.0532 48.5167 16.0062 48.3645C15.9604 48.2159 15.9726 48.2172 16.1017 48.3747C16.2771 48.5886 17.0585 48.628 17.126 48.4263C17.1603 48.3238 17.2021 48.3245 17.3289 48.4297C17.5287 48.5954 17.6467 48.9983 17.4769 48.9353C17.4108 48.9108 17.3716 48.8282 17.3899 48.7517C17.4132 48.6545 17.3661 48.6647 17.2332 48.7855C17.0814 48.9236 16.8611 48.9542 16.1395 48.9375C15.5657 48.9242 15.1967 48.8694 15.1285 48.7875ZM13.7189 48.56C13.5821 48.475 13.6479 48.2457 13.809 48.2457C13.9261 48.2457 14.029 48.5371 13.9329 48.5968C13.8903 48.6232 13.794 48.6067 13.7189 48.56ZM15.8915 47.7296C15.7779 47.5468 15.7898 47.5214 15.9952 47.5075C16.1227 47.4988 16.2964 47.4842 16.3811 47.4749C16.655 47.4449 16.7066 47.5392 16.5259 47.7399C16.2977 47.9933 16.0529 47.9894 15.8915 47.7296ZM78.0962 46.9617C78.0962 46.9366 78.1424 46.8874 78.1988 46.8524C78.2553 46.8173 78.3015 46.8378 78.3015 46.8979C78.3015 46.958 78.2553 47.0072 78.1988 47.0072C78.1424 47.0072 78.0962 46.9867 78.0962 46.9617ZM79.301 46.8912C79.3707 46.8206 79.4535 46.7889 79.4851 46.8207C79.5168 46.8525 79.4598 46.9102 79.3585 46.9489C79.2121 47.0049 79.2004 46.9931 79.301 46.8912ZM24.1853 46.607C24.1853 46.5572 24.2566 46.457 24.3437 46.3843C24.4669 46.2816 24.5295 46.2797 24.6253 46.376C24.721 46.4722 24.7143 46.5214 24.5952 46.5971C24.4016 46.7201 24.1853 46.7253 24.1853 46.607ZM140.119 45.6655C140.119 45.6087 140.186 45.5623 140.267 45.5623C140.349 45.5623 140.444 45.6087 140.479 45.6655C140.514 45.7222 140.447 45.7687 140.331 45.7687C140.214 45.7687 140.119 45.7222 140.119 45.6655ZM138.374 45.5559C138.374 45.4384 138.649 45.4264 138.72 45.5408C138.747 45.5858 138.681 45.6294 138.572 45.6376C138.463 45.6459 138.374 45.6091 138.374 45.5559ZM36.538 45.3893C36.4456 45.1473 36.5864 45.1118 36.9413 45.2876C37.1265 45.3793 37.2318 45.4613 37.1753 45.4699C36.7425 45.5353 36.5862 45.5155 36.538 45.3893ZM125.332 45.1494C125.332 45.0927 125.353 45.0462 125.378 45.0462C125.402 45.0462 125.451 45.0927 125.486 45.1494C125.521 45.2062 125.501 45.2526 125.441 45.2526C125.381 45.2526 125.332 45.2062 125.332 45.1494ZM123.852 45.0601C123.808 44.9882 123.799 44.9014 123.833 44.8674C123.925 44.775 124.025 44.9108 123.976 45.0605C123.941 45.1654 123.917 45.1654 123.852 45.0601ZM124.228 45.0811C124.018 44.9958 124.083 44.8546 124.305 44.9131C124.418 44.9428 124.511 45.0081 124.511 45.0583C124.511 45.1567 124.431 45.1631 124.228 45.0811ZM173.458 44.5646C173.34 44.4459 173.384 44.3238 173.544 44.3238C173.629 44.3238 173.698 44.3934 173.698 44.4786C173.698 44.6398 173.577 44.6834 173.458 44.5646ZM46.0196 43.9324C45.9919 43.8874 46.0595 43.8438 46.1698 43.8354C46.28 43.8271 46.3434 43.8639 46.3106 43.9172C46.2378 44.0355 46.0878 44.0434 46.0196 43.9324ZM46.9452 43.7551C46.9775 43.6705 47.0798 43.5978 47.1726 43.5934C47.2654 43.589 47.5493 43.5645 47.8034 43.539C48.1367 43.5054 48.2226 43.5216 48.1115 43.5969C47.9844 43.6831 47.9829 43.7017 48.1029 43.703C48.1829 43.7039 48.2196 43.7335 48.1844 43.7689C48.1492 43.8042 47.8428 43.8502 47.5034 43.871C46.9894 43.9026 46.8963 43.8832 46.9452 43.7551ZM5.03857 43.5053C4.96262 43.3818 5.1558 43.2594 5.29257 43.3444C5.40741 43.4157 5.33202 43.6013 5.18821 43.6013C5.1384 43.6013 5.07106 43.5581 5.03857 43.5053ZM6.00971 40.8208C6.00971 40.7674 6.05539 40.6954 6.11122 40.6607C6.16943 40.6245 6.18664 40.6659 6.15158 40.7578C6.08331 40.9366 6.00971 40.9693 6.00971 40.8208ZM6.76275 40.7677C6.76275 40.685 6.80201 40.6418 6.85 40.6716C6.89798 40.7014 6.91066 40.769 6.87817 40.8219C6.79513 40.9569 6.76275 40.9417 6.76275 40.7677ZM185.712 27.2946C185.628 27.2396 185.605 27.1946 185.661 27.1946C185.718 27.1946 185.833 27.2396 185.918 27.2946C186.002 27.3497 186.026 27.3947 185.969 27.3947C185.913 27.3947 185.797 27.3497 185.712 27.2946ZM16.9972 19.6354C16.9972 19.5907 17.0897 19.5541 17.2026 19.5541C17.3156 19.5541 17.408 19.5977 17.408 19.6509C17.408 19.7041 17.3156 19.7407 17.2026 19.7322C17.0897 19.7236 16.9972 19.68 16.9972 19.6354ZM21.2974 18.1197L21.0566 17.9237L21.6711 17.8417C22.0091 17.7966 22.5282 17.7571 22.8246 17.7539C23.1211 17.7506 23.3637 17.7164 23.3637 17.6778C23.3638 17.5974 23.9755 17.7575 24.0709 17.8628C24.1056 17.9011 23.9915 17.9053 23.8172 17.872C23.6222 17.8348 23.3854 17.8728 23.2011 17.9706C23.0365 18.0581 22.6592 18.1341 22.3626 18.1396C22.0661 18.1451 21.8235 18.187 21.8235 18.2326C21.8235 18.3806 21.5444 18.3206 21.2974 18.1197ZM20.003 18.1501C20.0371 18.1158 20.1257 18.1121 20.1998 18.1419C20.2817 18.1749 20.2574 18.1993 20.1378 18.2043C20.0295 18.2088 19.9689 18.1844 20.003 18.1501ZM18.1349 16.7245C18.1305 16.6157 18.1547 16.5548 18.1888 16.5891C18.223 16.6234 18.2266 16.7124 18.1969 16.7869C18.1642 16.8692 18.1398 16.8448 18.1349 16.7245ZM20.9394 15.8571C20.9681 15.8104 20.897 15.6909 20.7814 15.5914C20.5746 15.4135 20.5814 15.4058 21.2066 15.1086C21.9596 14.7507 22.0289 14.7426 22.0289 15.013C22.0289 15.1402 21.9599 15.22 21.8492 15.221C21.7036 15.2223 21.697 15.2401 21.8148 15.315C21.8947 15.3658 22.0449 15.391 22.1485 15.371C22.2522 15.3509 22.337 15.3818 22.337 15.4397C22.337 15.4975 22.1868 15.5366 22.0032 15.5265C21.8197 15.5164 21.5771 15.5136 21.4641 15.5202C21.293 15.5302 21.2845 15.5489 21.4128 15.6323C21.5444 15.7178 21.5407 15.7325 21.3871 15.7339C21.2883 15.7348 21.2074 15.7819 21.2074 15.8387C21.2074 15.8955 21.1354 15.9419 21.0473 15.9419C20.9593 15.9419 20.9107 15.9037 20.9394 15.8571ZM22.2524 15.0243C22.1492 14.9601 22.1532 14.9171 22.2716 14.8183C22.4378 14.6797 22.5702 14.8007 22.4559 14.9867C22.4151 15.053 22.3253 15.0696 22.2524 15.0243ZM18.6916 10.6783C18.6567 10.6215 18.6974 10.5751 18.7821 10.5751C18.8669 10.5751 18.9647 10.6215 18.9996 10.6783C19.0345 10.7351 18.9938 10.7815 18.9091 10.7815C18.8244 10.7815 18.7265 10.7351 18.6916 10.6783ZM20.7947 10.2162C20.9426 10.0372 21.002 10.0185 21.002 10.1512C21.002 10.2019 20.9262 10.2727 20.8335 10.3084C20.6925 10.3628 20.6862 10.3477 20.7947 10.2162ZM165.923 8.55071C166.043 8.42973 166.701 8.33493 166.833 8.41941C166.91 8.46803 166.926 8.51314 166.869 8.51963C166.317 8.58332 165.876 8.59779 165.923 8.55071ZM165.299 8.42338C165.214 8.36895 165.278 8.33896 165.479 8.33896C165.651 8.33896 165.791 8.37766 165.791 8.42496C165.791 8.53481 165.472 8.53389 165.299 8.42338ZM162.659 8.29162C162.219 8.19272 161.152 8.12178 159.158 8.05893C158.476 8.03739 157.818 7.96664 157.697 7.9017C157.566 7.83103 157.106 7.79507 156.551 7.81214C156.042 7.82784 155.625 7.83012 155.625 7.81717C155.625 7.78126 156.223 7.47882 156.293 7.47882C156.328 7.47882 156.327 7.52527 156.293 7.58203C156.255 7.64224 156.36 7.68524 156.543 7.68524C156.716 7.68524 156.857 7.63879 156.857 7.58203C156.857 7.52527 156.906 7.47882 156.966 7.47882C157.026 7.47882 157.04 7.53688 156.998 7.60783C156.941 7.70322 156.959 7.70961 157.069 7.63232C157.15 7.57484 157.309 7.53313 157.422 7.53965C157.535 7.54614 157.873 7.55835 158.173 7.56676C158.472 7.57516 158.696 7.61686 158.67 7.65943C158.644 7.70201 158.907 7.73004 159.255 7.72173C159.602 7.71334 159.967 7.7499 160.066 7.80277C160.186 7.86695 160.246 7.86136 160.246 7.786C160.246 7.72389 160.302 7.70777 160.37 7.75018C160.438 7.79259 160.889 7.83995 161.371 7.85544C161.854 7.87092 162.248 7.88909 162.248 7.89582C162.248 7.90257 162.479 7.9231 162.762 7.9415C163.044 7.9599 163.287 7.98523 163.301 7.99781C163.325 8.01927 163.431 8.05053 163.609 8.08884C163.691 8.10642 163.209 8.40616 163.121 8.39218C163.093 8.38762 162.885 8.34245 162.659 8.29162ZM158.5 7.77562C158.5 7.72595 158.411 7.68531 158.301 7.68531C158.191 7.68531 158.077 7.72595 158.046 7.77562C158.016 7.82529 158.105 7.86592 158.245 7.86592C158.386 7.86592 158.5 7.82529 158.5 7.77562ZM163.993 7.47722C163.958 7.41953 163.885 7.39904 163.833 7.4317C163.78 7.46436 163.737 7.44463 163.737 7.38788C163.737 7.18805 163.903 7.18489 164.026 7.3824C164.094 7.49226 164.129 7.58213 164.104 7.58213C164.078 7.58213 164.028 7.53489 163.993 7.47722ZM161.795 7.07468C161.687 6.96587 161.577 6.8984 161.55 6.92472C161.524 6.95105 161.278 6.98814 161.003 7.00718C160.526 7.04014 159.936 6.82752 160.085 6.67699C160.205 6.55649 160.914 6.5847 161.069 6.71611C161.228 6.85067 161.517 6.85513 161.646 6.72497C161.755 6.61545 162.279 6.63947 162.352 6.75731C162.45 6.91772 162.304 7.27242 162.139 7.27242C162.058 7.27242 161.903 7.18347 161.795 7.07468ZM162.855 7.15333C162.811 7.08221 162.826 7.06208 162.893 7.1034C162.954 7.14149 163.033 7.12544 163.069 7.06775C163.164 6.91215 163.292 6.94071 163.292 7.11767C163.292 7.29947 162.961 7.32645 162.855 7.15333ZM42.7996 6.38449C42.8337 6.35018 42.9222 6.34651 42.9964 6.37635C43.0783 6.40929 43.054 6.43375 42.9343 6.43871C42.8261 6.44317 42.7654 6.41879 42.7996 6.38449ZM63.5146 3.45382C63.5146 3.39707 63.5349 3.35062 63.5598 3.35062C63.5847 3.35062 63.6337 3.39707 63.6686 3.45382C63.7035 3.51059 63.6831 3.55703 63.6233 3.55703C63.5635 3.55703 63.5146 3.51059 63.5146 3.45382ZM65.909 3.46427C65.7433 3.34186 65.7829 3.16597 65.9655 3.21393C66.0819 3.24454 66.1565 3.20244 66.1673 3.10015C66.1767 3.01085 66.1921 2.86813 66.2015 2.78298C66.211 2.69784 66.3034 2.62238 66.4069 2.61527C66.5105 2.60815 66.6298 2.59279 66.6722 2.58107C66.7146 2.56933 66.8878 2.5223 67.0573 2.47652C67.434 2.37475 67.6387 2.22271 67.5635 2.10045C67.5326 2.05012 67.5985 2.00894 67.7101 2.00894C67.8217 2.00894 67.9364 2.06699 67.9651 2.13795C68.0013 2.22758 68.0431 2.23315 68.102 2.15623C68.2528 1.95944 68.5672 1.89802 68.733 2.03298C68.8661 2.1413 68.8786 2.13859 68.8058 2.0172C68.739 1.90588 68.761 1.88727 68.8972 1.93979C68.9958 1.97783 69.1389 2.00894 69.2152 2.00894C69.2915 2.00894 69.3817 2.09705 69.4157 2.20475C69.4555 2.33063 69.5435 2.38322 69.6623 2.35202C69.9244 2.28313 69.8972 2.02795 69.633 2.07682C69.4242 2.11543 69.424 2.11402 69.6245 2.0183C69.7374 1.96437 69.9862 1.91697 70.1774 1.91298C70.3686 1.90896 70.8075 1.86018 71.1529 1.8045C72.0481 1.66021 74.2983 1.40736 75.3236 1.33586C75.8037 1.3024 76.4044 1.25661 76.6585 1.2341C77.194 1.18669 78.251 1.11122 79.6365 1.02149C80.173 0.986738 80.9123 0.932727 81.2795 0.901472C82.1618 0.82635 83.5507 0.820746 83.7439 0.891565C83.8287 0.922599 84.0944 0.983645 84.3344 1.02724C84.5744 1.07083 84.7708 1.14067 84.7708 1.18243C84.7708 1.2242 84.6566 1.37319 84.517 1.51352C84.3103 1.72124 84.167 1.76678 83.7464 1.75851C83.4391 1.7524 83.2437 1.79073 83.2643 1.85287C83.2833 1.91034 83.6547 1.96119 84.0895 1.96586C84.7724 1.97317 85.2273 2.1067 85.072 2.25424C85.0026 2.32025 83.6412 2.38548 83.6415 2.32279C83.6416 2.29209 83.3297 2.28151 82.9484 2.29926C82.567 2.31702 81.9899 2.28938 81.6659 2.23771C81.3419 2.18609 81.0549 2.16589 81.0281 2.19282C81.0013 2.21974 80.7812 2.25157 80.539 2.26355C80.2967 2.27553 79.9709 2.32121 79.8148 2.36508C79.6461 2.41251 79.4782 2.40076 79.4007 2.33606C79.329 2.27623 78.8235 2.21655 78.2774 2.20342C77.6014 2.1872 77.3057 2.14411 77.3507 2.06846C77.387 2.00737 77.3383 2.02132 77.2425 2.09948C77.1226 2.19723 76.9378 2.22064 76.6504 2.17445C76.3761 2.13036 76.255 2.14358 76.2976 2.21295C76.3703 2.3312 76.3568 2.33346 75.4263 2.35859C75.0592 2.3685 74.6548 2.41313 74.5278 2.45776C74.4007 2.5024 74.2967 2.50096 74.2967 2.45456C74.2967 2.40817 74.1812 2.3702 74.04 2.3702C73.8988 2.3702 73.7833 2.40504 73.7833 2.44761C73.7833 2.49018 73.7112 2.52501 73.6232 2.52501C73.5351 2.52501 73.4872 2.48579 73.5167 2.43783C73.588 2.32193 72.5331 2.49214 72.4565 2.6089C72.3164 2.82264 70.3946 3.03924 70.3946 2.84129C70.3946 2.78089 70.3457 2.73143 70.2859 2.73143C70.226 2.73143 70.2037 2.77467 70.2362 2.82751C70.3291 2.97857 70.0928 3.07158 69.94 2.9441C69.8375 2.85859 69.7893 2.86382 69.7508 2.96461C69.7176 3.05164 69.5486 3.09139 69.2767 3.07611C69.0444 3.06306 68.8543 3.09576 68.8543 3.14877C68.8543 3.31945 68.3267 3.20736 68.2243 3.01493C68.1698 2.91259 68.0805 2.85659 68.026 2.89048C67.9714 2.92438 67.9504 2.99048 67.9792 3.03737C68.008 3.08426 67.964 3.14869 67.8815 3.18054C67.7989 3.2124 67.7036 3.19331 67.6696 3.13812C67.632 3.07694 67.5005 3.09796 67.3326 3.19196C67.0167 3.36886 66.0343 3.55677 65.909 3.46427ZM64.4388 2.99549C64.4388 2.81421 64.5004 2.78752 64.5884 2.93067C64.6209 2.98351 64.6005 3.05592 64.5431 3.09157C64.4857 3.12722 64.4388 3.08409 64.4388 2.99549ZM64.8257 2.81721C64.8854 2.75724 64.9948 2.72847 65.0689 2.75329C65.1458 2.77906 65.0993 2.82584 64.9604 2.86233C64.7896 2.90723 64.7495 2.89379 64.8257 2.81721ZM100.2 2.55534C100.073 2.53074 99.9685 2.47516 99.9685 2.43184C99.9685 2.30554 100.415 2.37419 100.459 2.50729C100.481 2.57378 100.484 2.62185 100.465 2.61412C100.446 2.60636 100.327 2.57994 100.2 2.55534ZM98.0688 2.31855C98.3511 2.19664 98.5132 2.19664 98.3255 2.31855C98.2408 2.37358 98.1022 2.41606 98.0175 2.41293C97.9159 2.40919 97.9334 2.37704 98.0688 2.31855ZM98.6909 2.32816C98.6592 2.27669 98.7258 2.25889 98.8388 2.2886C99.0786 2.35162 99.1089 2.42175 98.8964 2.42175C98.815 2.42175 98.7225 2.37963 98.6909 2.32816ZM85.4713 2.0946C85.3097 1.93132 85.3831 1.91999 86.6522 1.91231C87.3965 1.90775 88.1085 1.8841 88.2344 1.85965C88.3602 1.83519 88.4872 1.85417 88.5165 1.90179C88.5458 1.94942 88.7112 1.97855 88.884 1.96652C89.3512 1.93401 89.3534 2.08427 88.8864 2.12904C88.6655 2.15021 88.5068 2.13179 88.5336 2.08822C88.6179 1.95114 88.4598 2.002 88.2989 2.16373C88.1242 2.33931 87.6904 2.37092 87.5945 2.21506C87.5523 2.14634 87.4633 2.14794 87.3296 2.2198C87.1023 2.34209 86.8883 2.25899 86.9928 2.08902C87.0385 2.01469 87.0131 2.00762 86.9174 2.06799C86.8381 2.11804 86.5191 2.18367 86.2084 2.21384C85.7639 2.257 85.607 2.23164 85.4713 2.0946ZM93.7046 2.21532C93.7046 2.15856 93.725 2.11212 93.7499 2.11212C93.7748 2.11212 93.8237 2.15856 93.8586 2.21532C93.8935 2.27209 93.8732 2.31853 93.8134 2.31853C93.7536 2.31853 93.7046 2.27209 93.7046 2.21532ZM89.5971 2.00891C89.5046 1.9488 89.4919 1.90823 89.5654 1.90728C89.6327 1.90634 89.7162 1.95214 89.7511 2.00891C89.8299 2.13705 89.7944 2.13705 89.5971 2.00891ZM129.705 1.99483C129.758 1.90843 129.367 1.80679 129.288 1.88643C129.177 1.99739 128.721 2.01835 128.721 1.91245C128.721 1.84695 128.429 1.83117 127.925 1.86948C127.308 1.91645 127.049 1.89224 126.77 1.76152C126.572 1.66886 126.488 1.61434 126.584 1.64036C126.679 1.66639 126.771 1.6473 126.789 1.59801C126.807 1.5487 126.891 1.49326 126.975 1.4748C127.06 1.45637 127.163 1.39482 127.205 1.33806C127.246 1.28129 127.281 1.33656 127.282 1.46095C127.283 1.67468 127.299 1.67893 127.566 1.53877C127.819 1.40577 127.863 1.40906 127.99 1.57069C128.126 1.74207 128.129 1.74205 128.071 1.57069C128.023 1.43131 128.065 1.39009 128.257 1.39009C128.394 1.39009 128.552 1.47136 128.61 1.57069C128.668 1.67093 128.716 1.69389 128.718 1.6223C128.721 1.48715 129.029 1.43608 129.029 1.57069C129.029 1.61327 129.378 1.64541 129.805 1.64214C130.232 1.63885 130.605 1.67368 130.633 1.71954C130.661 1.76539 130.783 1.8029 130.904 1.8029C131.08 1.8029 131.098 1.82871 130.995 1.93191C130.867 2.06108 129.627 2.12194 129.705 1.99525V1.99483ZM131.391 1.99173C131.391 1.94442 131.425 1.90259 131.468 1.89875C131.51 1.89492 131.693 1.87235 131.873 1.8486C132.28 1.79517 132.424 1.97222 132.034 2.04456C131.647 2.11608 131.391 2.09502 131.391 1.99173ZM123.997 1.64769C123.997 1.59094 123.824 1.5445 123.612 1.5445C123.401 1.5445 123.193 1.59094 123.152 1.64769C123.101 1.7165 123.076 1.7165 123.075 1.64769C123.072 1.5184 122.457 1.48781 122.457 1.61701C122.457 1.66897 122.415 1.6854 122.364 1.65352C122.266 1.59277 121.363 1.49524 120.403 1.44183C120.093 1.42454 119.839 1.39996 119.839 1.38721C119.839 1.31804 118.487 1.31697 118.401 1.38609C118.247 1.50945 117.22 1.59552 117.22 1.48508C117.22 1.43261 117.151 1.38969 117.066 1.38969C116.981 1.38969 116.912 1.4345 116.912 1.48929C116.912 1.55147 116.189 1.57053 114.987 1.54004C113.928 1.51319 112.95 1.4917 112.813 1.49229C112.677 1.49323 112.412 1.45055 112.223 1.39824C112.017 1.34104 111.88 1.34069 111.88 1.3973C111.88 1.49109 111.521 1.4759 111.424 1.37798C111.396 1.34974 110.928 1.34314 110.385 1.36333C109.731 1.38766 109.349 1.35922 109.253 1.27899C109.14 1.18472 109.107 1.18928 109.106 1.2996C109.105 1.38909 109.077 1.40155 109.029 1.33343C108.984 1.26872 108.4 1.22049 107.567 1.21277C106.805 1.20574 104.494 1.17334 102.433 1.14088C100.372 1.10843 97.7261 1.07568 96.5542 1.06812C95.3823 1.06065 94.4233 1.02532 94.4232 0.989805C94.4231 0.95427 94.1689 0.925205 93.8584 0.925205C93.5479 0.925205 93.2938 0.960038 93.2938 1.00261C93.2938 1.04518 93.2449 1.08002 93.1851 1.08002C93.1253 1.08002 93.1049 1.03357 93.1398 0.976807C93.1747 0.920047 93.1313 0.873606 93.0432 0.873606C92.9552 0.873653 92.8831 0.827208 92.8831 0.770451C92.8831 0.713684 92.8342 0.667239 92.7744 0.667239C92.7146 0.667239 92.6942 0.713684 92.7291 0.770451C92.7666 0.831407 92.6535 0.873012 92.4527 0.872071C92.1956 0.870763 92.1504 0.846168 92.267 0.770451C92.3808 0.696559 92.3856 0.669988 92.2853 0.668819C92.1808 0.667511 92.185 0.63165 92.3037 0.512428C92.3884 0.427284 92.5534 0.357617 92.6704 0.357617C92.7874 0.357617 92.8831 0.308042 92.8831 0.247451C92.8831 0.182104 92.9719 0.165612 93.1014 0.206917C93.2482 0.253761 93.2966 0.239155 93.2493 0.16227C93.2107 0.0994144 93.2064 0.0479957 93.2398 0.0479957C93.2732 0.0479957 93.3356 0.143512 93.3786 0.260259L93.4567 0.47253L93.7275 0.258442C93.9131 0.1117 94.0208 0.080856 94.0697 0.160407C94.1203 0.242686 94.1661 0.235713 94.2271 0.136429C94.2971 0.0226302 95.0016 -0.00288354 97.9881 0.000247726C100.009 0.00243494 102.495 0.0339223 103.511 0.0703964C104.528 0.106863 106.214 0.163629 107.259 0.196545C111.032 0.315373 112.004 0.35856 112.089 0.411073C112.278 0.528413 113.105 0.632499 113.23 0.554674C113.307 0.506716 113.397 0.52384 113.444 0.595285C113.503 0.687486 113.549 0.679554 113.624 0.56403C113.68 0.478884 113.726 0.455662 113.727 0.512428C113.728 0.577566 114.363 0.611032 115.449 0.603163C117.164 0.590713 120.095 0.757315 120.095 0.867291C120.095 0.899173 120.454 0.920029 120.891 0.913658C121.641 0.902722 123.369 1.04396 123.675 1.14127C123.788 1.17717 123.79 1.21575 123.686 1.34168C123.582 1.46859 123.584 1.48918 123.7 1.45228C123.779 1.42734 123.972 1.37847 124.13 1.34368C124.306 1.3047 124.394 1.23207 124.357 1.15445C124.324 1.08516 124.352 1.10116 124.417 1.19C124.514 1.32065 124.646 1.33667 125.107 1.27378C125.432 1.22955 125.755 1.23777 125.858 1.29284C125.957 1.34611 126.168 1.39601 126.327 1.40374C126.593 1.41668 126.596 1.4215 126.368 1.46472C126.177 1.50103 126.153 1.53251 126.266 1.60389C126.424 1.70489 126.291 1.71754 124.845 1.73859C124.34 1.7459 123.997 1.70916 123.997 1.64769ZM94.1527 0.719431C94.1203 0.634605 94.0525 0.590911 94.0019 0.622321C93.8569 0.712378 93.8947 0.873643 94.0608 0.873643C94.1524 0.873643 94.1885 0.813104 94.1527 0.719431ZM88.1637 1.07223C88.2693 0.873761 88.2631 0.851224 88.1177 0.90728C87.9727 0.963198 87.9662 0.940595 88.0707 0.744433L88.1919 0.516664L88.2941 0.746764C88.4113 1.01075 88.6234 1.04914 88.7101 0.822041C88.7426 0.736895 88.7321 0.667231 88.6868 0.667231C88.6415 0.667231 88.6045 0.596999 88.6045 0.51115C88.6045 0.384255 88.6973 0.367438 89.1008 0.42124C89.4399 0.46644 89.5971 0.450496 89.5971 0.370919C89.5971 0.306201 89.7596 0.254408 89.9626 0.254408C90.2022 0.254408 90.304 0.293502 90.2583 0.367912C90.2086 0.448603 90.2507 0.44792 90.4039 0.365539C90.5829 0.269247 90.6092 0.276231 90.5593 0.406843C90.5263 0.493296 90.4581 0.564036 90.4076 0.564036C90.3572 0.564036 90.3159 0.610479 90.3159 0.667236C90.3159 0.882374 90.5015 0.758032 90.624 0.460824C90.7668 0.114206 90.7705 0.112301 91.0279 0.250763C91.1578 0.320612 91.1979 0.429672 91.1624 0.616268C91.1346 0.762544 91.1523 0.868693 91.2017 0.852135C91.251 0.835591 91.3146 0.867425 91.3428 0.922911C91.3732 0.982572 91.1291 1.03092 90.7453 1.04128C90.1522 1.05729 90.0869 1.03754 89.9844 0.811413C89.8738 0.567587 89.4944 0.460664 89.4944 0.673326C89.4944 0.733452 89.5401 0.754253 89.5959 0.719577C89.6532 0.683985 89.6719 0.723504 89.6388 0.810172C89.6045 0.899956 89.5126 0.937801 89.4177 0.901198C89.3122 0.860495 89.2807 0.879775 89.3278 0.956303C89.4104 1.09064 89.0691 1.18983 88.6729 1.14663C88.5317 1.13124 88.3319 1.15992 88.2287 1.21037C88.0607 1.29257 88.054 1.27822 88.1637 1.07223ZM90.9728 0.684437C91.0019 0.637135 90.9604 0.598434 90.8807 0.598434C90.801 0.598434 90.7595 0.637135 90.7886 0.684437C90.8177 0.731737 90.8591 0.770443 90.8807 0.770443C90.9023 0.770443 90.9437 0.731737 90.9728 0.684437ZM86.7804 1.09179C86.7495 1.04148 86.8163 0.976122 86.9288 0.946539C87.0651 0.910711 87.1125 0.83786 87.0707 0.728397C87.0362 0.637994 87.0514 0.564027 87.1045 0.564027C87.2454 0.564027 87.2226 0.901161 87.0715 1.05303C86.9182 1.20708 86.8564 1.21531 86.7804 1.09179ZM87.4101 0.804844C87.439 0.729155 87.4759 0.667231 87.492 0.667231C87.5082 0.667231 87.545 0.729155 87.5739 0.804844C87.6028 0.880532 87.566 0.942457 87.492 0.942457C87.4181 0.942457 87.3812 0.880532 87.4101 0.804844ZM87.8061 0.515706C87.9158 0.432367 88.1067 0.362703 88.2305 0.360895C88.4754 0.35725 88.6315 0.513825 88.478 0.609148C88.4254 0.641799 88.3647 0.615167 88.3431 0.54987C88.3135 0.460708 88.2492 0.460537 88.0843 0.548937C87.7687 0.718727 87.5702 0.694801 87.8061 0.515418V0.515706ZM86.4416 0.501666C86.4757 0.467371 86.5643 0.463703 86.6384 0.493533C86.7204 0.526476 86.696 0.550934 86.5764 0.55588C86.4682 0.560348 86.4075 0.53596 86.4416 0.501666ZM91.8562 0.460809C91.7246 0.375316 91.7283 0.360529 91.8819 0.359178C91.9807 0.358243 92.0616 0.404041 92.0616 0.460809C92.0616 0.586685 92.05 0.586685 91.8562 0.460809ZM91.3048 0.303617C91.2558 0.175358 91.2821 0.166524 91.4478 0.255641C91.6858 0.383679 91.7084 0.460809 91.5078 0.460809C91.4291 0.460809 91.3378 0.390068 91.3048 0.303617Z" fill="#ECEEF0"/>
</svg>
