<svg width="70" height="60" viewBox="0 0 70 60" fill="none" xmlns="http://www.w3.org/2000/svg">
<path d="M45.2814 58.1371C45.177 58.0937 45.0591 58.068 44.9141 58.091C36.4983 59.4602 27.7789 57.6911 20.7432 52.8854C24.4847 51.321 28.3646 50.4575 32.4355 50.3314C32.6673 50.3246 32.834 50.2284 32.9371 50.0901C34.3103 50.9346 35.6565 51.824 36.9836 52.7485C34.4093 53.6134 31.8363 54.4783 29.262 55.3432C28.374 55.6414 28.881 57.0011 29.7649 56.7042C32.6673 55.7282 35.5711 54.7535 38.4748 53.7774C40.0975 54.9609 41.6904 56.1932 43.2344 57.4973C43.9488 58.0992 44.8693 56.9794 44.1563 56.3762C43.0569 55.4476 41.9181 54.5772 40.7781 53.7083C41.0356 53.5442 41.2064 53.2501 41.0817 52.8786C40.6086 51.4674 40.1341 50.0562 39.6597 48.6436C42.0917 51.2153 44.0248 54.34 45.2814 58.1371ZM25.1395 45.8144C21.3478 45.3847 17.5697 45.5203 13.8051 46.3079L13.5448 46.4177C11.4558 44.1579 9.45754 41.8099 7.27091 39.6626C13.4688 41.0562 19.4594 43.1005 25.1395 45.8144V45.8144ZM19.4092 51.9202L19.1232 51.7087C17.5276 50.4642 16.0771 49.0761 14.6876 47.6296C18.6514 46.8868 22.6018 46.8 26.6063 47.4425C27.0116 47.5063 27.2733 47.2623 27.3722 46.9586C28.6248 47.6039 29.8639 48.2736 31.0839 48.9812C27.1146 49.2428 23.3134 50.1389 19.6465 51.7535L19.4092 51.9202ZM38.9778 47.9523C38.5209 47.9387 38.0288 48.344 38.22 48.9121C38.647 50.1823 39.074 51.4525 39.4997 52.7227L39.4631 52.697C39.36 52.4041 39.0916 52.1764 38.7405 52.1995C37.332 51.1895 35.9005 50.2175 34.4378 49.2984C34.6926 49.0775 34.8309 48.7087 34.6086 48.3413C33.6515 46.7607 32.6931 45.1787 31.736 43.5966C31.252 42.7968 30.0686 43.6373 30.5498 44.4317C31.3551 45.7602 32.1589 47.0901 32.9628 48.4173C31.1002 47.2975 29.1982 46.2482 27.2583 45.2749C26.1968 43.5302 25.134 41.7869 24.0726 40.0435C23.5859 39.2437 22.4024 40.0856 22.8864 40.8786C23.5357 41.9441 24.1851 43.011 24.8345 44.0765C18.585 41.1836 11.9831 39.0553 5.15208 37.7227C4.58542 37.2401 4.00119 36.7737 3.39658 36.3291C15.7233 37.2658 30.219 39.3657 38.9778 47.9523V47.9523ZM0.818166 34.6983C-0.0169017 34.6427 -0.313787 35.6608 0.408763 36.077C1.43769 36.6707 2.40694 37.3323 3.33283 38.044C3.25014 38.4141 3.41012 38.8451 3.89137 38.9333C4.13674 38.978 4.37531 39.0444 4.62068 39.0905C10.4851 44.0928 14.6998 50.974 21.4345 55.0571C28.5136 59.3477 36.9104 60.8592 45.055 59.5361C45.3302 59.4914 45.4997 59.3247 45.5932 59.1254L45.6787 59.3965C45.9308 60.298 47.2905 59.7883 47.0397 58.8949C41.4342 38.8709 18.318 35.8546 0.818166 34.6983" fill="#2B7534"/>
<path d="M63.3371 26.8652C63.009 28.046 62.5901 29.14 62.0994 30.1567L61.9123 30.1486C57.7248 30.802 53.5576 30.8739 49.3525 30.3763C50.5454 28.4229 51.8129 26.5182 53.1671 24.6746L53.3027 24.7193C56.9738 25.1558 60.4564 24.4279 63.6584 22.5869C64.469 22.1206 63.6258 20.9385 62.8233 21.4007C60.1568 22.9326 57.2314 23.5738 54.1934 23.3393C55.7429 21.3207 57.3995 19.3835 59.1306 17.51C58.8446 18.0225 59.2919 18.8305 59.9873 18.558C61.4745 17.9737 62.9033 17.2715 64.2793 16.4568C65.0845 15.9809 64.2413 14.7975 63.4429 15.2706C62.174 16.0216 60.8576 16.6587 59.4844 17.1969L59.3136 17.3067C61.5002 14.956 63.817 12.7166 66.2964 10.6289C64.5653 15.7762 64.7781 21.6705 63.3371 26.8652V26.8652ZM57.2409 36.2842C57.0822 36.0293 56.7948 35.8748 56.4369 36.0402C54.6624 36.859 52.6453 36.4455 50.7542 36.3018C49.2508 36.1879 47.7473 36.0741 46.2453 35.9602C46.976 34.5219 47.7473 33.1093 48.5607 31.7211L48.7085 31.7713C52.9069 32.3054 57.0876 32.2674 61.2697 31.6859C60.1744 33.4889 58.8066 35.0031 57.2409 36.2842V36.2842ZM43.5191 41.8585C44.1536 40.324 44.8287 38.8124 45.5499 37.3267L45.699 37.3687C47.8436 37.5314 49.9882 37.7008 52.1328 37.8567C53.1156 37.9286 54.0483 37.9868 54.9702 37.8974C51.6353 39.9471 47.6701 41.1766 43.5191 41.8585ZM43.1301 33.1811C43.3564 34.3321 43.7279 35.4545 44.2715 36.5377L44.3027 36.577C43.6751 37.8662 43.0894 39.1771 42.5268 40.5029C42.2923 37.9001 42.5282 35.4667 43.1301 33.1811V33.1811ZM44.3556 29.7311C44.8802 28.572 45.4984 27.4536 46.2019 26.3786C46.309 27.7003 46.5368 29.0031 46.9245 30.2977C47.0126 30.5932 47.2214 30.7247 47.4505 30.7519C46.6466 32.1129 45.8807 33.497 45.154 34.9069C44.5101 33.2557 44.2241 31.53 44.3556 29.7311ZM47.567 24.478C48.7302 22.98 50.0424 21.5647 51.4672 20.2322C51.2747 21.5309 51.3018 22.8485 51.5499 24.154L51.6177 24.3194C50.4085 25.9895 49.2846 27.7193 48.2028 29.4775C47.7473 27.8454 47.525 26.1753 47.567 24.478V24.478ZM53.1699 19.1477C53.2132 18.9891 53.1902 18.8603 53.1455 18.7464C55.9137 16.3998 58.9842 14.3175 62.0682 12.4644C58.6886 15.6393 55.6141 19.0867 52.8282 22.7496C52.7374 21.5417 52.8499 20.3487 53.1699 19.1477V19.1477ZM68.1401 6.72062C67.827 7.20186 67.5558 7.69937 67.3023 8.20367C67.1044 8.11962 66.8753 8.10334 66.6435 8.22806C59.5088 12.0306 51.5906 17.0152 46.4622 23.5806C46.3131 23.6483 46.206 23.7771 46.164 23.9737C45.0036 25.5069 43.9977 27.1269 43.1884 28.835C43.0487 28.9312 42.9457 29.0858 42.9254 29.3149L42.924 29.3989C41.2335 33.2123 40.5232 37.4663 41.2756 42.2164C41.3258 42.5268 41.5278 42.7072 41.7609 42.7871C41.8179 42.9281 41.9168 43.0406 42.0415 43.1247C42.1581 43.3484 42.3831 43.5043 42.7139 43.4568C50.1807 42.3832 58.1261 39.7966 62.3 33.0253C67.0569 25.3117 64.4284 15.0849 69.2612 7.64245C69.7628 6.86703 68.6485 5.93706 68.1401 6.72062" fill="#48A038"/>
<path d="M29.144 9.3354C28.8038 9.30422 28.4635 9.47639 28.4283 9.91697C28.3727 10.5826 28.2697 11.2414 28.1829 11.903C27.4861 9.81935 26.8245 7.72082 26.1901 5.61417C27.0984 6.90473 28.1219 8.11533 29.144 9.3354ZM35.2064 30.1863C34.4175 28.3833 33.6583 26.5695 32.9195 24.7475C33.7003 23.1899 34.2982 21.5645 34.7998 19.9025C35.6267 23.2442 35.7351 26.7335 35.2064 30.1863V30.1863ZM26.2254 23.2482C27.76 23.7972 29.2823 24.3802 30.7762 25.0349C31.0351 25.1474 31.2629 25.0959 31.4419 24.9712C32.1332 26.6861 32.8571 28.3888 33.5933 30.0887C30.5078 28.5216 27.9674 26.1845 26.2254 23.2482V23.2482ZM24.6556 17.297C26.2118 18.2893 27.8304 19.1678 29.5019 19.9459C29.9493 21.1334 30.3939 22.3223 30.8616 23.5017C29.0247 22.7155 27.1608 22.0011 25.2656 21.3707C25.1219 21.048 24.9687 20.7308 24.844 20.3973C24.4143 19.2464 24.1553 18.0589 24.0008 16.8537C24.2367 17.0272 24.4726 17.1791 24.6556 17.297V17.297ZM34.248 18.0046C34.0148 18.0724 33.8047 18.2364 33.7274 18.5306C33.337 20.0205 32.7894 21.452 32.1671 22.8551C31.8377 22.02 31.5259 21.1782 31.2059 20.3377L31.2819 20.1669C31.6858 18.3002 32.2037 16.4674 32.8191 14.6603C33.3763 15.7502 33.8657 16.8619 34.248 18.0046ZM32.0749 13.2925C31.877 13.3277 31.6994 13.447 31.6086 13.7059C31.1124 15.128 30.6976 16.5731 30.3248 18.0304C29.8422 16.7209 29.3894 15.4018 28.9339 14.0828C29.178 14.0232 29.3908 13.8483 29.445 13.5243C29.6253 12.4222 29.7595 11.3146 29.853 10.2016C30.6556 11.1845 31.4147 12.2012 32.0749 13.2925V13.2925ZM24.3519 6.38962C24.5511 6.28253 24.7017 6.09272 24.7423 5.83109C25.3388 7.82251 25.9529 9.8058 26.6049 11.7755C25.6668 10.8551 24.8413 9.83968 24.1269 8.70908C24.2028 7.9296 24.2787 7.15691 24.3519 6.38962ZM23.9344 10.954C24.8223 12.1049 25.839 13.1461 26.9832 14.0611C27.1336 14.1831 27.2922 14.217 27.4441 14.2116C27.8697 15.4506 28.2832 16.6951 28.7319 17.9274C28.2195 17.6684 27.6976 17.4285 27.1974 17.1452C26.6497 16.8361 26.1088 16.5148 25.5774 16.1759C25.3428 16.0268 25.111 15.8749 24.8792 15.7204L24.6325 15.513C24.7803 15.0494 24.3451 14.4908 23.8246 14.5695C23.7948 13.3711 23.8463 12.1619 23.9344 10.954V10.954ZM33.867 31.8497C34.2263 32.0096 34.5313 31.8605 34.7103 31.6124L35.0098 31.5664C34.9841 32.3689 36.2679 32.5411 36.4414 31.6708C37.4812 26.4678 37.1151 21.124 35.1291 16.18C32.8693 10.5582 27.5051 6.92507 25.5001 1.31005C25.4405 1.14331 25.3374 1.04031 25.2209 0.965746L25.2398 0.816613C25.3971 -0.103859 23.9655 -0.335664 23.8083 0.58752C23.6077 1.76692 23.4924 2.95173 23.4152 4.14062C23.224 4.22196 23.0722 4.38597 23.0518 4.66795C22.6153 10.4226 21.5091 16.4077 23.8801 21.8899C25.8322 26.4068 29.4029 29.8583 33.867 31.8497" fill="#96D22E"/>
</svg>
