<svg width="48" height="48" viewBox="0 0 48 48" fill="none" xmlns="http://www.w3.org/2000/svg">
<path d="M16.6875 20H31.25L26.125 10.25C25.75 9.5 26.0625 8.5625 26.75 8.1875C27.5 7.8125 28.4375 8.125 28.8125 8.8125L34.625 20H40C41.0625 20 42 20.9375 42 22C42 23.125 41.0625 24 40 24L36.75 37C36.25 38.75 34.6875 40 32.875 40H15.0625C13.25 40 11.6875 38.75 11.1875 37L8 24C6.875 24 6 23.125 6 22C6 20.9375 6.875 20 8 20H13.3125L19.125 8.8125C19.5 8.125 20.4375 7.8125 21.1875 8.1875C21.875 8.5625 22.1875 9.5 21.8125 10.25L16.6875 20ZM17.9375 27C17.9375 26.5 17.5 26 16.9375 26C16.4375 26 15.9375 26.5 15.9375 27V33C15.9375 33.5625 16.4375 34 16.9375 34C17.5 34 17.9375 33.5625 17.9375 33V27ZM22.9375 27V33C22.9375 33.5625 23.4375 34 23.9375 34C24.5 34 25 33.5625 25 33V27C25 26.5 24.5 26 23.9375 26C23.4375 26 22.9375 26.5 22.9375 27ZM32 27C32 26.5 31.5 26 31 26C30.4375 26 30 26.5 30 27V33C30 33.5625 30.4375 34 31 34C31.5 34 32 33.5625 32 33V27Z" fill="#0B1513"/>
</svg>
