<svg width="48" height="48" viewBox="0 0 48 48" fill="none" xmlns="http://www.w3.org/2000/svg">
<g clip-path="url(#clip0_258_117)">
<path d="M35.4286 20.3143C35.4286 13.9714 30.3143 8.85714 24 8.85714C17.6857 8.85714 12.5714 13.9714 12.5714 20.2857C12.5714 20.2857 12.5714 20.2857 12.5714 20.3143C10.0286 20.4571 8 22.5714 8 25.1429V25.7143C8 28.4 10.1714 30.5714 12.8571 30.5714H13.1143L15.1429 33.8C16.5714 36.0857 19 37.4286 21.6857 37.4286H22.0857C22.3429 38.4 23.2286 39.1429 24.2857 39.1429C25.5429 39.1429 26.5714 38.1143 26.5714 36.8571C26.5714 35.6 25.5429 34.5714 24.2857 34.5714C23.2286 34.5714 22.3429 35.3143 22.0857 36.2857H21.6857C19.4 36.2857 17.3143 35.1143 16.1143 33.1714L14.4571 30.5714H14.8571C15.4857 30.5714 16 30.0571 16 29.4286V21.4286C16 20.8 15.4857 20.2857 14.8571 20.2857H13.7143C13.7143 14.6 18.3143 10 24 10C29.6857 10 34.2857 14.6 34.2857 20.2857H33.1429C32.5143 20.2857 32 20.8 32 21.4286V29.4286C32 30.0571 32.5143 30.5714 33.1429 30.5714H35.1429C37.8286 30.5714 40 28.4 40 25.7143V25.1429C40 22.5714 37.9714 20.4571 35.4286 20.3143ZM24.2857 35.7143C24.9143 35.7143 25.4286 36.2286 25.4286 36.8571C25.4286 37.4857 24.9143 38 24.2857 38C23.6571 38 23.1429 37.4857 23.1429 36.8571C23.1429 36.2286 23.6571 35.7143 24.2857 35.7143ZM14.8571 21.4286V29.4286H12.8571C10.8 29.4286 9.14286 27.7714 9.14286 25.7143V25.1429C9.14286 23.0857 10.8 21.4286 12.8571 21.4286H14.8571ZM38.8571 25.7143C38.8571 27.7714 37.2 29.4286 35.1429 29.4286H33.1429V21.4286H35.1429C37.2 21.4286 38.8571 23.0857 38.8571 25.1429V25.7143Z" fill="#0B1513"/>
<path d="M28.7429 13.1714C28.6857 13.1429 28.6 13.0857 28.5143 13.0286C28.4286 12.9714 28.3429 12.9143 28.2857 12.8857C28.0286 12.7143 27.6571 12.8 27.5143 13.0857C27.3714 13.3714 27.4286 13.6857 27.7143 13.8571C27.7714 13.8857 27.8571 13.9429 27.9429 14C28.0286 14.0571 28.1143 14.1143 28.2 14.1429C28.2857 14.2 28.4 14.2286 28.4857 14.2286C28.6857 14.2286 28.8571 14.1429 28.9714 13.9429C29.1143 13.6857 29.0286 13.3429 28.7429 13.1714Z" fill="#0B1513"/>
<path d="M24 11.7143C21.5714 11.7143 19.2857 12.7714 17.7143 14.6C17.5143 14.8286 17.5429 15.2 17.7714 15.4C17.8857 15.4857 18 15.5429 18.1429 15.5429C18.3143 15.5429 18.4571 15.4857 18.5714 15.3429C19.9429 13.7714 21.9143 12.8571 24 12.8571C24.5143 12.8571 25.0286 12.9143 25.5429 13.0286C25.8571 13.0857 26.1429 12.8857 26.2286 12.6C26.3143 12.3143 26.0857 12 25.8 11.9143C25.2 11.7714 24.6 11.7143 24 11.7143Z" fill="#0B1513"/>
</g>
<defs>
<clipPath id="clip0_258_117">
<rect x="8" y="8" width="32" height="32" rx="16" fill="white"/>
</clipPath>
</defs>
</svg>
