<svg width="48" height="48" viewBox="0 0 48 48" fill="none" xmlns="http://www.w3.org/2000/svg">
<path d="M39.5414 20.387C39.5414 20.4104 39.5388 20.4339 39.5362 20.4573C39.3903 23.9517 38.5779 27.0035 36.9036 29.4824C35.2137 31.9847 32.6619 33.8882 29.0503 35.0573C29.0399 35.0599 29.0295 35.0625 29.0217 35.0651V36.7993C29.0217 36.9321 28.9123 37.0441 28.7769 37.0441H18.0463C17.8744 37.0441 17.7338 36.9035 17.7338 36.7316V35.0547C17.7 35.0417 17.6687 35.0261 17.6375 35.0078C14.3253 33.4403 11.9897 31.3806 10.4429 28.9147C8.88842 26.441 8.1385 23.5742 8.0005 20.4104C7.98748 20.0954 8.23224 19.8272 8.54731 19.8142C8.55512 19.8142 8.56294 19.8142 8.57075 19.8142C8.57075 19.8142 8.89103 19.8142 9.46648 19.8142C9.35191 19.6892 9.25817 19.5486 9.18526 19.3897L9.49773 19.309C9.15402 18.9132 8.82593 18.507 8.69313 17.9836L9.0108 17.8977C8.73219 17.4212 8.52909 16.9707 8.48222 16.5723L8.83374 16.6218C8.57856 16.0021 8.43535 15.4474 8.44836 14.9813L8.8051 15.0803C8.58116 14.5387 8.51086 13.9242 8.53429 13.3513C9.04465 13.5206 9.54981 13.7836 10.0498 14.2028L10.0966 13.8434C10.482 13.9736 10.9559 14.3043 11.4923 14.773L11.5574 14.4319C11.9298 14.6585 12.2839 14.9761 12.6172 15.4032L12.8021 15.1454C13.1354 15.4058 13.453 15.812 13.7603 16.3692L13.9556 16.0984C14.2186 16.4057 14.4113 16.8223 14.4972 17.3925L14.7472 17.2207C14.8409 17.416 14.9034 17.6738 14.919 18.0227C15.0336 17.8664 15.169 17.718 15.3252 17.5826C15.6924 17.2025 16.3147 16.9707 17.174 16.877L16.5465 16.6218C16.4345 16.5489 16.484 16.5072 16.6636 16.489C17.4708 16.4577 18.1791 16.4968 18.7103 16.6556C18.7025 16.2052 18.5124 15.7547 18.2911 15.3042L18.8691 14.9267L19.0618 15.0621C19.2154 15.7365 19.3639 16.3614 19.4888 16.7025C19.8664 16.6843 20.1112 16.5827 20.3664 16.489C20.6814 16.3744 20.9444 16.2234 21.1736 16.0515C21.348 15.937 21.447 15.989 21.4339 16.2859C21.3819 16.5619 21.2387 16.7728 21.0225 16.9317C21.3871 16.916 21.723 16.9525 22.0302 17.0436C22.5015 17.1842 22.8947 17.4576 23.1968 17.8743C23.2905 18.0045 23.3738 18.1477 23.4494 18.3039C23.4702 18.3456 23.4884 18.3898 23.5066 18.4341C23.2645 16.2885 24.2644 13.9398 26.6834 12.3827C27.3239 11.9712 27.9931 11.5676 28.5842 11C28.6441 11.6562 28.5894 12.1822 28.3603 12.5181C28.9045 12.7472 29.1753 12.6248 29.644 12.4165C29.6726 12.9034 29.7872 13.4372 29.5633 13.8304C30.0111 13.7627 30.3392 13.7471 30.709 13.4555C30.8366 14.0335 30.7012 14.5621 30.5397 15.0464C31.1178 15.0595 31.5865 15.1584 31.9354 15.312C31.8964 15.023 31.8912 14.721 31.9224 14.4449C32.3234 14.7288 32.7921 15.0308 33.3051 15.049C33.1723 14.5725 33.0707 14.0544 33.2243 13.5023C33.5681 13.8044 33.8857 13.8382 34.3128 13.9268C34.1175 13.5336 34.2555 13.0258 34.3076 12.5571C34.7502 12.7837 35.0054 12.9165 35.5444 12.7238C35.3413 12.3905 35.3127 11.8775 35.4064 11.2448C35.948 11.8254 36.5755 12.2499 37.1718 12.6821C38.6873 13.7783 39.7887 15.1792 39.9762 17.1113C40.0752 18.1346 39.8617 19.1319 39.4034 20.0199H39.4138C39.4112 20.0225 39.5414 20.2386 39.5414 20.387ZM23.7983 19.7074L23.8035 19.7699H23.4598C23.4363 19.4939 23.3869 19.2101 23.3061 18.9158C23.2567 18.7492 23.1994 18.5981 23.1317 18.4575C23.0666 18.3169 22.9937 18.1919 22.913 18.08C22.6578 17.7258 22.3271 17.4967 21.9261 17.3769C21.5824 17.2754 21.1866 17.2519 20.7491 17.2988C21.2413 17.4446 21.598 17.7415 21.7256 18.3091C21.736 18.5955 21.6943 18.7075 21.5746 18.5435C20.9444 18.0435 20.3507 17.7961 19.8143 17.9315C19.9966 18.3638 20.3533 18.7023 20.7439 19.0226C20.0409 19.033 19.4159 18.7179 18.8483 18.1763C18.2129 18.4888 17.2886 18.4028 16.9396 18.8898C16.7365 19.1397 16.6975 19.0122 16.7522 18.671C16.9006 18.1268 17.1532 17.7753 17.5229 17.6399C16.9136 17.6633 16.5126 17.58 16.2835 17.4108C15.9736 17.5149 15.7314 17.6529 15.5648 17.83C15.5596 17.8326 15.557 17.8378 15.5518 17.8404C15.3356 18.0279 15.1638 18.244 15.0336 18.4784L15.2107 18.4211C15.2107 18.7622 15.0362 19.2257 14.7784 19.7465L15.0987 19.7907L15.0857 19.8142H23.8373C23.8243 19.7777 23.8113 19.7412 23.7983 19.7074ZM24.819 19.8194L26.4568 19.8428L25.9907 18.3794C26.8422 17.8404 27.4698 16.9577 27.889 15.7599C27.2693 16.614 26.5844 17.3222 25.9178 17.4967C25.0247 10.9219 25.4231 18.9991 25.6522 19.7803C25.1054 19.4079 24.6289 18.8924 24.2253 18.231C24.3243 18.8143 24.4987 19.3559 24.819 19.8194ZM26.7563 19.848L27.6416 19.861C28.0999 19.2465 28.3863 18.5304 28.5764 17.7545C28.0634 18.5383 27.4645 19.2413 26.7563 19.848ZM34.1305 19.9496L34.6851 19.9574C34.0446 18.8299 32.7452 18.3508 31.8235 17.4212C31.7219 17.317 31.623 17.2129 31.5292 17.1009C31.4823 17.1139 31.4355 17.1295 31.386 17.1426C30.8548 17.2884 32.0396 18.1086 33.3207 19.1996C33.6123 19.447 33.8909 19.6944 34.1305 19.9496ZM35.9298 19.973L36.8073 19.986C36.1094 19.3402 35.5314 18.5955 35.0549 17.7675C35.2059 18.5773 35.4663 19.3298 35.9298 19.973ZM36.9583 19.9886L38.5415 20.0094C38.8982 19.5694 39.1039 19.0382 39.2341 18.4575C38.8071 19.0747 38.3228 19.5486 37.7733 19.8793C38.0363 19.1371 38.8461 11.3489 37.6379 17.6581C37 17.455 36.3777 16.7338 35.823 15.8771C36.1667 17.0592 36.7266 17.942 37.5208 18.5096L36.9583 19.9886ZM29.105 11.6353C29.9122 11.2682 30.8079 11.0625 31.7531 11.0625C32.8754 11.0625 33.93 11.3515 34.8466 11.8619C34.8466 11.9582 34.8492 12.052 34.857 12.1405C34.8596 12.1822 34.8648 12.2264 34.87 12.2655C34.7684 12.2316 34.6643 12.1796 34.5367 12.1145V12.1119L34.5315 12.1093C34.2841 11.9817 33.9795 12.0806 33.8519 12.3306C33.8206 12.3931 33.8024 12.4608 33.7972 12.5259C33.792 12.5988 33.779 12.6847 33.766 12.7732C33.7425 12.9269 33.7217 13.0831 33.7087 13.2367C33.654 13.2055 33.6045 13.1716 33.5524 13.1274C33.3441 12.9425 33.0238 12.9633 32.839 13.1716C32.7791 13.2419 32.74 13.3227 32.7218 13.406C32.6385 13.7237 32.6228 14.0309 32.6463 14.3252C32.4927 14.2392 32.3442 14.1377 32.2036 14.0387C31.9771 13.8773 31.662 13.932 31.5032 14.1585C31.4537 14.2314 31.4225 14.3095 31.4146 14.3929H31.412C31.4016 14.471 31.3964 14.5543 31.3938 14.635C31.3261 14.622 31.2532 14.609 31.1829 14.5986C31.1985 14.5205 31.2141 14.4423 31.2246 14.3616C31.2714 14.0413 31.274 13.7054 31.1959 13.3513H31.1933C31.1777 13.2784 31.1464 13.2107 31.097 13.1482C30.9277 12.9269 30.6126 12.8904 30.3939 13.0623C30.3314 13.1118 30.2663 13.1508 30.1986 13.1821C30.196 13.0128 30.1804 12.8436 30.1648 12.6743C30.157 12.5936 30.1492 12.5155 30.1439 12.4165C30.1439 12.3488 30.1309 12.2811 30.1023 12.216C29.9903 11.9608 29.6909 11.8463 29.4357 11.9582L29.4305 11.9608H29.4279C29.2821 12.0259 29.1649 12.078 29.0477 12.1067C29.0581 12.0546 29.0659 12.0051 29.0737 11.9504C29.092 11.8515 29.0998 11.7447 29.105 11.6353ZM12.336 19.8116H12.6953C12.4505 19.4887 12.211 19.1632 11.9766 18.8351C11.1512 17.679 10.4065 16.5072 9.72948 15.26C9.52898 14.8902 9.33629 14.5179 9.15141 14.1403C9.12538 14.3538 9.63834 15.4735 10.0185 16.1843C10.7007 17.4524 11.4975 18.6476 12.336 19.8116ZM33.5993 24.4439C33.667 24.2173 33.904 24.0871 34.1305 24.1522C34.357 24.2199 34.4872 24.4569 34.4221 24.6834C34.2451 25.2849 34.0315 25.8864 33.7816 26.4775C33.5342 27.0608 33.2556 27.6284 32.9483 28.17C32.8312 28.3757 32.5708 28.4486 32.3651 28.3315C32.1594 28.2143 32.0864 27.9539 32.2036 27.7482C32.4979 27.2326 32.7635 26.6962 32.9926 26.1468C33.2269 25.5922 33.4301 25.0219 33.5993 24.4439ZM31.6646 28.6153C31.7974 28.4174 32.063 28.3653 32.2583 28.4981C32.4562 28.6309 32.5083 28.8965 32.3755 29.0918C32.1568 29.4173 31.9276 29.7271 31.6907 30.0214C31.4563 30.313 31.2089 30.589 30.9538 30.8494C30.7871 31.0187 30.5163 31.0213 30.347 30.8546C30.1778 30.688 30.1752 30.4172 30.3418 30.2479C30.5762 30.0084 30.8053 29.7532 31.0215 29.4824C31.248 29.2064 31.4615 28.9147 31.6646 28.6153ZM11.409 28.308C12.8307 30.5734 14.9893 32.4795 18.0515 33.9402H28.7899C32.0917 32.8544 34.4195 31.115 35.9532 28.8418C37.414 26.6754 38.1691 24.0142 38.3644 20.9599H9.17745C9.36754 23.6913 10.0654 26.1676 11.409 28.308Z" fill="black"/>
</svg>
