<svg width="48" height="48" viewBox="0 0 48 48" fill="none" xmlns="http://www.w3.org/2000/svg">
<path d="M42.9634 18.9053C42.8753 18.1128 42.1619 17.5417 41.3689 17.6298L38.1504 17.9875L40.9249 15.2129C41.4886 14.649 41.4886 13.7349 40.9249 13.1711C40.361 12.6073 39.4469 12.6073 38.883 13.1711L36.1086 15.9456L36.4661 12.7271C36.5542 11.9346 35.983 11.2208 35.1905 11.1328C34.3981 11.0452 33.6842 11.6159 33.5961 12.4084L33.0861 16.9989C32.1812 16.4634 31.1876 16.1767 30.182 16.1767C29.9658 16.1767 29.7522 16.1901 29.5415 16.2149C27.7378 13.4068 24.5781 11.9017 20.3175 11.8358L21.0437 9.96715C21.3326 9.22387 20.9642 8.38722 20.2209 8.09842C19.4778 7.80963 18.641 8.17793 18.3521 8.92121L17.2049 11.8727C16.887 11.846 16.569 11.8323 16.2528 11.8323C8.99644 11.8324 5 15.8179 5 23.0548C5 26.4931 6.31932 29.7444 8.71491 32.2098C10.5569 34.1055 12.881 35.3784 15.4169 35.9109L14.2942 37.826C13.962 38.3929 14.0543 39.1125 14.5189 39.577C14.7971 39.8553 15.1666 40 15.5402 40C15.7904 40 16.0425 39.935 16.2699 39.8017L34.8679 28.8996C36.5555 27.9105 37.6518 26.3411 37.876 24.5939C38.033 23.37 37.7523 22.123 37.0955 21.01L41.6879 20.4997C42.4804 20.4116 43.0515 19.6979 42.9634 18.9053ZM7.8876 23.0548C7.8876 18.299 9.85616 15.6165 13.8867 14.9105L13.3593 15.3171C12.7277 15.8038 12.6103 16.7104 13.0971 17.3421C13.3815 17.7111 13.8091 17.9046 14.2417 17.9046C14.5494 17.9046 14.8596 17.8067 15.1221 17.6043L16.6952 16.3919V17.9392C16.6952 18.7365 17.3416 19.383 18.139 19.383C18.9364 19.383 19.5829 18.7366 19.5829 17.9392V16.3919L21.156 17.6043C21.4185 17.8067 21.7286 17.9046 22.0363 17.9046C22.4688 17.9046 22.8965 17.7111 23.181 17.3421C23.6677 16.7105 23.5503 15.804 22.9188 15.3171L22.399 14.9165C24.3442 15.2656 25.82 16.0806 26.811 17.3537C26.188 17.8415 25.6405 18.4716 25.1971 19.2282L16.9819 33.2415C11.819 32.6708 7.8876 28.3472 7.8876 23.0548ZM35.0118 24.2264C34.9336 24.8357 34.6275 25.3996 34.1317 25.8691L31.0069 22.7442C30.443 22.1805 29.5289 22.1804 28.9651 22.7442C28.4012 23.308 28.4012 24.2221 28.965 24.786L31.6297 27.4508L19.5844 34.5118L23.644 27.5868L24.1556 28.0983C24.4375 28.3802 24.807 28.5213 25.1765 28.5213C25.5459 28.5213 25.9156 28.3803 26.1975 28.0985C26.7613 27.5346 26.7613 26.6205 26.1975 26.0567L25.1532 25.0124L27.6879 20.6886C28.2929 19.6566 29.202 19.0646 30.1823 19.0646C30.9559 19.0646 31.7179 19.4178 32.3861 20.0859L34.0103 21.7102C34.7672 22.4669 35.1229 23.3606 35.0118 24.2264Z" fill="#0B1513"/>
</svg>
