<svg width="48" height="48" viewBox="0 0 48 48" fill="none" xmlns="http://www.w3.org/2000/svg">
<path d="M39.9226 25.5022C39.2896 24.1038 38.1577 23.0578 36.7356 22.557C35.2354 22.0288 33.3571 22.1956 31.7106 23.003C31.3944 23.158 31.0608 23.255 30.7283 23.3102C30.6308 22.5508 30.782 21.8452 31.1814 21.2047C31.3092 20.9996 31.4493 20.8225 31.583 20.6748C31.9083 20.3156 31.9586 19.7856 31.6994 19.3761C31.3197 18.7765 30.4742 18.7055 29.9976 19.2313C29.807 19.4417 29.6098 19.6888 29.4246 19.9728C28.9462 20.7062 28.4838 21.7907 28.563 23.1777C28.3565 23.1201 28.1931 23.0585 28.0896 23.0065C27.1943 22.557 26.2226 22.3044 25.2761 22.2566C24.7626 21.2006 24.4927 20.0396 24.4927 18.8641C24.4927 17.6034 24.093 16.4057 23.3369 15.4005C22.6065 14.4294 21.5669 13.7003 20.4094 13.3473C20.3691 13.335 20.3281 13.325 20.2865 13.3176C20.2699 13.3146 20.2534 13.3122 20.2369 13.3093C20.5922 12.4314 21.2978 11.1775 22.6682 10.0396C23.1107 9.67216 23.218 9.02047 22.8771 8.55716C22.5095 8.05735 21.8033 7.97448 21.331 8.36378C20.4454 9.09359 19.7768 9.87118 19.2726 10.6116C18.7604 8.71373 16.3254 7.6256 13.5844 8.11825C11.6448 8.46655 9.52833 10.3991 8.43925 11.5202C8.09107 11.8786 7.93602 12.3862 8.02435 12.8779C8.11268 13.3697 8.43482 13.7916 8.88583 14.0064C10.1079 14.5884 12.2644 15.473 14.0804 15.473C14.1152 15.473 14.1494 15.4716 14.1838 15.4709C13.4033 16.4543 12.9578 17.6609 12.9578 18.8641C12.9578 20.6764 12.3171 22.4429 11.1536 23.8381C9.68154 25.6035 8.87081 27.8435 8.87081 30.1455C8.87081 35.5792 13.2915 40 18.7253 40C20.7221 40 22.666 39.3918 24.299 38.2717C26.1843 40.144 27.8918 40.1935 29.0997 39.8053C29.3886 39.7125 29.6546 39.5613 29.8965 39.353C30.1385 39.5613 30.4044 39.7125 30.6934 39.8053C31.0566 39.9221 31.4648 39.9993 31.9097 39.9993C33.3702 39.9992 35.2238 39.1665 37.1601 36.1666C38.4925 34.1024 39.493 31.6219 40.0977 29.9045C40.6105 28.4481 40.5483 26.8846 39.9226 25.5022ZM10.5796 12.4189C11.8874 11.1834 13.1208 10.3794 13.9633 10.228C15.6682 9.92187 17.0871 10.5028 17.2172 11.2268C17.2737 11.5418 17.0817 11.931 16.6902 12.2944C16.1724 12.7751 15.3793 13.1399 14.5142 13.2953C13.6716 13.4467 12.2354 13.1221 10.5796 12.4189ZM18.725 37.8563C14.4734 37.8564 11.0144 34.3973 11.0144 30.1455C11.0144 28.3443 11.6485 26.5918 12.7999 25.211C14.284 23.4313 15.1013 21.1773 15.1013 18.8641C15.1013 17.9091 15.5841 16.9354 16.3925 16.2594C17.0435 15.7151 17.8511 15.4081 18.7358 15.355C18.77 15.3583 18.8043 15.3605 18.8381 15.3605C18.8962 15.3605 18.9533 15.355 19.0093 15.3459C19.0104 15.3459 19.0116 15.3459 19.0128 15.3459C19.284 15.3459 19.5618 15.3692 19.8433 15.4164C21.3447 15.9019 22.3489 17.2796 22.3489 18.8642C22.3489 20.1309 22.5935 21.3845 23.0638 22.5548C23.0617 22.5556 23.0595 22.5563 23.0573 22.5571C22.9684 22.5884 22.8806 22.6219 22.7941 22.6573C21.4955 23.19 20.4637 24.1912 19.8703 25.5023C19.2445 26.8847 19.1823 28.4481 19.6952 29.9046C20.2999 31.6219 21.3004 34.1024 22.6328 36.1667C22.7319 36.3201 22.8307 36.4672 22.9292 36.6095C21.6849 37.4187 20.224 37.8563 18.725 37.8563ZM38.0757 29.1926C36.4342 33.8541 33.8048 38.554 31.3493 37.7646C31.2977 37.748 31.1022 37.583 30.8884 37.0606C30.7234 36.6579 30.3315 36.3948 29.8964 36.3948C29.4612 36.3948 29.0694 36.6579 28.9045 37.0607C28.6907 37.583 28.4951 37.7479 28.4436 37.7646C27.4094 38.0968 26.3444 37.4555 25.3353 36.2536C25.3118 36.2163 25.2867 36.1797 25.258 36.1447C23.7002 34.2422 22.4933 31.333 21.8466 29.5539C21.8387 29.5322 21.8309 29.5105 21.823 29.4889C21.8098 29.4522 21.7966 29.4158 21.7838 29.3802C21.7615 29.3177 21.7392 29.2551 21.7172 29.1926C21.3886 28.2596 21.4263 27.2631 21.8231 26.3863C21.9449 26.1173 22.0961 25.8698 22.2728 25.6471C22.4059 25.4795 22.554 25.3266 22.7144 25.1889C22.7354 25.171 22.7566 25.1532 22.778 25.1358C22.9843 24.9674 23.2101 24.8237 23.4531 24.709C23.5556 24.6606 23.661 24.6172 23.7692 24.5791C23.8354 24.5558 23.9036 24.535 23.9732 24.516C23.9938 24.5104 24.015 24.5058 24.0357 24.5006C24.0856 24.488 24.1358 24.4761 24.1871 24.4657C24.2118 24.4607 24.2369 24.4563 24.262 24.4519C24.3114 24.443 24.3614 24.435 24.4121 24.4281C24.4374 24.4247 24.4627 24.4214 24.4882 24.4185C24.542 24.4123 24.5966 24.4074 24.6517 24.4034C25.4484 24.3463 26.3356 24.5248 27.1277 24.9226C27.7067 25.2132 28.6987 25.4853 29.8112 25.5092C29.8393 25.5114 29.8677 25.5126 29.8961 25.5126C29.909 25.5126 29.9221 25.5115 29.9351 25.511C30.8209 25.5151 31.7751 25.3588 32.6543 24.9278C33.7782 24.3767 35.0692 24.2431 36.0234 24.5791C36.8887 24.8839 37.5799 25.5257 37.9695 26.3863C38.3666 27.2629 38.4042 28.2596 38.0757 29.1926Z" fill="#0B1513"/>
</svg>
