<svg width="48" height="48" viewBox="0 0 48 48" fill="none" xmlns="http://www.w3.org/2000/svg">
<path d="M9.13018 19.0992V19.077C9.13015 16.8889 9.7782 14.7497 10.9926 12.9295C12.2069 11.1092 13.9332 9.68943 15.9536 8.8492C17.974 8.00896 20.198 7.78595 22.345 8.20829C24.492 8.63064 26.4659 9.67941 28.0175 11.2223C29.2383 10.6197 30.6019 10.3664 31.9577 10.4903C33.3134 10.6141 34.6086 11.1104 35.7 11.9241C36.7914 12.7379 37.6366 13.8376 38.1422 15.1016C38.6479 16.3657 38.7942 17.7449 38.5651 19.0869C38.9019 19.1181 39.2287 19.2185 39.525 19.3817C39.8213 19.5448 40.0808 19.7673 40.2873 20.0353C40.4938 20.3032 40.6429 20.6108 40.7252 20.9389C40.8075 21.267 40.8213 21.6086 40.7657 21.9422C39.6531 28.6351 36.9011 32.8714 32.5147 34.6536V36.3077C32.5147 37.287 32.1257 38.2261 31.4332 38.9186C30.7408 39.611 29.8016 40 28.8224 40H18.9763C17.997 40 17.0579 39.611 16.3654 38.9186C15.673 38.2261 15.284 37.287 15.284 36.3077V34.6536C10.8976 32.8714 8.14557 28.6351 7.03296 21.9422C6.97927 21.6174 6.99127 21.2851 7.06827 20.9651C7.14527 20.645 7.2857 20.3436 7.48124 20.0787C7.67679 19.8139 7.92347 19.5909 8.2067 19.4231C8.48994 19.2553 8.80396 19.146 9.13018 19.1016V19.0992ZM11.5917 19.077H14.0532C14.0532 17.4449 14.7016 15.8797 15.8556 14.7256C17.0097 13.5716 18.575 12.9232 20.207 12.9232C21.8391 12.9232 23.4044 13.5716 24.5585 14.7256C25.7125 15.8797 26.3609 17.4449 26.3609 19.077H28.8224C28.8224 16.7921 27.9147 14.6008 26.299 12.9851C24.6833 11.3694 22.492 10.4617 20.207 10.4617C17.9221 10.4617 15.7308 11.3694 14.1151 12.9851C12.4994 14.6008 11.5917 16.7921 11.5917 19.077ZM16.5148 19.077H23.8993C23.8993 18.0978 23.5103 17.1586 22.8179 16.4662C22.1255 15.7737 21.1863 15.3847 20.207 15.3847C19.2278 15.3847 18.2886 15.7737 17.5962 16.4662C16.9038 17.1586 16.5148 18.0978 16.5148 19.077ZM33.4156 19.077H36.0519C36.2377 18.3496 36.255 17.5893 36.1025 16.8541C35.95 16.119 35.6317 15.4283 35.1719 14.8348C34.712 14.2413 34.1228 13.7606 33.449 13.4293C32.7752 13.0981 32.0347 12.925 31.2839 12.9232C30.6931 12.9232 30.1319 13.0266 29.6101 13.2161C30.0458 13.9152 30.4051 14.6684 30.6808 15.4586C31.1497 15.3423 31.6423 15.3662 32.0977 15.5274C32.553 15.6886 32.951 15.98 33.2423 16.3654C33.5335 16.7507 33.7052 17.2131 33.736 17.6952C33.7668 18.1772 33.6554 18.6577 33.4156 19.077ZM30.0532 35.077H17.7455V36.3077C17.7455 36.6341 17.8752 36.9472 18.106 37.178C18.3368 37.4088 18.6499 37.5385 18.9763 37.5385H28.8224C29.1488 37.5385 29.4619 37.4088 29.6927 37.178C29.9235 36.9472 30.0532 36.6341 30.0532 36.3077V35.077ZM16.8791 32.6154H30.9196C34.8236 31.36 37.295 27.8105 38.3386 21.5386H9.46003C10.5037 27.8105 12.9751 31.36 16.8791 32.6154Z" fill="#0B1513"/>
</svg>
