<svg width="48" height="48" viewBox="0 0 48 48" fill="none" xmlns="http://www.w3.org/2000/svg">
<path d="M33.375 30.625C34.1875 31.375 34.1875 32.6875 33.375 33.4375C33 33.8125 32.5 34 32 34C31.4375 34 30.9375 33.8125 30.5625 33.4375L24 26.875L17.375 33.4375C17 33.8125 16.5 34 16 34C15.4375 34 14.9375 33.8125 14.5625 33.4375C13.75 32.6875 13.75 31.375 14.5625 30.625L21.125 24L14.5625 17.4375C13.75 16.6875 13.75 15.375 14.5625 14.625C15.3125 13.8125 16.625 13.8125 17.375 14.625L24 21.1875L30.5625 14.625C31.3125 13.8125 32.625 13.8125 33.375 14.625C34.1875 15.375 34.1875 16.6875 33.375 17.4375L26.8125 24.0625L33.375 30.625Z" fill="#0B1513"/>
</svg>
