<svg width="48" height="48" viewBox="0 0 48 48" fill="none" xmlns="http://www.w3.org/2000/svg">
<path d="M19.5 12H28.5V9.5C28.5 8.6875 29.125 8 30 8C30.8125 8 31.5 8.6875 31.5 9.5V12H34C36.1875 12 38 13.8125 38 16V36C38 38.25 36.1875 40 34 40H14C11.75 40 10 38.25 10 36V16C10 13.8125 11.75 12 14 12H16.5V9.5C16.5 8.6875 17.125 8 18 8C18.8125 8 19.5 8.6875 19.5 9.5V12ZM13 23.5H18V20H13V23.5ZM13 26.5V30.5H18V26.5H13ZM21 26.5V30.5H27V26.5H21ZM30 26.5V30.5H35V26.5H30ZM35 20H30V23.5H35V20ZM35 33.5H30V37H34C34.5 37 35 36.5625 35 36V33.5ZM27 33.5H21V37H27V33.5ZM18 33.5H13V36C13 36.5625 13.4375 37 14 37H18V33.5ZM27 20H21V23.5H27V20Z" fill="black"/>
</svg>
