<svg width="48" height="48" viewBox="0 0 48 48" fill="none" xmlns="http://www.w3.org/2000/svg">
<g clip-path="url(#clip0_258_78)">
<path d="M24.512 20.8C24.3733 20.8043 24.24 20.8619 24.1419 20.9621L21.328 23.7675L19.5947 22.0395C19.1093 21.5339 18.3253 22.3147 18.832 22.7989L20.9472 24.9088C21.1573 25.1189 21.4987 25.1189 21.7099 24.9088L24.9045 21.7227C25.2565 21.3813 24.9973 20.8 24.5131 20.8H24.512ZM8.53333 25.0667H11.7333C12.0288 25.0667 12.2667 25.3045 12.2667 25.6C12.2667 25.8955 12.0288 26.1333 11.7333 26.1333H8.53333C8.23787 26.1333 8 25.8955 8 25.6C8 25.3045 8.23787 25.0667 8.53333 25.0667ZM8.53333 20.8H11.7333C12.0288 20.8 12.2667 21.0379 12.2667 21.3333C12.2667 21.6288 12.0288 21.8667 11.7333 21.8667H8.53333C8.23787 21.8667 8 21.6288 8 21.3333C8 21.0379 8.23787 20.8 8.53333 20.8ZM8.53333 16.5333H11.7333C12.0288 16.5333 12.2667 16.7712 12.2667 17.0667C12.2667 17.3621 12.0288 17.6 11.7333 17.6H8.53333C8.23787 17.6 8 17.3621 8 17.0667C8 16.7712 8.23787 16.5333 8.53333 16.5333ZM34.1333 28.2667C32.6667 28.2667 31.4667 29.4667 31.4667 30.9333C31.4667 32.4 32.6667 33.6 34.1333 33.6C35.6 33.6 36.8 32.4 36.8 30.9333C36.8 29.4667 35.6 28.2667 34.1333 28.2667ZM34.1333 29.3333C35.0229 29.3333 35.7333 30.0437 35.7333 30.9333C35.7333 31.8229 35.0229 32.5333 34.1333 32.5333C33.2437 32.5333 32.5333 31.8229 32.5333 30.9333C32.5333 30.0437 33.2437 29.3333 34.1333 29.3333ZM20.2667 28.2667C18.8 28.2667 17.6 29.4667 17.6 30.9333C17.6 32.4 18.8 33.6 20.2667 33.6C21.7333 33.6 22.9333 32.4 22.9333 30.9333C22.9333 29.4667 21.7333 28.2667 20.2667 28.2667ZM20.2667 29.3333C21.1563 29.3333 21.8667 30.0437 21.8667 30.9333C21.8667 31.8229 21.1563 32.5333 20.2667 32.5333C19.3771 32.5333 18.6667 31.8229 18.6667 30.9333C18.6667 30.0437 19.3771 29.3333 20.2667 29.3333ZM14.9333 14.4C14.0565 14.4 13.3333 15.1232 13.3333 16V27.7333C13.3333 28.6101 14.0565 29.3333 14.9333 29.3333H17.0667C17.7877 29.344 17.7877 28.256 17.0667 28.2667H14.9333C14.6283 28.2667 14.4 28.0384 14.4 27.7333V16C14.4 15.6949 14.6283 15.4667 14.9333 15.4667H28.8C29.1051 15.4667 29.3333 15.6949 29.3333 16V28.2667H23.4667C22.7627 28.2667 22.7755 29.344 23.4667 29.3333H30.9333C31.6373 29.3333 31.6309 28.2667 30.9333 28.2667H30.4V18.6667H34.9088L38.9333 24.9557V27.7333C38.9333 28.0384 38.7051 28.2667 38.4 28.2667H37.3333C36.6357 28.2667 36.6357 29.3333 37.3333 29.3333H38.4C39.2768 29.3333 40 28.6101 40 27.7333V24.8C40 24.6987 39.9712 24.5973 39.9168 24.512L35.6501 17.8453C35.552 17.6928 35.3835 17.6 35.2 17.6H30.4V16C30.4 15.1232 29.6768 14.4 28.8 14.4H14.9333Z" fill="black"/>
</g>
<defs>
<clipPath id="clip0_258_78">
<rect x="8" y="8" width="32" height="32" rx="16" fill="white"/>
</clipPath>
</defs>
</svg>
