<svg width="48" height="48" viewBox="0 0 48 48" fill="none" xmlns="http://www.w3.org/2000/svg">
<path d="M33.3812 15.05C33.3625 14.8187 33.1812 14.6375 32.95 14.6187L24.1187 13.9C23.9812 13.8875 23.8437 13.9375 23.75 14.0375L14.0375 23.75C13.95 23.8375 13.9 23.9562 13.9 24.0812C13.9 24.2062 13.95 24.325 14.0375 24.4125L23.5875 33.9625C23.6812 34.0562 23.8 34.1 23.9187 34.1C24.0375 34.1 24.1562 34.0562 24.25 33.9625L33.9625 24.25C34.0625 24.15 34.1125 24.0187 34.1 23.8812L33.3812 15.05ZM23.9187 32.9687L15.0312 24.0812L24.2562 14.8562L32.475 15.525L33.1437 23.7437L23.9187 32.9687Z" fill="black"/>
<path d="M29.8625 16.3125C29.375 16.3125 28.9187 16.5 28.5687 16.85C27.8562 17.5625 27.8562 18.7187 28.5687 19.4312C28.9125 19.775 29.375 19.9688 29.8625 19.9688C30.35 19.9688 30.8062 19.7812 31.1562 19.4312C31.8687 18.7187 31.8687 17.5625 31.1562 16.85C30.8062 16.5063 30.35 16.3125 29.8625 16.3125ZM30.4875 18.7688C30.3187 18.9375 30.0937 19.0312 29.8562 19.0312C29.6187 19.0312 29.3937 18.9375 29.225 18.7688C28.8812 18.425 28.8812 17.8562 29.225 17.5125C29.3937 17.3437 29.6187 17.25 29.8562 17.25C30.0937 17.25 30.3187 17.3437 30.4875 17.5125C30.8375 17.8562 30.8375 18.4188 30.4875 18.7688Z" fill="black"/>
<path d="M23.0875 20.5562C22.9062 20.375 22.6062 20.375 22.425 20.5562L18.5813 24.4C18.4 24.5812 18.4 24.8812 18.5813 25.0625C18.675 25.1562 18.7938 25.2 18.9125 25.2C19.0313 25.2 19.15 25.1562 19.2437 25.0625L23.0875 21.2187C23.2687 21.0375 23.2687 20.7437 23.0875 20.5562Z" fill="black"/>
<path d="M25.2625 22.7375C25.0812 22.5563 24.7812 22.5563 24.6 22.7375L20.7562 26.5812C20.575 26.7625 20.575 27.0625 20.7562 27.2437C20.85 27.3375 20.9687 27.3813 21.0875 27.3813C21.2062 27.3813 21.325 27.3375 21.4187 27.2437L25.2625 23.4C25.45 23.2125 25.45 22.9188 25.2625 22.7375Z" fill="black"/>
<path d="M26.7812 24.9125L22.9375 28.7563C22.7562 28.9375 22.7562 29.2375 22.9375 29.4188C23.0312 29.5125 23.15 29.5563 23.2687 29.5563C23.3875 29.5563 23.5062 29.5125 23.6 29.4188L27.4437 25.575C27.625 25.3938 27.625 25.0938 27.4437 24.9125C27.2562 24.7313 26.9625 24.7313 26.7812 24.9125Z" fill="black"/>
</svg>
