<svg width="48" height="48" viewBox="0 0 48 48" fill="none" xmlns="http://www.w3.org/2000/svg">
<path d="M24 30.5C25.875 30.5 27.5 32.125 27.5 34C27.5 35.9375 25.875 37.5 24 37.5C22.0625 37.5 20.5 35.9375 20.5 34C20.5 32.125 22.0625 30.5 24 30.5ZM24 20.5C25.875 20.5 27.5 22.125 27.5 24C27.5 25.9375 25.875 27.5 24 27.5C22.0625 27.5 20.5 25.9375 20.5 24C20.5 22.125 22.0625 20.5 24 20.5ZM24 17.5C22.0625 17.5 20.5 15.9375 20.5 14C20.5 12.125 22.0625 10.5 24 10.5C25.875 10.5 27.5 12.125 27.5 14C27.5 15.9375 25.875 17.5 24 17.5Z" fill="#0B1513"/>
</svg>
