<svg width="48" height="48" viewBox="0 0 48 48" fill="none" xmlns="http://www.w3.org/2000/svg">
<path d="M35.375 27.4375L25.375 37.4375C25 37.8125 24.5 38 24 38C23.4375 38 22.9375 37.8125 22.5625 37.4375L12.5625 27.4375C11.75 26.6875 11.75 25.375 12.5625 24.625C13.3125 23.8125 14.625 23.8125 15.375 24.625L22 31.1875V12C22 10.9375 22.875 10.0625 23.9375 10.0625C24.9375 10.0625 26 10.9375 26 12V31.1875L32.5625 24.625C33.3125 23.8125 34.625 23.8125 35.375 24.625C36.1875 25.375 36.1875 26.6875 35.375 27.4375Z" fill="#0B1513"/>
</svg>
