<svg width="48" height="48" viewBox="0 0 48 48" fill="none" xmlns="http://www.w3.org/2000/svg">
<path d="M8 16C8 13.8125 9.75 12 12 12H36C38.1875 12 40 13.8125 40 16V32C40 34.25 38.1875 36 36 36H12C9.75 36 8 34.25 8 32V16ZM11 16V17.4375L21.75 26.25C23.0625 27.3125 24.875 27.3125 26.1875 26.25L37 17.4375V16C37 15.5 36.5 15 36 15H12C11.4375 15 11 15.5 11 16ZM11 21.3125V32C11 32.5625 11.4375 33 12 33H36C36.5 33 37 32.5625 37 32V21.3125L28.125 28.5625C25.6875 30.5625 22.25 30.5625 19.8125 28.5625L11 21.3125Z" fill="#0B1513"/>
</svg>
