<svg width="48" height="48" viewBox="0 0 48 48" fill="none" xmlns="http://www.w3.org/2000/svg">
<path d="M18.6667 17.3333C18.6667 16.5973 19.2653 16 20 16C20.7347 16 21.3333 16.5973 21.3333 17.3333C21.3333 18.0693 20.7347 18.6667 20 18.6667C19.2653 18.6667 18.6667 18.0693 18.6667 17.3333ZM16 17.3333C16 19.5427 17.7907 21.3333 20 21.3333C22.2093 21.3333 24 19.5427 24 17.3333C24 15.124 22.2093 13.3333 20 13.3333C17.7907 13.3333 16 15.124 16 17.3333ZM24 30.6667C24 32.876 25.7907 34.6667 28 34.6667C30.2093 34.6667 32 32.876 32 30.6667C32 28.4573 30.2093 26.6667 28 26.6667C25.7907 26.6667 24 28.4573 24 30.6667ZM13.3333 17.3333C13.3333 16.876 13.38 16.4307 13.468 16H10.6667C9.93068 16 9.33334 16.596 9.33334 17.3333C9.33334 18.0707 9.93068 18.6667 10.6667 18.6667H13.468C13.38 18.236 13.3333 17.7907 13.3333 17.3333ZM21.3333 30.6667C21.3333 30.2093 21.38 29.764 21.468 29.3333H10.6667C9.93068 29.3333 9.33334 29.9293 9.33334 30.6667C9.33334 31.404 9.93068 32 10.6667 32H21.468C21.38 31.5693 21.3333 31.124 21.3333 30.6667ZM26.6667 17.3333C26.6667 17.7907 26.62 18.236 26.532 18.6667H37.3333C38.0693 18.6667 38.6667 18.0707 38.6667 17.3333C38.6667 16.596 38.0693 16 37.3333 16H26.532C26.62 16.4307 26.6667 16.876 26.6667 17.3333ZM34.6667 30.6667C34.6667 31.124 34.62 31.5693 34.532 32H37.3333C38.0693 32 38.6667 31.404 38.6667 30.6667C38.6667 29.9293 38.0693 29.3333 37.3333 29.3333H34.532C34.62 29.764 34.6667 30.2093 34.6667 30.6667Z" fill="black"/>
</svg>
