<svg width="48" height="48" viewBox="0 0 48 48" fill="none" xmlns="http://www.w3.org/2000/svg">
<path d="M24 16.8125C20 16.8125 16.8125 20.0625 16.8125 24C16.8125 28 20 31.1875 24 31.1875C27.9375 31.1875 31.1875 28 31.1875 24C31.1875 20.0625 27.9375 16.8125 24 16.8125ZM24 28.6875C21.4375 28.6875 19.3125 26.625 19.3125 24C19.3125 21.4375 21.375 19.375 24 19.375C26.5625 19.375 28.625 21.4375 28.625 24C28.625 26.625 26.5625 28.6875 24 28.6875ZM33.125 16.5625C33.125 15.625 32.375 14.875 31.4375 14.875C30.5 14.875 29.75 15.625 29.75 16.5625C29.75 17.5 30.5 18.25 31.4375 18.25C32.375 18.25 33.125 17.5 33.125 16.5625ZM37.875 18.25C37.75 16 37.25 14 35.625 12.375C34 10.75 32 10.25 29.75 10.125C27.4375 10 20.5 10 18.1875 10.125C15.9375 10.25 14 10.75 12.3125 12.375C10.6875 14 10.1875 16 10.0625 18.25C9.9375 20.5625 9.9375 27.5 10.0625 29.8125C10.1875 32.0625 10.6875 34 12.3125 35.6875C14 37.3125 15.9375 37.8125 18.1875 37.9375C20.5 38.0625 27.4375 38.0625 29.75 37.9375C32 37.8125 34 37.3125 35.625 35.6875C37.25 34 37.75 32.0625 37.875 29.8125C38 27.5 38 20.5625 37.875 18.25ZM34.875 32.25C34.4375 33.5 33.4375 34.4375 32.25 34.9375C30.375 35.6875 26 35.5 24 35.5C21.9375 35.5 17.5625 35.6875 15.75 34.9375C14.5 34.4375 13.5625 33.5 13.0625 32.25C12.3125 30.4375 12.5 26.0625 12.5 24C12.5 22 12.3125 17.625 13.0625 15.75C13.5625 14.5625 14.5 13.625 15.75 13.125C17.5625 12.375 21.9375 12.5625 24 12.5625C26 12.5625 30.375 12.375 32.25 13.125C33.4375 13.5625 34.375 14.5625 34.875 15.75C35.625 17.625 35.4375 22 35.4375 24C35.4375 26.0625 35.625 30.4375 34.875 32.25Z" fill="#0B1513"/>
</svg>
