<svg width="48" height="48" viewBox="0 0 48 48" fill="none" xmlns="http://www.w3.org/2000/svg">
<path d="M8 19.9375V19.625C8 15.25 11.125 11.5 15.4375 10.8125C18.25 10.3125 21.1875 11.25 23.25 13.3125L24 14L24.6875 13.3125C26.75 11.25 29.6875 10.3125 32.5 10.8125C36.8125 11.5 40 15.25 40 19.625V19.9375C40 22.5625 38.875 25.0625 37 26.8125L25.6875 37.375C25.25 37.8125 24.625 38 24 38C23.3125 38 22.6875 37.8125 22.25 37.375L10.9375 26.8125C9.0625 25.0625 8 22.5625 8 19.9375Z" fill="#0B1513"/>
</svg>
