<svg width="48" height="48" viewBox="0 0 48 48" fill="none" xmlns="http://www.w3.org/2000/svg">
<path d="M36.125 33.6875C36.125 33.25 35.875 32.9375 35.4375 32.9375C35 32.9375 34.75 33.25 34.75 33.6875C34.75 34.0625 35 34.375 35.4375 34.375C35.875 34.375 36.125 34.125 36.125 33.6875ZM16.75 32.9375C16.3125 32.9375 16 33.25 16 33.6875C16 34.0625 16.3125 34.375 16.75 34.375C17.125 34.375 17.4375 34.125 17.4375 33.6875C17.375 33.25 17.125 32.9375 16.75 32.9375ZM24.0625 32.9375C23.75 32.9375 23.5 33.125 23.5 33.4375H24.6875C24.625 33.125 24.375 32.9375 24.0625 32.9375ZM30.8125 32.9375C30.375 32.9375 30.125 33.25 30.125 33.6875C30.125 34.0625 30.375 34.375 30.8125 34.375C31.25 34.375 31.5 34.125 31.5 33.6875C31.5 33.25 31.25 32.9375 30.8125 32.9375ZM37.4375 34.5625C37.4375 34.5625 37.4375 34.5 37.375 34.5C37.375 34.5 37.375 34.5 37.3125 34.5C37.3125 34.4375 37.3125 34.4375 37.25 34.4375C37.25 34.4375 37.25 34.4375 37.1875 34.5C37.1875 34.5 37.1875 34.5 37.125 34.5V34.5625C37.0625 34.5625 37.0625 34.625 37.0625 34.625C37.0625 34.6875 37.0625 34.6875 37.125 34.6875C37.125 34.75 37.125 34.75 37.125 34.75C37.1875 34.75 37.1875 34.8125 37.1875 34.8125C37.25 34.8125 37.25 34.8125 37.25 34.8125C37.3125 34.8125 37.3125 34.8125 37.3125 34.8125C37.375 34.8125 37.375 34.75 37.375 34.75C37.4375 34.75 37.4375 34.75 37.4375 34.6875C37.4375 34.6875 37.4375 34.6875 37.4375 34.625V34.5625ZM37.3125 34.6875L37.375 34.75H37.3125L37.25 34.625V34.75H37.1875V34.5H37.25C37.3125 34.5 37.3125 34.5625 37.3125 34.5625C37.375 34.5625 37.375 34.5625 37.375 34.5625C37.375 34.625 37.375 34.625 37.3125 34.625V34.6875ZM42 13.0625C42 11.4375 40.625 10.0625 39 10.0625H9C7.3125 10.0625 6 11.4375 6 13.0625V35.0625C6 36.75 7.3125 38.0625 9 38.0625H39C40.625 38.0625 42 36.75 42 35.0625V13.0625ZM10 21.8125C10 17.0625 13.875 13.1875 18.625 13.1875C20.3125 13.1875 22 13.6875 23.4375 14.625C18.875 18.3125 18.875 25.3125 23.4375 29C22 29.9375 20.3125 30.5 18.625 30.5C13.875 30.5 10 26.625 10 21.8125ZM24 28.625C19.5625 25.1875 19.5625 18.5 24 15C28.375 18.5 28.375 25.1875 24 28.625ZM15.0625 33.375V34.8125H14.5625C14.5625 33.5625 14.6875 32.9375 14.0625 32.9375C13.375 32.9375 13.5 33.6875 13.5 34.8125H13C13 33.5625 13.125 32.9375 12.5 32.9375C11.75 32.9375 11.9375 33.625 11.9375 34.8125H11.4375V32.5H11.9375V32.8125C12.125 32.5625 12.375 32.4375 12.625 32.4375C12.9375 32.4375 13.1875 32.625 13.375 32.875C13.5625 32.5625 13.875 32.4375 14.1875 32.4375C14.75 32.5 15.0625 32.8125 15.0625 33.375ZM17.875 32.5V34.8125H17.375V34.5625C17.25 34.75 17 34.875 16.6875 34.875C16 34.875 15.5 34.375 15.5 33.6875C15.5 33 16 32.4375 16.6875 32.4375C17 32.4375 17.25 32.625 17.375 32.8125V32.5H17.875ZM20.4375 34.125C20.4375 35 19.0625 35.0625 18.375 34.625L18.625 34.1875C19.0625 34.5 19.875 34.5625 19.875 34.125C19.875 33.75 18.4375 34.125 18.4375 33.1875C18.4375 32.3125 19.75 32.3125 20.375 32.6875L20.125 33.125C19.75 32.875 19 32.8125 19 33.1875C19 33.625 20.4375 33.1875 20.4375 34.125ZM22.625 34.6875C22.3125 34.9375 21.1875 35.125 21.1875 34V33H20.75V32.5H21.1875V31.8125H21.75V32.5H22.5625V33H21.75V34C21.75 34.5625 22.25 34.4375 22.5 34.3125L22.625 34.6875ZM23.4375 33.875C23.625 34.5625 24.3125 34.5625 24.8125 34.1875L25.0625 34.5625C24.375 35.1875 22.9375 34.9375 22.9375 33.6875C22.9375 32.9375 23.4375 32.4375 24.0625 32.4375C24.6875 32.4375 25.1875 32.875 25.1875 33.875H23.4375ZM27.125 32.5L27 33C26.8125 32.875 26.1875 32.8125 26.1875 33.5V34.8125H25.6875V32.5H26.1875V32.8125C26.4375 32.4375 26.875 32.375 27.125 32.5ZM27.8125 33.6875C27.8125 34.375 28.5625 34.625 29.125 34.1875L29.375 34.625C28.6875 35.1875 27.3125 34.9375 27.3125 33.6875C27.3125 32.5 28.625 32.1875 29.375 32.75L29.125 33.125C28.5625 32.75 27.8125 32.9375 27.8125 33.6875ZM32 32.5V34.8125H31.5V34.5625C31 35.1875 29.625 34.875 29.625 33.6875C29.625 32.5 30.9375 32.125 31.5 32.8125V32.5H32ZM34.0625 32.5L33.9375 33C33.6875 32.875 33.125 32.8125 33.125 33.5V34.8125H32.625V32.5H33.125V32.8125C33.375 32.375 33.9375 32.4375 34.0625 32.5ZM36.625 31.625V34.8125H36.125V34.5625C35.625 35.1875 34.25 34.875 34.25 33.6875C34.25 32.5 35.625 32.125 36.125 32.8125V31.625H36.625ZM37.0625 26.875H36.9375H37.25H37.125V27.1875H37.0625V26.875ZM37.5 34.625C37.5 34.6875 37.5 34.6875 37.5 34.75C37.4375 34.75 37.4375 34.75 37.4375 34.8125C37.4375 34.8125 37.375 34.8125 37.375 34.875C37.3125 34.875 37.3125 34.875 37.25 34.875H37.1875C37.125 34.8125 37.125 34.8125 37.125 34.8125C37.0625 34.75 37.0625 34.75 37.0625 34.75C37.0625 34.6875 37.0625 34.6875 37.0625 34.625V34.5625C37.0625 34.5 37.0625 34.5 37.125 34.5C37.125 34.4375 37.125 34.4375 37.1875 34.4375L37.25 34.375C37.3125 34.375 37.3125 34.4375 37.375 34.4375C37.375 34.4375 37.4375 34.4375 37.4375 34.5C37.4375 34.5 37.4375 34.5 37.5 34.5625V34.625ZM37.6875 26.875V27.1875H37.625V26.9375L37.5625 27.125H37.5L37.375 26.9375V27.1875H37.3125V26.875H37.4375L37.5 27.0625L37.625 26.875H37.6875ZM38 21.8125C38 26.625 34.0625 30.5 29.3125 30.4375C27.625 30.4375 25.9375 29.9375 24.5625 29C29.125 25.3125 29.0625 18.3125 24.5625 14.625C25.9375 13.6875 27.625 13.1875 29.3125 13.1875C34.0625 13.1875 38 17.0625 38 21.8125Z" fill="#0B1513"/>
</svg>
