<svg width="48" height="48" viewBox="0 0 48 48" fill="none" xmlns="http://www.w3.org/2000/svg">
<path d="M22.6667 30.3267C22.6667 29.7747 23.1147 29.3267 23.6667 29.3267H36.3333C36.8853 29.3267 37.3333 29.7747 37.3333 30.3267C37.3333 30.8787 36.8853 31.3267 36.3333 31.3267H23.6667C23.1147 31.3267 22.6667 30.8787 22.6667 30.3267ZM10.6667 23.66C10.6667 23.108 11.1147 22.66 11.6667 22.66H36.3333C36.8853 22.66 37.3333 23.108 37.3333 23.66C37.3333 24.212 36.8853 24.66 36.3333 24.66H11.6667C11.1147 24.66 10.6667 24.212 10.6667 23.66ZM16 16.9933C16 16.4413 16.448 15.9933 17 15.9933H36.3333C36.8853 15.9933 37.3333 16.4413 37.3333 16.9933C37.3333 17.5453 36.8853 17.9933 36.3333 17.9933H17C16.448 17.9933 16 17.5453 16 16.9933Z" fill="black"/>
</svg>
