<svg width="48" height="48" viewBox="0 0 48 48" fill="none" xmlns="http://www.w3.org/2000/svg">
<path d="M17.625 24.1875C17.625 23.5625 17.1875 23.1875 16.625 23.1875C15.8125 23.1875 15.25 23.8125 15.25 24.5625C15.25 25.1875 15.6875 25.5 16.25 25.5C17 25.5 17.625 24.9375 17.625 24.1875ZM11 21.125H10.6875C10.625 21.125 10.5 21.1875 10.5 21.3125L10.25 23L10.75 22.9375C11.4375 22.9375 12 22.875 12.125 22.0625C12.25 21.25 11.6875 21.125 11 21.125ZM28.75 21.125H28.5C28.375 21.125 28.3125 21.1875 28.25 21.3125L28 23L28.5 22.9375C29.3125 22.9375 29.875 22.75 29.875 21.8125C29.875 21.1875 29.3125 21.125 28.75 21.125ZM42 13C42 11.375 40.625 10 39 10H9C7.3125 10 6 11.375 6 13V35C6 36.6875 7.3125 38 9 38H39C40.625 38 42 36.6875 42 35V13ZM14 21.5C14 23.3125 12.875 24.375 11.125 24.375C10.8125 24.375 10.0625 24.1875 10 24.625L9.6875 26.3125C9.6875 26.5 9.5 26.6875 9.375 26.6875H8.1875C8.0625 26.6875 7.9375 26.5625 8 26.4375L9 20.0625C9 19.875 9.1875 19.75 9.3125 19.75H11.8125C13 19.75 14 20.1875 14 21.5ZM19.25 22.0625C19.375 22.0625 19.5 22.1875 19.4375 22.3125L18.8125 26.3125C18.8125 26.5 18.625 26.6875 18.5 26.6875H17.375C17.25 26.6875 17.1875 26.5625 17.1875 26.4375C17.1875 26.3125 17.25 26.125 17.25 26C16.875 26.4375 16.1875 26.75 15.625 26.75C14.375 26.75 13.625 26 13.625 24.75C13.625 23.25 14.8125 21.9375 16.3125 21.9375C16.9375 21.9375 17.4375 22 17.8125 22.5625C17.8125 22.375 17.8125 22.0625 18.0625 22.0625H19.25ZM21.8125 28.1875C21.75 28.25 21.625 28.3125 21.5 28.3125H20.3125C20.1875 28.3125 20.125 28.25 20.125 28.125C20.125 27.9375 21.1875 26.375 21.375 26.125C21.25 25.8125 20.0625 22.3125 20.0625 22.25C20.0625 22.1875 20.125 22.0625 20.25 22.0625H21.4375C21.5625 22.0625 21.75 22.1875 21.75 22.3125L22.4375 24.625L24.125 22.1875C24.1875 22.125 24.3125 22.0625 24.375 22.0625H25.625C25.6875 22.0625 25.8125 22.1875 25.8125 22.25C25.8125 22.3125 25.8125 22.3125 25.75 22.375L21.8125 28.1875ZM31.75 21.5C31.75 23.3125 30.625 24.375 28.875 24.375C28.5625 24.375 27.8125 24.1875 27.75 24.625L27.4375 26.4375C27.4375 26.5625 27.3125 26.6875 27.1875 26.6875H25.9375C25.8125 26.6875 25.75 26.5625 25.75 26.4375L26.75 20.0625C26.75 19.875 26.9375 19.75 27.0625 19.75H29.5625C30.75 19.75 31.75 20.1875 31.75 21.5ZM37 22.0625C37.125 22.0625 37.25 22.1875 37.1875 22.3125L36.5625 26.3125C36.5625 26.5 36.375 26.6875 36.25 26.6875H35.125C35 26.6875 34.9375 26.5625 34.9375 26.4375C34.9375 26.3125 35 26.125 35 26C34.625 26.4375 33.9375 26.75 33.375 26.75C32.125 26.75 31.375 26 31.375 24.75C31.375 23.25 32.5625 21.9375 34.0625 21.9375C34.6875 21.9375 35.1875 22 35.5625 22.5625C35.5625 22.375 35.5625 22.0625 35.8125 22.0625H37ZM40 19.9375V20L38.9375 26.3125C38.9375 26.5 38.8125 26.6875 38.625 26.6875H37.625C37.5 26.6875 37.375 26.5625 37.375 26.4375L38.4375 19.9375C38.4375 19.8125 38.5 19.75 38.625 19.75H39.75C39.875 19.75 40 19.8125 40 19.9375ZM34.375 23.1875C33.5625 23.1875 33 23.8125 33 24.5625C33 25.1875 33.4375 25.5 34 25.5C34.75 25.5 35.375 24.9375 35.375 24.1875C35.375 23.5625 34.9375 23.1875 34.375 23.1875Z" fill="#0B1513"/>
</svg>
