<svg width="48" height="48" viewBox="0 0 48 48" fill="none" xmlns="http://www.w3.org/2000/svg">
<path d="M39.9375 32.1875L38.4375 38.5C38.25 39.4375 37.5 40.0625 36.5625 40.0625C20.8125 40 8 27.1875 8 11.4375C8 10.5 8.5625 9.75 9.5 9.5625L15.8125 8.0625C16.6875 7.875 17.625 8.375 18 9.1875L20.9375 16C21.25 16.8125 21.0625 17.75 20.375 18.25L17 21C19.125 25.3125 22.625 28.8125 27 30.9375L29.75 27.5625C30.25 26.9375 31.1875 26.6875 32 27L38.8125 29.9375C39.625 30.375 40.125 31.3125 39.9375 32.1875Z" fill="#0B1513"/>
</svg>
