<svg width="48" height="48" viewBox="0 0 48 48" fill="none" xmlns="http://www.w3.org/2000/svg">
<path d="M37.375 25.4375L27.375 35.4375C27 35.8125 26.5 36 26 36C25.4375 36 24.9375 35.8125 24.5625 35.4375C23.75 34.6875 23.75 33.375 24.5625 32.625L31.125 26H12C10.875 26 10 25.125 10 24C10 22.9375 10.875 22 12 22H31.125L24.5625 15.4375C23.75 14.6875 23.75 13.375 24.5625 12.625C25.3125 11.8125 26.625 11.8125 27.375 12.625L37.375 22.625C38.1875 23.375 38.1875 24.6875 37.375 25.4375Z" fill="#0B1513"/>
</svg>
