<svg width="48" height="48" viewBox="0 0 48 48" fill="none" xmlns="http://www.w3.org/2000/svg">
<path d="M23.9375 8C24.5625 8 25.0625 8.375 25.3125 8.875L29.625 17.6875L39.1875 19.125C39.75 19.1875 40.1875 19.625 40.375 20.125C40.5625 20.6875 40.4375 21.25 40 21.6875L33.0625 28.5625L34.6875 38.25C34.8125 38.8125 34.5625 39.4375 34.125 39.75C33.625 40.0625 33 40.125 32.5 39.875L23.9375 35.25L15.375 39.875C14.875 40.125 14.3125 40.0625 13.8125 39.75C13.375 39.4375 13.125 38.8125 13.1875 38.25L14.875 28.5625L7.9375 21.6875C7.5 21.25 7.375 20.6875 7.5625 20.125C7.75 19.625 8.1875 19.1875 8.75 19.125L18.3125 17.6875L22.625 8.875C22.875 8.375 23.375 8 23.9375 8ZM23.9375 12.9375L20.6875 19.75C20.4375 20.1875 20.0625 20.5 19.5625 20.5625L12.125 21.625L17.5 26.9375C17.875 27.3125 18 27.8125 17.9375 28.3125L16.6875 35.75L23.25 32.25C23.6875 32 24.25 32 24.6875 32.25L31.25 35.75L30 28.3125C29.875 27.8125 30.0625 27.3125 30.4375 26.9375L35.75 21.625L28.375 20.5625C27.875 20.5 27.4375 20.1875 27.25 19.75L23.9375 12.9375Z" fill="#FCB44F"/>
</svg>
