<svg width="48" height="48" viewBox="0 0 48 48" fill="none" xmlns="http://www.w3.org/2000/svg">
<path d="M29.8125 17.4375L38.75 18.75C39.5 18.875 40.125 19.375 40.375 20.125C40.625 20.8125 40.4375 21.625 39.875 22.125L33.375 28.5625L34.9375 37.6875C35.0625 38.4375 34.75 39.1875 34.125 39.625C33.5 40.125 32.6875 40.125 32 39.8125L24 35.5L15.9375 39.8125C15.3125 40.125 14.4375 40.125 13.875 39.625C13.25 39.1875 12.9375 38.4375 13.0625 37.6875L14.5625 28.5625L8.0625 22.125C7.5 21.625 7.3125 20.8125 7.5625 20.125C7.8125 19.375 8.4375 18.875 9.1875 18.75L18.1875 17.4375L22.1875 9.125C22.5 8.4375 23.1875 8 24 8C24.75 8 25.4375 8.4375 25.75 9.125L29.8125 17.4375Z" fill="#FCB44F"/>
</svg>
