<svg width="48" height="48" viewBox="0 0 48 48" fill="none" xmlns="http://www.w3.org/2000/svg">
<path d="M23.5 8.5C14.9375 8.5 8 15.4375 8 24C8 32.5625 14.9375 39.5 23.5 39.5C32.0625 39.5 39 32.5625 39 24C39 15.4375 32.0625 8.5 23.5 8.5ZM31.0625 19.125L28.5625 31.125C28.375 32 27.875 32.1875 27.125 31.8125L23.25 28.9375L21.375 30.75C21.1875 30.9375 21 31.125 20.625 31.125L20.875 27.1875L28.0625 20.6875C28.375 20.4375 28 20.25 27.5625 20.5L18.6875 26.125L14.875 24.9375C14.0625 24.6875 14.0625 24.0625 15.0625 23.6875L30 17.9375C30.6875 17.6875 31.3125 18.125 31.0625 19.125Z" fill="#0B1513"/>
</svg>
