<svg width="48" height="48" viewBox="0 0 48 48" fill="none" xmlns="http://www.w3.org/2000/svg">
<path d="M35.375 23.4375C35 23.8125 34.5 24 34 24C33.4375 24 32.9375 23.8125 32.5625 23.4375L26 16.875V36C26 37.125 25.0625 38 24 38C23 38 22 37.125 22 36V16.875L15.375 23.4375C14.625 24.25 13.3125 24.25 12.5625 23.4375C11.75 22.6875 11.75 21.375 12.5625 20.625L22.5625 10.625C23.3125 9.8125 24.625 9.8125 25.375 10.625L35.375 20.625C36.1875 21.375 36.1875 22.6875 35.375 23.4375Z" fill="#0B1513"/>
</svg>
