<svg width="48" height="48" viewBox="0 0 48 48" fill="none" xmlns="http://www.w3.org/2000/svg">
<g clip-path="url(#clip0_181_5)">
<path d="M25.4125 8.5875C24.6313 7.80625 23.3625 7.80625 22.5813 8.5875L14.5813 16.5875C13.8 17.3687 13.8 18.6375 14.5813 19.4188C15.3625 20.2 16.6313 20.2 17.4125 19.4188L22 14.8312V28C22 29.1062 22.8938 30 24 30C25.1062 30 26 29.1062 26 28V14.8312L30.5875 19.4188C31.3687 20.2 32.6375 20.2 33.4188 19.4188C34.2 18.6375 34.2 17.3687 33.4188 16.5875L25.4188 8.5875H25.4125ZM14 30C14 28.8938 13.1063 28 12 28C10.8937 28 10 28.8938 10 30V34C10 37.3125 12.6875 40 16 40H32C35.3125 40 38 37.3125 38 34V30C38 28.8938 37.1063 28 36 28C34.8937 28 34 28.8938 34 30V34C34 35.1062 33.1063 36 32 36H16C14.8938 36 14 35.1062 14 34V30Z" fill="black"/>
</g>
<defs>
<clipPath id="clip0_181_5">
<rect width="36" height="32" fill="white" transform="matrix(0 -1 1 0 8 42)"/>
</clipPath>
</defs>
</svg>
