<svg width="48" height="48" viewBox="0 0 48 48" fill="none" xmlns="http://www.w3.org/2000/svg">
<path d="M35.375 22.5L35.1875 21.625C35.0625 22 34.8125 22.625 34.875 22.5625C34.875 22.5625 34.0625 24.75 33.875 25.3125H35.9375C35.8125 24.8125 35.375 22.5 35.375 22.5ZM42 13C42 11.375 40.625 10 39 10H9C7.3125 10 6 11.375 6 13V35C6 36.6875 7.3125 38 9 38H39C40.625 38 42 36.6875 42 35V13ZM15.5 28.75H12.875L10.625 20.3125C9.8125 19.8125 8.9375 19.5 8 19.25V19H12.0625C12.625 19.0625 13.0625 19.25 13.1875 19.875L14.0625 24.3125L14.3125 25.625L16.8125 19H19.4375L15.5 28.75ZM21.375 28.75H18.875L20.4375 19H23L21.375 28.75ZM30.125 25.5625C30.125 27.5625 28.4375 28.875 25.75 28.875C24.625 28.875 23.5625 28.625 23 28.375L23.3125 26.1875L23.625 26.3125C24.5 26.6875 25 26.875 26 26.875C26.75 26.875 27.5 26.5625 27.5 25.875C27.5 25.5 27.1875 25.1875 26.1875 24.6875C25.25 24.25 24 23.4375 24 22.0625C24 20.1875 25.75 18.875 28.25 18.875C29.25 18.875 30 19.0625 30.5 19.25L30.1875 21.375L29.9375 21.25C29.5 21.0625 28.875 20.875 28.0625 20.875C27.0625 20.875 26.625 21.3125 26.625 21.75C26.625 22.1875 27.1875 22.5 28.0625 22.9375C29.5 23.625 30.1875 24.4375 30.125 25.5625ZM39 28.75H36.625C36.625 28.75 36.4375 27.625 36.375 27.3125H33.125C33 27.5625 32.625 28.75 32.625 28.75H29.9375L33.6875 19.8125C33.9375 19.1875 34.375 19 35 19H36.9375L39 28.75Z" fill="#0B1513"/>
</svg>
