<svg width="48" height="48" viewBox="0 0 48 48" fill="none" xmlns="http://www.w3.org/2000/svg">
<path d="M28.125 24L34.375 17.75C35.1875 17 35.1875 15.75 34.375 15L33 13.625C32.25 12.8125 31 12.8125 30.25 13.625L24 19.875L17.6875 13.625C16.9375 12.8125 15.6875 12.8125 14.9375 13.625L13.5625 15C12.75 15.75 12.75 17 13.5625 17.75L19.8125 24L13.5625 30.3125C12.75 31.0625 12.75 32.3125 13.5625 33.0625L14.9375 34.4375C15.6875 35.25 16.9375 35.25 17.6875 34.4375L24 28.1875L30.25 34.4375C31 35.25 32.25 35.25 33 34.4375L34.375 33.0625C35.1875 32.3125 35.1875 31.0625 34.375 30.3125L28.125 24Z" fill="black"/>
</svg>
