<svg width="48" height="48" viewBox="0 0 48 48" fill="none" xmlns="http://www.w3.org/2000/svg">
<path d="M40.3125 15.8125C39.9375 14.3125 38.75 13.125 37.3125 12.75C34.625 12 24 12 24 12C24 12 13.3125 12 10.625 12.75C9.1875 13.125 8 14.3125 7.625 15.8125C6.875 18.4375 6.875 24.0625 6.875 24.0625C6.875 24.0625 6.875 29.625 7.625 32.3125C8 33.8125 9.1875 34.9375 10.625 35.3125C13.3125 36 24 36 24 36C24 36 34.625 36 37.3125 35.3125C38.75 34.9375 39.9375 33.8125 40.3125 32.3125C41.0625 29.625 41.0625 24.0625 41.0625 24.0625C41.0625 24.0625 41.0625 18.4375 40.3125 15.8125ZM20.5 29.125V19L29.375 24.0625L20.5 29.125Z" fill="#0B1513"/>
</svg>
